<svg xmlns="http://www.w3.org/2000/svg" xmlns:xlink="http://www.w3.org/1999/xlink" width="128" height="69" viewBox="0 0 128 69">
    <defs>
        <path id="aikj80bpca" d="M0 0.599L127.835 0.599 127.835 68.48 0 68.48z"/>
    </defs>
    <g fill="none" fill-rule="evenodd">
        <g>
            <g>
                <g transform="translate(-659 -54) translate(659 54) translate(0 .041)">
                    <mask id="7k6r29hwbb" fill="#fff">
                        <use xlink:href="#aikj80bpca"/>
                    </mask>
                    <path fill="#BFBEBE" d="M63.917 68.48c35.3 0 63.918-15.196 63.918-33.94 0-18.746-28.617-33.941-63.918-33.941C28.617.599 0 15.794 0 34.539c0 18.745 28.617 33.94 63.917 33.94" mask="url(#7k6r29hwbb)"/>
                </g>
                <path fill="#FFF" d="M63.866 66.057c-16.624 0-32.258-3.295-44.023-9.275C14.09 53.858 9.566 50.446 6.4 46.64c-3.314-3.98-4.996-8.222-5.001-12.605-.006-4.388 1.67-8.64 4.983-12.634 3.167-3.818 7.695-7.245 13.455-10.184C31.622 5.203 47.285 1.881 63.94 1.861l.152-.002c16.624 0 32.258 3.295 44.024 9.275 5.752 2.924 10.276 6.337 13.443 10.144 3.314 3.981 4.997 8.222 5.002 12.604.006 4.39-1.671 8.64-4.984 12.635-3.168 3.818-7.695 7.244-13.454 10.183-11.786 6.014-27.448 9.336-44.104 9.357h-.153z" transform="translate(-659 -54) translate(659 54)"/>
                <path fill="#C1252F" d="M7.954 30.435c.214-14.564 25.65-26.006 56.81-25.558 31.162.448 56.25 12.617 56.035 27.181-.213 14.564-25.648 26.007-56.81 25.558C32.828 57.168 7.74 44.998 7.954 30.435" transform="translate(-659 -54) translate(659 54)"/>
                <path fill="#FFF" d="M67.548 13.223c.386-.138.814-.355.686-.642-.127-.287-.247-.548-.512-.421-.265.126-1.388.674-1.866-.11 0 0 1.9-.775 2.02-.835.12-.059.459-.402.383-.809-.051-.278-.8-1.525-2.64-.97-1.84.557-1.5 2.63-1.049 3.153.317.367 1.218 1.265 2.978.634zm-1.443-2.983c.433-.129.817.329.493.488-.323.159-1.167.487-1.167.487.009-.471.238-.844.674-.975zM29.95 33.701c-1.657-1.349-2.054-2.137-1.277-2.614.778-.476 1.585.148 2.054.453.47.304.249 1.29.66 1.799.41.508.631.802 1.686 1.393 1.056.59 1.615.218 2.436-1.349.378-.75.644-1.139-.236-2.136-.88-.999-3.255-3.234-6.232-3.509-2.977-.275-4.228.479-5.32 2.148-1.088 1.669.04 3.54 1.536 4.86 1.496 1.32 3.23 2.602 2.244 3.67-.468.508-.85.798-1.877.19-1.027-.61-1.511-1.09-1.481-1.814.03-.726 0-1.306-1.232-2.133-1.231-.827-2.552-1.32-3.167-.203-.617 1.116-1.1 1.87-.118 2.959.982 1.088 2.903 3.598 6.774 4.381 3.873.784 6.042-2.16 6.19-3.597.145-1.435-.983-3.149-2.64-4.498zm42.24 2.184c-.276.135-2.883 1.387-3.215 1.571-.33.186-.373.247-.227.821 0 0 .176.655.29 1.148.097.427.435.513.746.35.31-.165 2.584-1.344 3.041-1.55.455-.205.524-.461.42-.789-.104-.329-.188-.794-.31-1.312-.12-.512-.427-.397-.745-.24zm-8.085-1.72c5.75-.278 10.323-2.479 10.177-7.163-.137-4.383-5.46-5.996-9.914-5.86-3.21.098-5.171 1.094-5.171 1.094l.122-2.608s1.36.302 2.68.304c2.154.003 6.669-.439 9.074-1.841 1.841-1.073 1.887-1.888 1.78-2.144-.108-.255-.392-.62-1.974-.304-2.045.41-9.237 1.023-14.738.379 0 0-.218 6.627-.28 7.39-.061.762-.086 1.084.18 1.414 1.058 1.308 3.013-.92 5.981-1.095 3.138-.185 4.955 2.79 4.022 5.742-.88 2.784-3.095 2.663-4.228 2.462-1.135-.203-1.073-1.868-.776-2.427.449-.85.373-2.34-2.12-2.81-2.6-.488-4.485.88-4.622 2.49-.302 3.52 4.059 5.252 9.807 4.977zM61.66 13.242c.337.022 1.687.052 1.86.052.172 0 .204-.008.229-.2.025-.194.025-.282.033-.387.006-.103-.017-.183-.188-.214-.12-.023-.18-.03-.262-.045-.082-.015-.157-.03-.141-.334.014-.304.098-3.445.098-3.445 0-.215.05-.33.19-.444.142-.113.27-.126.27-.481v-.335c0-.119-.108-.334-.46-.148-.354.185-1.305.527-1.608.668-.112.052-.18.133-.186.363-.008.23-.045.438.165.475.21.037.435 0 .427.407-.007.409-.06 2.65-.075 2.88-.015.23-.015.38-.217.38-.203 0-.292-.023-.308.207-.015.23-.165.578.173.601zm38.536 18.581c.307.35.476.288.629 0 .152-.288 1.424-3.03 1.562-3.41.137-.378.076-.545-.078-.712l-.81-.894c-.242-.262-.35-.142-.486.145-.135.289-1.353 2.81-1.567 3.325-.214.515-.016.668.107.81.122.143.337.388.643.736zm-47.738 15.34c-.359-.067-.58-.271-.496-.708.082-.436.454-2.346.937-4.813.482-2.469-1.723-3.586-3.928-3.927-2.205-.342-3.928-.165-4.575 0-.65.163-.69.476-.745.695-.056.218-.18.832-.318 1.635-.137.806.744.655 1.695.819.952.164 1.103-.177 1.669-.409.564-.232.868-.328 1.846-.136.978.19.675 1.173.552 1.785-3.39-.49-7.043-.068-7.636 2.81-.593 2.877 2.6 3.53 3.814 3.786 1.212.254 2.444-.228 2.93-.473 1.093 2.032 4.006 1.173 4.447.996.441-.177.455-.886.539-1.445.082-.56-.372-.547-.731-.615zm-4.06-1.31s-.744.692-1.892.434c-1.146-.258-1.04-.903-.985-1.18.058-.274.304-1.487 3.2-1.192l-.323 1.938zm31.404-7.58c-2.645.982-4.547 3.136-3.444 7.363 1.1 4.228 4.906 4.473 7.828 3.681 2.922-.79 5.485-3.68 3.942-7.853-1.543-4.172-5.55-4.22-8.326-3.19zm4.187 8.239c-1.744.808-2.937-.317-3.81-1.788-.916-1.543-.792-3.207.23-3.779 1.62-.903 3.099.04 3.977 1.82.235.478 1.35 2.938-.397 3.747zm-41.993-9.606c-.446-.094-.732-.16-1.197-.245 0 0 1.357-1.962 1.68-2.394.324-.432.123-.705-.218-.752-.341-.046-2.06-.367-2.581-.46-.524-.094-.666-.01-.932.366-.265.375-1.69 2.452-1.69 2.452s-.75-.141-1.026-.189c-.274-.046-.37.01-.54.264-.171.253-.864 1.22-1.103 1.572-.236.35-.036.541.343.626.38.084.562.14.562.14s-1.523 2.175-2.119 3.054c-.563.827-.967 1.361-1.178 2.281-.353 1.562 1.064 2.236 2.252 2.724 1.186.487 2.012.32 2.364.16.35-.159.57-.958.607-1.398.038-.44-.123-.509-.76-.818-.636-.31-.446-.836-.199-1.211.247-.377 2.08-2.912 2.772-3.927l1.424.254c.531.094.74-.094.93-.357.188-.263.542-.762.913-1.306.37-.545.141-.742-.304-.836zm70.487-1.264c-.135-.122-.343-.32-.866-.845-.522-.523-.883-.079-1.103.12-.221.198-.604.259-1.005-.1-.402-.357-3.574-3.57-3.574-3.57s.047-.237.13-.474c.082-.235.182-.727-.048-.936-.229-.208-.963-1-1.506-1.49s-.984.264-1.231.726c-.249.464-1.691 3.147-2.003 3.719-.312.572-.248.9-.083 1.063.165.164.92.9 1.25 1.21.564.527 1.065.027 1.35-.146.286-.173.515-.054.68.109.166.164 1.93 1.89 2.288 2.227.359.337-.036.728-.304.973-.265.245-.265.481-.109.655.156.172.744.762 1.002 1.018.257.254.496.208.68.081.615-.454 3.852-3.128 4.322-3.489.47-.361.267-.729.13-.85zm-9.286 4.956c-.278-.51-.305-.455-1.03-.235-.722.22-.862-.165-1.043-.565-.18-.398-.737-1.623-1.642-3.783-.7-1.674-2.002-3.772-4.896-2.684-1.996.75-2.7 2.45-2.7 2.45s-.277-.534-.36-.716c-.239-.53-.417-.565-.904-.138-.487.426-2.546 2.766-2.81 3.083-.264.316-.292.537-.196.743.099.206.335.812.516 1.197.18.385.459.413.973.234.515-.179.751-.096.933.344.18.44 1.03 2.408 1.362 3.167.335.757-.486.933-.709 1.058-.222.124-.277.4-.167.675.112.275.362.894.515 1.224.152.331.404.496.764.372.363-.124 4.48-1.748 4.856-1.858.374-.11.515-.399.374-.708-.138-.31-.36-.819-.569-1.302-.208-.48-.514-.412-.904-.26-.39.151-.667-.097-.849-.483-.18-.385-1.572-3.669-1.572-3.669s.056-1.12 1.211-1.684c1.155-.565 1.836.233 2.073.771.236.537 1.155 2.739 1.443 3.344.287.606.032.77-.248.922-.277.151-.417.344-.277.688.139.344.32.784.525 1.252.205.468.393.482.768.345.376-.138 4.118-1.57 4.703-1.803.584-.235.57-.427.416-.784-.152-.359-.278-.69-.556-1.197zm-38.004-3.546c-1.331-.03-1.914.307-2.317.568-.404.262-.9.569-1.849 1.2-5.404-.524-6.352 2.672-6.523 4.116-.171 1.445.482 2.782 2.066 3.734-1.002.406-2.183.753-2.307 2.158-.123 1.404 1.393 1.868 2.205 1.963.815.095 3.019.095 4.177.123 1.157.027 1.31.6 1.075 1.158-.234.559-1.723.833-3.708-.108-1.78-.845-3.376-.792-4.148-.614-.479.11-.483.587-.496 1.595-.015 1.009.289 1.5 3.652 2.046 3.362.545 8.876.3 9.206-3.34.331-3.642-4.065-3.342-6.574-3.41-.992-.027-1.503-.082-1.488-.504.014-.423 1.158-.355 2.191-.342 4.62.062 5.225-2.158 5.39-3.504.372-3.04-1.925-4.306-2.005-4.327-.079-.021-.151-.127 0-.146.973-.118.845.362 2.724.41.62.018.682-.21.698-.533.015-.323.062-.953.093-1.628.03-.677-.73-.584-2.062-.615zm-3.33 6.216c-.078 1.267-.628 1.742-1.552 1.707-.683-.026-1.899-.427-1.873-2.017.026-1.592.902-1.772 1.648-1.785 1.163.078 1.856.827 1.777 2.095zm13.502 5.078c-.086-.963-.694-.67-1.012-.702-.318-.03-.542-.044-.592-.761-.05-.718-.22-3.555-.286-4.156-.069-.6.084-1 .54-1.469.454-.466.353-.817.337-1.085-.017-.266-.085-.817-.152-1.267-.068-.451-.558-.401-.911-.2-.356.2-4.251 2.302-4.62 2.552-.37.25-.509.535-.458.885.05.35.085.834.102.932.016.098-.052.77.741.703.793-.066.86.335.894.785 0 0 .189 1.956.245 2.755.054.801-.415.781-.893.89-.477.11-.477.51-.468.72.01.208.037.854.082 1.245.047.39.23.518.735.49.505-.026 3.954-.431 4.863-.536.909-.105.92-.379.915-.72-.006-.34-.044-.855-.062-1.061zM39.59 13.288s3.448 17.499 3.447 17.535c0 .038-19.315-7.2-19.315-7.2 1.67-.896 7.904-1.734 15.34 3.604-1.157-3.61-2.529-13.221.529-13.94M46.834 20.759c-1.118-2.257-3.59-1.143-4.362-2.936-.032 5.407 4.141 3.84 4.97 5.769-.034-2.096 4.43-2.346 2.179-7.272.03 1.95-2.693 1.927-2.787 4.439" transform="translate(-659 -54) translate(659 54)"/>
                <path fill="#FFF" d="M47.736 24.957c-1.118-2.256-3.59-1.142-4.362-2.935-.032 5.406 4.14 3.84 4.97 5.769-.034-2.096 4.43-2.347 2.179-7.272.03 1.949-2.693 1.927-2.787 4.438" transform="translate(-659 -54) translate(659 54)"/>
                <path fill="#FFF" d="M48.638 29.155c-1.118-2.256-3.59-1.142-4.362-2.934-.032 5.406 4.14 3.84 4.97 5.768-.034-2.095 4.43-2.346 2.179-7.271.03 1.947-2.694 1.927-2.787 4.437M46.409 18.78c-1.106.233-2.003-.941-1.856-1.958.144-1 .843-1.838.781-3.044.44 1.126 1.423 1.61 1.966 2.466.553.87.216 2.303-.891 2.535M46.35 11.569L46.782 11.478 47.509 14.858 47.076 14.949zM44.708 11.914L44.912 12.865 45.345 12.774 45.141 11.824zM47.992 11.224L48.424 11.133 49.419 15.761 48.986 15.852zM43.499 12.169L43.066 12.26 43.792 15.64 44.225 15.548zM41.856 12.514L41.424 12.605 42.418 17.233 42.851 17.142zM89.497 13.288s-3.447 17.499-3.446 17.535c0 .038 19.314-7.2 19.314-7.2-1.669-.896-7.903-1.734-15.34 3.604 1.158-3.61 2.53-13.221-.528-13.94M82.254 20.759c1.118-2.257 3.59-1.143 4.362-2.936.032 5.407-4.141 3.84-4.97 5.769.034-2.096-4.43-2.346-2.179-7.272-.03 1.95 2.693 1.927 2.787 4.439" transform="translate(-659 -54) translate(659 54)"/>
                <path fill="#FFF" d="M81.351 24.957c1.119-2.256 3.59-1.142 4.363-2.935.032 5.406-4.14 3.84-4.971 5.769.035-2.096-4.429-2.347-2.178-7.272-.03 1.949 2.693 1.927 2.786 4.438" transform="translate(-659 -54) translate(659 54)"/>
                <path fill="#FFF" d="M80.45 29.155c1.118-2.256 3.59-1.142 4.362-2.934.032 5.406-4.141 3.84-4.971 5.768.035-2.095-4.43-2.346-2.178-7.271-.03 1.947 2.693 1.927 2.787 4.437M82.679 18.78c1.106.233 2.003-.941 1.855-1.958-.143-1-.842-1.838-.78-3.044-.44 1.126-1.423 1.61-1.967 2.466-.552.87-.215 2.303.892 2.535M82.738 11.569L82.305 11.478 81.579 14.858 82.011 14.949zM83.743 12.773L84.175 12.865 84.38 11.914 83.947 11.824zM81.096 11.224L80.664 11.133 79.669 15.761 80.101 15.852zM85.589 12.169L86.022 12.26 85.296 15.64 84.863 15.548zM87.231 12.514L87.664 12.605 86.67 17.233 86.236 17.142z" transform="translate(-659 -54) translate(659 54)"/>
            </g>
        </g>
    </g>
</svg>
