<?xml version="1.0" encoding="utf-8"?>
<!-- Generator: Adobe Illustrator 24.3.0, SVG Export Plug-In . SVG Version: 6.00 Build 0)  -->
<svg version="1.1" id="Layer_1" xmlns="http://www.w3.org/2000/svg" xmlns:xlink="http://www.w3.org/1999/xlink" x="0px" y="0px"
	 viewBox="0 0 729.35 671.12" style="enable-background:new 0 0 729.35 671.12;" xml:space="preserve">
<style type="text/css">
	.st0{fill:#C1252F;}
	.st1{fill:#BFBEBE;}
	.st2{fill:#FFFFFF;}
</style>
<g>
	<g>
		<path class="st1" d="M364.67,150.69c78.37,0,141.89-33.73,141.89-75.35C506.57,33.73,443.04,0,364.67,0
			c-78.37,0-141.89,33.73-141.89,75.34C222.78,116.96,286.31,150.69,364.67,150.69"/>
		<path class="st2" d="M364.56,145.22c-36.9,0-71.61-7.31-97.73-20.59c-12.77-6.49-22.82-14.07-29.84-22.52
			c-7.36-8.83-11.09-18.25-11.1-27.98c-0.01-9.74,3.71-19.18,11.06-28.05c7.03-8.47,17.08-16.08,29.86-22.61
			c26.16-13.35,60.94-20.72,97.91-20.77h0.34c36.9,0,71.61,7.32,97.73,20.59c12.77,6.49,22.81,14.06,29.84,22.51
			c7.36,8.84,11.09,18.26,11.1,27.99c0.01,9.75-3.71,19.18-11.06,28.05c-7.03,8.47-17.08,16.08-29.87,22.6
			c-26.16,13.35-60.93,20.73-97.91,20.77H364.56z"/>
		<path class="st0" d="M240.44,66.14c0.48-32.33,56.94-57.73,126.12-56.74c69.18,1,124.88,28.02,124.4,60.34
			c-0.47,32.33-56.94,57.74-126.12,56.75C295.65,125.49,239.96,98.47,240.44,66.14"/>
		<path class="st2" d="M390.09,105.91c-0.19-2.14-1.54-1.49-2.24-1.56c-0.71-0.07-1.21-0.1-1.32-1.69c-0.11-1.6-0.49-7.89-0.64-9.23
			c-0.15-1.33,0.19-2.22,1.2-3.26c1.01-1.03,0.79-1.81,0.75-2.4c-0.03-0.59-0.18-1.82-0.33-2.82c-0.15-1-1.24-0.89-2.02-0.44
			c-0.79,0.44-9.44,5.11-10.26,5.67c-0.82,0.56-1.13,1.19-1.02,1.96c0.12,0.78,0.19,1.85,0.23,2.07c0.04,0.21-0.11,1.71,1.65,1.56
			c1.76-0.15,1.91,0.74,1.98,1.74c0,0,0.42,4.34,0.54,6.12c0.12,1.78-0.92,1.73-1.98,1.98c-1.06,0.25-1.06,1.13-1.04,1.6
			c0.02,0.46,0.08,1.9,0.18,2.76c0.1,0.87,0.51,1.15,1.63,1.09c1.12-0.06,8.78-0.96,10.79-1.19c2.02-0.23,2.04-0.84,2.03-1.59
			C390.21,107.5,390.13,106.36,390.09,105.91 M360.11,94.63c-0.17,2.81-1.39,3.87-3.44,3.79c-1.52-0.06-4.22-0.95-4.16-4.48
			c0.06-3.54,2.01-3.93,3.66-3.96C358.75,90.16,360.29,91.82,360.11,94.63 M367.51,80.83c-2.96-0.07-4.25,0.68-5.15,1.26
			c-0.89,0.59-2,1.27-4.1,2.67c-12-1.16-14.1,5.93-14.48,9.14c-0.38,3.2,1.07,6.18,4.59,8.29c-2.23,0.9-4.85,1.67-5.12,4.79
			c-0.27,3.12,3.09,4.15,4.89,4.36c1.81,0.21,6.7,0.21,9.27,0.28c2.57,0.06,2.91,1.33,2.38,2.57c-0.51,1.24-3.82,1.85-8.23-0.24
			c-3.95-1.88-7.49-1.76-9.21-1.36c-1.06,0.24-1.07,1.3-1.1,3.54c-0.03,2.24,0.64,3.33,8.11,4.54c7.46,1.21,19.7,0.67,20.44-7.42
			c0.73-8.08-9.03-7.41-14.6-7.57c-2.2-0.06-3.33-0.18-3.3-1.12c0.03-0.94,2.57-0.79,4.87-0.76c10.25,0.14,11.59-4.79,11.96-7.78
			c0.83-6.75-4.27-9.56-4.45-9.6c-0.18-0.05-0.34-0.28,0-0.32c2.16-0.26,1.87,0.8,6.04,0.91c1.38,0.04,1.51-0.47,1.55-1.19
			c0.03-0.72,0.14-2.11,0.21-3.62C372.15,80.7,370.46,80.9,367.51,80.83 M451.87,88.7c-0.62-1.13-0.68-1-2.29-0.52
			c-1.6,0.49-1.91-0.37-2.32-1.26c-0.4-0.88-1.64-3.6-3.65-8.4c-1.55-3.72-4.45-8.37-10.87-5.96c-4.43,1.67-5.99,5.44-5.99,5.44
			s-0.62-1.19-0.8-1.58c-0.53-1.18-0.92-1.25-2-0.31c-1.08,0.95-5.66,6.14-6.24,6.84c-0.59,0.7-0.65,1.2-0.43,1.65
			c0.21,0.46,0.74,1.8,1.14,2.66c0.4,0.86,1.01,0.92,2.16,0.52c1.14-0.39,1.66-0.21,2.07,0.77c0.4,0.98,2.29,5.35,3.02,7.03
			c0.75,1.68-1.08,2.07-1.58,2.34c-0.49,0.27-0.61,0.88-0.37,1.5c0.25,0.61,0.81,1.98,1.14,2.72c0.34,0.74,0.9,1.1,1.7,0.83
			c0.81-0.28,9.95-3.88,10.78-4.13c0.83-0.24,1.15-0.89,0.83-1.58c-0.31-0.68-0.8-1.81-1.27-2.88c-0.46-1.07-1.14-0.92-2.01-0.58
			c-0.86,0.34-1.48-0.21-1.89-1.06c-0.4-0.85-3.49-8.15-3.49-8.15s0.12-2.49,2.69-3.74c2.56-1.25,4.08,0.52,4.6,1.72
			c0.52,1.19,2.56,6.08,3.2,7.42c0.64,1.35,0.07,1.71-0.55,2.05c-0.62,0.33-0.93,0.76-0.62,1.53c0.31,0.76,0.71,1.74,1.16,2.78
			c0.46,1.04,0.88,1.07,1.71,0.76c0.83-0.3,9.14-3.48,10.44-4c1.3-0.53,1.26-0.95,0.92-1.75C452.77,90.56,452.49,89.83,451.87,88.7
			 M472.49,77.7c-0.3-0.27-0.76-0.71-1.92-1.87c-1.16-1.16-1.96-0.18-2.45,0.26c-0.49,0.44-1.34,0.57-2.23-0.22
			c-0.89-0.79-7.93-7.92-7.93-7.92s0.1-0.53,0.29-1.05c0.18-0.52,0.4-1.62-0.1-2.08c-0.5-0.46-2.14-2.23-3.35-3.31
			c-1.21-1.09-2.18,0.58-2.73,1.61c-0.55,1.03-3.75,6.99-4.44,8.25c-0.69,1.28-0.55,2-0.19,2.36c0.37,0.36,2.04,2,2.77,2.69
			c1.25,1.17,2.37,0.06,3-0.33c0.64-0.38,1.14-0.12,1.51,0.24c0.37,0.37,4.28,4.2,5.08,4.95c0.8,0.74-0.08,1.61-0.67,2.16
			c-0.59,0.55-0.59,1.07-0.25,1.46c0.35,0.38,1.65,1.69,2.22,2.26c0.57,0.57,1.1,0.47,1.51,0.18c1.37-1.01,8.55-6.94,9.59-7.75
			C473.24,78.79,472.79,77.97,472.49,77.7 M316.01,80.51c-0.99-0.21-1.63-0.36-2.66-0.55c0,0,3.01-4.36,3.73-5.31
			c0.72-0.96,0.27-1.57-0.49-1.67c-0.76-0.1-4.57-0.82-5.73-1.02c-1.16-0.21-1.48-0.02-2.07,0.81c-0.59,0.83-3.75,5.44-3.75,5.44
			s-1.66-0.31-2.27-0.41c-0.61-0.1-0.82,0.02-1.2,0.58c-0.38,0.57-1.92,2.71-2.45,3.49c-0.53,0.78-0.08,1.2,0.76,1.39
			c0.84,0.19,1.25,0.31,1.25,0.31s-3.38,4.83-4.7,6.78c-1.25,1.84-2.15,3.03-2.62,5.07c-0.78,3.47,2.36,4.96,5,6.04
			c2.63,1.09,4.47,0.71,5.25,0.36c0.78-0.35,1.27-2.13,1.35-3.11c0.09-0.97-0.27-1.12-1.69-1.81c-1.41-0.69-0.99-1.86-0.44-2.69
			c0.55-0.83,4.61-6.46,6.16-8.71c0,0,1.98,0.35,3.16,0.56c1.18,0.21,1.65-0.21,2.06-0.79c0.42-0.58,1.21-1.69,2.03-2.89
			C317.5,81.15,316.99,80.71,316.01,80.51 M409.23,101.83c-3.87,1.79-6.52-0.71-8.46-3.97c-2.03-3.43-1.76-7.12,0.51-8.39
			c3.59-2.01,6.88,0.09,8.82,4.04C410.63,94.57,413.11,100.03,409.23,101.83 M399.94,83.54c-5.87,2.18-10.1,6.96-7.65,16.34
			c2.45,9.39,10.89,9.93,17.38,8.17c6.49-1.75,12.18-8.17,8.75-17.43C414.99,81.36,406.1,81.25,399.94,83.54 M330.22,100.37
			c0,0-1.65,1.54-4.2,0.96c-2.54-0.57-2.31-2-2.19-2.61c0.13-0.61,0.67-3.31,7.1-2.65L330.22,100.37z M339.23,103.28
			c-0.79-0.15-1.29-0.61-1.1-1.57c0.18-0.98,1.01-5.21,2.08-10.69c1.08-5.48-3.82-7.96-8.72-8.72c-4.89-0.76-8.72-0.37-10.15,0
			c-1.44,0.36-1.53,1.06-1.65,1.54c-0.12,0.49-0.4,1.85-0.71,3.63c-0.3,1.79,1.65,1.46,3.76,1.82c2.11,0.37,2.45-0.39,3.7-0.91
			c1.25-0.51,1.93-0.73,4.1-0.3c2.17,0.42,1.5,2.6,1.23,3.96c-7.52-1.09-15.63-0.15-16.95,6.23c-1.32,6.39,5.77,7.84,8.47,8.4
			c2.69,0.57,5.42-0.5,6.5-1.05c2.42,4.51,8.89,2.61,9.88,2.21c0.97-0.39,1-1.97,1.19-3.21
			C341.04,103.4,340.03,103.43,339.23,103.28 M445.21,69.22c0.68,0.77,1.06,0.64,1.4,0c0.34-0.64,3.16-6.73,3.46-7.57
			c0.31-0.84,0.17-1.21-0.17-1.58c0,0-1.53-1.69-1.8-1.99c-0.54-0.58-0.77-0.31-1.08,0.33c-0.3,0.64-3,6.24-3.48,7.38
			c-0.48,1.15-0.04,1.48,0.24,1.8C444.05,67.91,444.53,68.45,445.21,69.22 M359.66,27.98c0.75,0.04,3.74,0.11,4.13,0.11
			c0.38,0,0.46-0.02,0.51-0.45c0.05-0.43,0.05-0.62,0.07-0.86c0.01-0.23-0.04-0.41-0.42-0.47c-0.27-0.05-0.4-0.07-0.58-0.1
			c-0.18-0.03-0.35-0.07-0.31-0.75c0.03-0.67,0.21-7.64,0.21-7.64c0-0.48,0.12-0.74,0.42-0.99c0.31-0.25,0.6-0.27,0.6-1.06v-0.74
			c0-0.26-0.24-0.74-1.03-0.33c-0.78,0.41-2.89,1.17-3.56,1.48c-0.25,0.12-0.4,0.3-0.42,0.81c-0.01,0.51-0.1,0.97,0.37,1.05
			c0.47,0.09,0.96,0,0.95,0.9c-0.01,0.91-0.14,5.89-0.17,6.4c-0.03,0.51-0.03,0.84-0.48,0.84c-0.45,0-0.65-0.05-0.68,0.46
			C359.25,27.15,358.91,27.93,359.66,27.98 M365.09,74.42c12.76-0.62,22.92-5.5,22.59-15.9c-0.3-9.73-12.12-13.31-22.01-13.01
			c-7.13,0.22-11.48,2.43-11.48,2.43l0.27-5.79c0,0,3.02,0.68,5.95,0.68c4.78,0.01,14.8-0.98,20.14-4.09
			c4.09-2.38,4.19-4.2,3.95-4.76c-0.24-0.56-0.87-1.38-4.38-0.68c-4.54,0.91-20.5,2.27-32.72,0.84c0,0-0.49,14.71-0.62,16.4
			c-0.14,1.69-0.19,2.41,0.4,3.14c2.35,2.91,6.69-2.04,13.28-2.43c6.97-0.41,11,6.19,8.93,12.75c-1.95,6.18-6.87,5.91-9.38,5.46
			c-2.52-0.45-2.38-4.15-1.73-5.38c1-1.89,0.83-5.2-4.7-6.24c-5.77-1.08-9.96,1.96-10.26,5.53
			C342.65,71.19,352.33,75.03,365.09,74.42 M383.04,78.24c-0.61,0.3-6.4,3.08-7.14,3.49c-0.73,0.42-0.83,0.55-0.51,1.83
			c0,0,0.39,1.45,0.64,2.55c0.22,0.95,0.97,1.14,1.66,0.78c0.69-0.37,5.74-2.98,6.75-3.44c1.01-0.45,1.16-1.02,0.93-1.75
			c-0.23-0.73-0.42-1.77-0.69-2.92C384.42,77.63,383.75,77.89,383.04,78.24 M289.27,73.39c-3.68-3-4.56-4.75-2.84-5.81
			c1.73-1.06,3.52,0.33,4.56,1.01c1.04,0.68,0.55,2.87,1.47,3.99c0.91,1.13,1.4,1.78,3.74,3.09c2.34,1.3,3.58,0.49,5.41-2.99
			c0.84-1.67,1.43-2.53-0.52-4.74c-1.95-2.22-7.23-7.18-13.84-7.79c-6.61-0.61-9.38,1.06-11.81,4.77c-2.42,3.7,0.09,7.86,3.41,10.79
			c3.32,2.93,7.17,5.78,4.98,8.15c-1.04,1.12-1.89,1.77-4.17,0.42c-2.28-1.36-3.36-2.42-3.29-4.03c0.07-1.61,0-2.9-2.73-4.73
			c-2.74-1.84-5.67-2.93-7.03-0.45c-1.37,2.48-2.44,4.15-0.26,6.57c2.18,2.42,6.45,7.99,15.04,9.73c8.6,1.74,13.41-4.8,13.74-7.98
			C295.45,80.19,292.95,76.38,289.27,73.39 M369.53,21.31c0.96-0.28,1.81,0.73,1.1,1.09c-0.72,0.35-2.59,1.08-2.59,1.08
			C368.05,22.43,368.57,21.6,369.53,21.31 M372.74,27.93c0.85-0.3,1.8-0.79,1.52-1.43c-0.28-0.63-0.55-1.22-1.14-0.93
			c-0.59,0.28-3.08,1.5-4.14-0.25c0,0,4.22-1.72,4.49-1.85c0.27-0.13,1.02-0.89,0.85-1.8c-0.12-0.62-1.78-3.39-5.87-2.15
			c-4.08,1.23-3.33,5.84-2.32,7C366.83,27.34,368.83,29.33,372.74,27.93"/>
		<path class="st2" d="M310.67,28.07c0,0,7.65,38.84,7.65,38.93c0,0.09-42.87-15.98-42.87-15.98c3.71-1.99,17.54-3.85,34.05,8
			C306.93,51,303.88,29.67,310.67,28.07"/>
		<path class="st2" d="M326.75,44.66c-2.48-5.01-7.97-2.54-9.68-6.52c-0.07,12,9.19,8.53,11.04,12.81
			c-0.08-4.66,9.84-5.21,4.83-16.15C333,39.13,326.96,39.09,326.75,44.66"/>
		<path class="st2" d="M328.75,53.98c-2.48-5.01-7.97-2.54-9.68-6.53c-0.07,12,9.19,8.53,11.03,12.81
			c-0.08-4.65,9.83-5.21,4.83-16.15C335.01,48.45,328.96,48.4,328.75,53.98"/>
		<path class="st2" d="M330.75,63.3c-2.48-5.01-7.97-2.53-9.68-6.51c-0.07,12,9.19,8.52,11.04,12.8c-0.08-4.64,9.83-5.21,4.83-16.14
			C337.01,57.77,330.96,57.73,330.75,63.3"/>
		<path class="st2" d="M325.8,40.26c-2.45,0.52-4.45-2.09-4.12-4.35c0.32-2.22,1.87-4.08,1.73-6.75c0.98,2.5,3.16,3.57,4.37,5.47
			C329.01,36.57,328.26,39.75,325.8,40.26"/>
		<polygon class="st2" points="325.67,24.26 326.63,24.06 328.25,31.56 327.29,31.76 		"/>
		<polygon class="st2" points="322.03,25.03 322.48,27.14 323.44,26.94 322.99,24.82 		"/>
		<polygon class="st2" points="329.32,23.49 330.28,23.29 332.48,33.56 331.53,33.77 		"/>
		<polygon class="st2" points="319.34,25.59 318.39,25.79 320,33.3 320.96,33.09 		"/>
		<polygon class="st2" points="315.7,26.36 314.74,26.56 316.95,36.83 317.91,36.63 		"/>
		<path class="st2" d="M421.46,28.07c0,0-7.65,38.84-7.65,38.93c0,0.09,42.88-15.98,42.88-15.98c-3.71-1.99-17.54-3.85-34.05,8
			C425.2,51,428.25,29.67,421.46,28.07"/>
		<path class="st2" d="M405.38,44.66c2.48-5.01,7.97-2.54,9.69-6.52c0.07,12-9.2,8.53-11.03,12.81c0.08-4.66-9.83-5.21-4.84-16.15
			C399.13,39.13,405.17,39.09,405.38,44.66"/>
		<path class="st2" d="M403.38,53.98c2.48-5.01,7.97-2.54,9.68-6.53c0.07,12-9.19,8.53-11.04,12.81c0.08-4.65-9.83-5.21-4.83-16.15
			C397.12,48.45,403.17,48.4,403.38,53.98"/>
		<path class="st2" d="M401.37,63.3c2.48-5.01,7.97-2.53,9.68-6.51c0.07,12-9.19,8.52-11.03,12.8c0.08-4.64-9.83-5.21-4.83-16.14
			C395.12,57.77,401.17,57.73,401.37,63.3"/>
		<path class="st2" d="M406.32,40.26c2.46,0.52,4.45-2.09,4.12-4.35c-0.32-2.22-1.87-4.08-1.74-6.75c-0.98,2.5-3.16,3.57-4.37,5.47
			C403.12,36.57,403.87,39.75,406.32,40.26"/>
		<polygon class="st2" points="406.45,24.26 405.5,24.06 403.88,31.56 404.84,31.76 		"/>
		<polygon class="st2" points="408.69,26.94 409.64,27.14 410.1,25.03 409.14,24.82 		"/>
		<polygon class="st2" points="402.81,23.49 401.85,23.29 399.64,33.56 400.6,33.77 		"/>
		<polygon class="st2" points="412.78,25.59 413.75,25.79 412.13,33.3 411.17,33.09 		"/>
		<polygon class="st2" points="416.43,26.36 417.39,26.56 415.18,36.83 414.22,36.63 		"/>
	</g>
	<g>
		<g>
			<path d="M98.91,312.26c-2.01,0.32-4.36,0.79-7.04,1.4c-2.69,0.62-5.87,1.11-9.55,1.47c-2.01,0.33-5.36,0.54-10.05,0.64
				c-3.35,0.07-5.86-0.01-7.54-0.27c-1.34-0.26-3.1-0.22-5.28,0.12c-2.18,0.34-3.94,0.52-5.27,0.55c-0.67,0.02-1.34,0.03-2.01,0.05
				c-2.01,0.05-3.01,0.95-3.01,2.7c-0.34,5.57-0.5,13.91-0.5,25.04c0.17,7.45,0.33-1.51,0.5,5.94c0.33,5.25,0.5,12.84,0.5,22.78
				c0,6.73,0,30.06,0,36.78c0.17,5.54,0.34,11.08,0.5,16.61c0.33,2.31-0.68,3.58-3.01,3.85c-0.5,0.06-1,0.12-1.51,0.17
				c-1-0.18-1.93-0.15-2.76,0.1c-0.84,0.25-1.59,0.41-2.26,0.49c-0.17-0.57-0.33-1.14-0.5-1.71c-2.34,2.63-5.02,4.14-8.03,4.5
				c-1.34,0.16-2.68,0.17-4.01,0.04c-1.34-0.13-2.85-0.1-4.52,0.11c0.66-1.28,1-2.06,1-2.37c-0.34,0.34-0.75,0.54-1.25,0.6
				c-0.5,0.06-0.75,0.24-0.75,0.54c-0.67,0.68-1.26,1.12-1.76,1.34c-0.5,0.21-1.09,0.21-1.75-0.01c-0.34-0.26-0.84-0.35-1.5-0.26
				c-3.35-0.18-5.69-0.19-7.02-0.02c-1.34,0.17-2.85-0.09-4.51-0.79c-0.34,0.2-0.67,0.39-1.01,0.59c-0.34,0.35-0.5,0.97-0.5,1.88
				c-1.34-0.13-1.68-1.15-1-3.06c-2.01,0.25-2.93-0.39-2.76-1.94c0.16-1.54,0.25-2.47,0.25-2.77c-0.34-0.87-0.5-2.22-0.5-4.05
				c0-1.22,0-2.44,0-3.66c0.33-5.53,0.67-11.05,1-16.56c0-0.91,0-1.83,0-2.74c0-6.55,0-29.7,0-36.25c-0.17-10.8-0.33-5.19-0.5-16
				c0-3.96,0.33-10.22,1-18.78c-0.17-8.82-0.33-17.65-0.5-26.48c0-5.02,0-10.05,0-15.08c-0.17-5.48-0.33-10.97-0.5-16.45
				c-0.17-11.12-0.33-22.25-0.5-33.39c0.16-7.16,0.33-14.31,0.5-21.46c0-5.33,0-10.66,0-16c0-7.31-0.17-12.66-0.5-16.05
				C0.16,179.82,0,173.1,0,164.25c0-4.88,0.5-9.7,1.5-14.46c0-0.3,0.67-0.98,2.01-2.04c0.84,0.71,1.67,1.42,2.51,2.13
				c0.84-1.42,1.67-2.83,2.5-4.24c0.33-0.26,0.83-0.35,1.5-0.27c1,0.12,2.42,0.07,4.27-0.15c1.83-0.23,3.59-0.24,5.27-0.03
				c2.67,0.03,6.68,0.36,12.04,1c3.34,0.1,8.36,0.54,15.06,1.31c7.2,1.11,14.39,2.2,21.59,3.25c1.51,0.3,3.02,0.6,4.52,0.9
				c0.34,0.18,0.67,0.36,1,0.54c9.05,0.94,15.75,1.74,20.1,2.45c0.67,0.35,2.68,1.04,6.04,2.06c3.35,1.02,6.36,2.35,9.05,3.99
				c-2.01-0.45-4.95-1.28-8.8-2.48c-3.86-1.2-7.13-2.08-9.8-2.63c-0.34-0.03-0.5,0.1-0.5,0.38c0.5,0.33,1,0.66,1.5,1
				c8.71,2.53,15.09,4.51,19.11,5.97c10.73,4.29,19.96,11.39,27.68,21.22c4.7,5.8,7.88,13.9,9.57,24.33
				c1.34,5.52,2.34,13.73,3.02,24.63c0,4.35,0.17,7.62,0.5,9.8c0.33,4.36-0.17,8.56-1.51,12.61c0,0.55-0.43,1.49-1.26,2.83
				c-0.84,1.35-1.25,2.57-1.25,3.66c0.34-0.4,0.67-0.81,1.01-1.21c-2.69,8.12-5.04,14.25-7.05,18.35
				c-4.03,9.28-11.07,16.58-21.14,21.94c-3.36,1.7-8.39,3.97-15.09,6.87c-0.68,0.58-1.01,1-1.01,1.28c3.69-1.6,7.38-3.18,11.07-4.76
				c-1.34,1.41-3.44,2.83-6.29,4.27c-2.85,1.44-5.28,2.33-7.29,2.64c0.33-0.01,0.83-0.29,1.51-0.87c-4.36,0.91-8.72,1.83-13.07,2.77
				c2.01-0.04,3.02-0.06,3.02-0.06C92.88,313.22,94.89,312.9,98.91,312.26z M16.55,321.58c-0.17-0.9-0.33-1.79-0.5-2.69
				c-0.34,0.01-0.67,0.02-1.01,0.03c0,0.6,0,1.21,0,1.81c0.17,0.9,0.33,1.8,0.5,2.7c-0.17,4.37-0.33,8.73-0.5,13.11
				c0.33,11.13,0.5,11.1,0.5,32.76c0.17,0.44,0.34,0.88,0.5,1.31c0.17,2.09,0.33,20.78,0.5,22.87c-0.67,7.27-1.01,13.03-1.01,17.24
				c-0.33,2.74-0.5,6.83-0.5,12.25c0,2.41,0.67,3.98,2.01,4.72c0-0.6,0-1.2,0-1.8c0-4.81,0-9.62,0-14.43c0-1.2,0.16-2.27,0.5-3.21
				c0.17-0.92,0.33-1.83,0.5-2.75c-0.17-9.29-0.33-35.19-0.5-44.49c-0.67-12.56-1-5.44-1-11.46
				C16.55,340.22,16.55,330.9,16.55,321.58z M21.06,321.9c-0.17-0.89-0.34-1.79-0.5-2.68c-0.33,0.16-0.67,0.32-1,0.48
				c0.17,17.54,0.33,18.65,0.5,36.17c-0.17,0.01-0.33,0.02-0.5,0.04c0-2.99-0.17-5.23-0.5-6.71c-0.34,0.02-0.67,0.04-1,0.07
				c0.5,20.08,1,56.74,1.5,76.77c0.33-0.33,1-1.46,2.01-3.38c0-0.6,0.17-1.29,0.5-2.08c0.33-0.78,0.5-1.47,0.5-2.08
				c-0.17-10.3-0.33-37.2-0.5-47.51C21.39,341.72,21.06,336.27,21.06,321.9z M18.55,424.34c0-3.3,0-6.6,0-9.9
				c-0.17,0.02-0.33,0.04-0.5,0.05c0,3.3,0,6.61,0,9.91C18.22,424.38,18.38,424.36,18.55,424.34z M19.56,247.74c0-2.55,0-5.1,0-7.65
				c-0.33-0.01-0.67-0.03-1-0.04c0.17,2.56,0.33,5.12,0.5,7.67C19.22,247.73,19.39,247.73,19.56,247.74z M20.06,234.26
				c-0.34-9.16-0.67-18.32-1-27.49c0,9.15,0,18.29,0,27.44C19.39,234.23,19.72,234.25,20.06,234.26z M24.57,357.33
				c-0.17-8.64-0.34-0.88-0.5-9.53c0-1.49,0-2.99,0-4.48c0.67-1.82,1.01-3.33,1.01-4.52c0-0.3,0-0.6,0-0.9
				c-0.34-1.78-0.43-3.34-0.25-4.69c0.17-1.35,0.25-2.47,0.25-3.37c0.33-1.8,0.42-3.44,0.25-4.93c-0.17-1.49-0.25-2.83-0.25-4.02
				c0-0.9-0.34-1.63-1.01-2.22c-1,0.03-1.5,0.79-1.5,2.29c-0.34,2.1-0.5,5.55-0.5,10.33c0.17,5.23,0.33,10.46,0.5,15.68
				c0.33,3.57,0.5-7.62,0.5-0.74c0,9.42,0,35.43,0,44.85c0,1.94,0,3.89,0,5.83c0.5,2.94,1,5.88,1.51,8.82c0,5.22,0,10.45,0,15.67
				c0.17,0.58,0.33,1.16,0.5,1.73c1.33-1.34,2-2.46,2-3.36c0-1.79,0-3.58,0-5.37c-0.33-14.26-0.67-45.14-1-59.42
				c0-0.9,0-1.79,0-2.69c-0.33,0.17-0.67,0.34-1,0.52c0,2.09,0,3.14,0,3.14S24.9,356.41,24.57,357.33z M25.08,270.3
				c-0.67,0.29-1.34,0.58-2.01,0.87c0-2.24,0-4.48,0-6.73c-0.17,0-0.33-0.01-0.5-0.01c0,3.59,0,7.18,0,10.77
				c0,0.6,0.67,1.8,2.01,3.61C24.57,275.23,24.74,272.39,25.08,270.3z M26.08,209.49c0,22.21,0,44.43,0,66.64c0.5,0,1,0.01,1.5,0.01
				c0-0.29,0.08-0.59,0.25-0.89c0.17-0.3,0.08-0.59-0.25-0.9c-0.17-3.13-0.33-6.26-0.5-9.39c-0.34-11.33-0.5-28.32-0.5-50.98
				c0-1.49,0-2.98,0-4.47C26.41,209.51,26.25,209.5,26.08,209.49z M30.59,422.51c0.17-0.02,0.33-0.04,0.5-0.06c0-1.48,0-2.97,0-4.45
				c0-2.07,0.17-3.58,0.5-4.51c0-0.59,0.16-1.13,0.5-1.61c0.33-0.48,0.5-1.01,0.5-1.61c-0.5-14.33-1-45.28-1.51-59.65
				c-0.17-8.9-0.33-1.38-0.5-10.29c-0.34-4.14-0.5-10.68-0.5-19.59c0-1.49-1-2.21-3.01-2.15c-0.17,0.6-0.33,1.2-0.5,1.8
				c0.33,13.7,0.67,10.98,1,24.66c0,12.8,0.33,48.3,1.01,73.22C28.59,420.06,29.25,421.48,30.59,422.51z M32.1,258.39
				c0,3.12,0,6.23,0,9.35C32.1,264.62,32.1,261.51,32.1,258.39z M34.11,351.32c0,1.18,0,2.37,0,3.55c-0.17,0.01-0.34,0.02-0.51,0.04
				c-0.33-17.01-0.67-17.63-1-34.67c0,0.74,0,1.48,0,2.22c0.17,21.64,0.33,26.86,0.5,48.49c0.17,9.32,0.33,35.25,0.5,44.56
				c0,1.19,0.67,2,2.01,2.45c0-2.36,0.33-5.95,1-10.75c0,3.99,0,7.98,0,11.97c0.34-0.04,0.67-0.07,1.01-0.11
				c0.33-1.51,0.5-3.89,0.5-7.14c-0.17-4.71-0.33-9.42-0.5-14.13c0.5,5.72,1,11.42,1.51,17.12c0,0.88,0.33,2.18,1,3.87
				c0.33-0.04,0.67-0.07,1-0.11c0-0.44,0-0.88,0-1.32c0-12.07-0.17-37.79-0.5-43.95c0-6.77-0.34-16.91-1-30.43
				c-0.17-13.11-0.33-9.81-0.5-22.93c-0.17-0.73-0.34-1.47-0.5-2.2c-0.5,0.01-1,0.02-1.51,0.04c0.17,17.58,0.34,18.73,0.51,36.29
				c-0.17,0.01-0.34,0.02-0.51,0.03c-0.33-14.31-0.67-12.21-1-26.54c-0.33,0.01-0.67,0.02-1,0.03c0.33,20.7,0.67,24.98,1,45.65
				c-0.17,0.01-0.33,0.03-0.5,0.04c0-4.73-0.34-12.1-1-22.12C34.44,351.29,34.27,351.31,34.11,351.32z M35.61,394
				c0.17-0.01,0.33-0.03,0.5-0.04c0,2.96,0,5.91,0,8.87c-0.17,0.01-0.33,0.03-0.5,0.05C35.61,399.91,35.61,396.95,35.61,394z
				 M44.14,282.92c0.17,0,0.34,0,0.5,0c0-0.44,0-0.88,0-1.32c-0.33-0.59-0.67-1.18-1-1.77c-0.5,0.44-1,0.88-1.51,1.32
				c0,1.03,0,2.06,0,3.09c0.67,0.6,1.17,0.89,1.51,0.89c0.33-0.29,0.67-0.59,1-0.88c0-0.58,0-0.88,0-0.88S44.47,283.21,44.14,282.92
				z M43.64,419.31c0.17,0.57,0.33,1.14,0.5,1.71c0.17-0.02,0.34-0.04,0.5-0.05c0.17-0.46,0.34-0.92,0.51-1.37
				c1-4.51,1.51-6.9,1.51-7.2c-0.17-4.96-0.34-9.93-0.51-14.9c0-17.3-0.34-43.41-1-78.02c0-0.29-0.34-1.02-1.01-2.18
				c-1,0.9-1.51,1.65-1.51,2.24c-0.17,4.12-0.34,8.24-0.5,12.37c0.33,10.29,0.5,9.6,0.5,30.77C43.3,380.26,43.64,410.2,43.64,419.31
				z M42.64,414.56c-0.17-4.25-0.34-8.5-0.5-12.75c0,4.27,0,8.53,0,12.8C42.3,414.6,42.47,414.58,42.64,414.56z M44.14,228.72
				c0-1.03,0-2.05,0-3.08c-0.17-0.01-0.33-0.02-0.5-0.03c0,1.91,0,3.82,0,5.73c0,12.78,0,25.56,0,38.34c0,1.77-0.34,4.4-1,7.93
				c0.17,0.3,0.34,0.59,0.5,0.88c0.33-0.29,0.67-0.58,1-0.87c0.33-1.46,0.5-3.37,0.5-5.72C44.48,257.52,44.31,243.12,44.14,228.72z
				 M111.48,249.25c-0.33,0.55-0.67,1.1-1.01,1.65c0-2.51,0.33-6.28,1.01-11.28c-0.17-0.01-0.33-0.01-0.5-0.02
				c-0.68,3.33-1.01,5.83-1.01,7.51c0,1.68,0.16,2.94,0.5,3.79c-0.34,0.27-0.43,0.69-0.25,1.25c0.17,0.56,0.08,0.98-0.25,1.25
				c-0.34,1.11-0.75,2.7-1.26,4.79c-0.5,2.08-1.09,3.83-1.76,5.21c-1.01,3.07-2.86,5.7-5.54,7.92c-5.36,3.31-10.23,5.12-14.58,5.36
				c-9.05,0.78-17.09,1.01-24.12,0.66c0.33-0.28,1-0.42,2.01-0.42c2.34,0.02,6.19-0.23,11.56-0.77c2.01-0.12,4.02-0.25,6.03-0.37
				c5.02,0.33,10.05-0.91,15.08-3.68c2.01-1.1,3.35-2.07,4.02-2.91c3.02-3.33,4.69-6.51,5.03-9.59c0.33-1.11,1.17-3.48,2.52-7.08
				c-0.17-0.42-0.34-0.85-0.5-1.27c-0.17,0-0.34-0.01-0.51-0.01c-0.5,1.39-1,2.77-1.51,4.16c-0.17,0-0.33-0.01-0.5-0.01
				c0.17-1.26,0.33-2.51,0.5-3.77c-0.33-0.01-0.67-0.02-1-0.03c-0.67,3.91-1.43,7.12-2.26,9.63c-0.84,2.51-2.44,4.87-4.78,7.09
				c1-2.52,2.01-5.04,3.02-7.55c2.02-3.33,3.02-5.96,3.02-7.93c0-6.45-0.34-15.85-1-28.24c-0.51-2.69-1.01-5.38-1.51-8.08
				c-1.51-3.03-3.02-6.06-4.52-9.11c-1-3.72-4.87-6.92-11.56-9.64c-2.01-0.7-5.7-1.51-11.06-2.47c-3.02-0.79-7.87-1.71-14.57-2.79
				c-1-0.08-2.26-0.1-3.77-0.07c-1.5,0.04-3.26-0.18-5.27-0.62c-1.34-0.1-2.18-0.02-2.51,0.24c-0.34,0.27-0.5,0.99-0.5,2.16
				c0.17,4.55,0.33,9.1,0.5,13.64c0.33,2.08,0.5,5.15,0.5,9.25c-0.34-0.02-0.67-0.04-1-0.06c0-1.9,0-3.81,0-5.71
				c-0.34,1.15-0.67,2.45-1.01,3.89c-0.34,1.45-0.5,3.2-0.5,5.25c0,1.47,0.5,3.1,1.5,4.92c0,0.29,0,0.59,0,0.88
				c-0.17,9.65-0.34,19.31-0.5,28.97c0.17,2.79,0.33,5.57,0.5,8.36c0.33,0.01,0.67,0.01,1,0.02c0-4.97,0-9.94,0-14.92
				c0.33,0.59,0.5,1.77,0.5,3.52c0,8.19,0,16.38,0,24.57c0,1.75,1,2.64,3.01,2.65c5.69-0.11,11.39-0.21,17.08-0.32
				c1,0.01,4.18-0.12,9.54-0.37c5.35-0.24,10.22-1.35,14.58-3.29c0.67-0.27,2.01-0.76,4.03-1.44c2.01-0.68,3.69-1.58,5.03-2.69
				c2.01-1.66,3.52-3.88,4.53-6.66c1.33-3.06,2.34-5.76,3.02-8.12c0.67-2.35,1.17-4.23,1.51-5.62c0-0.56,0-1.12,0-1.67
				C111.82,249.25,111.65,249.25,111.48,249.25z M48.16,356.11c0-10.83,0-5.25,0-16.09c-0.17,0.01-0.34,0.02-0.5,0.02
				c0,10.84,0,5.26,0,16.1C47.83,356.13,47.99,356.12,48.16,356.11z M49.17,275.91c0-2.49,0-4.98,0-7.46c-0.34,0-0.67-0.01-1-0.02
				c0,2.49,0,4.98,0,7.47C48.5,275.91,48.83,275.91,49.17,275.91z M48.16,366.21c0,6.15,0,28.9,0,35.04
				c0.17-0.01,0.33-0.03,0.5-0.05c0-6.14,0-28.89,0-35.04C48.5,366.18,48.33,366.2,48.16,366.21z M49.67,160.56
				c5.35-0.33,10.87-0.2,16.58,0.36c12.72,1.25,26.96,4.76,42.73,10.25c-14.09-5.62-27.66-9.2-40.72-10.49
				C61.22,159.99,55.02,159.94,49.67,160.56z M116.51,256.88c-0.17,0-0.33-0.01-0.5-0.01c-0.68,2.22-1.01,3.89-1.01,4.99
				c-1,4.72-3.19,8.45-6.54,11.21c-5.03,5.26-11.91,8.61-20.62,10c-8.04,1.11-17.77,1.38-29.15,0.76c-1.34-0.29-3.19-0.44-5.52-0.45
				c10.04-0.54,17.41-0.8,22.1-0.79c1.34,0,4.1-0.05,8.29-0.18c4.19-0.12,7.79-0.89,10.81-2.29c4.35-1.94,7.87-3.75,10.56-5.41
				c2.68-1.65,4.53-4.01,5.53-7.07c0.33-0.55,0.5-1.39,0.5-2.51c-0.17,0-0.34-0.01-0.5-0.01c-1,0.96-2.01,1.92-3.02,2.89
				c-0.68,0.55-1.34,1.45-2.01,2.7c-0.68,1.25-1.51,2.16-2.51,2.71c-5.03,3.6-10.56,5.83-16.59,6.64
				c-6.71,0.54-11.73,0.79-15.08,0.78c-4.36-0.02-10.55-0.34-18.59-0.98c-1-0.01-2.01-0.01-3.01-0.02c0,1.32,0,2.64,0,3.95
				c0,0.59,0.5,1.17,1.51,1.76c9.7,0.31,20.42,0.03,32.15-0.8c6.03-1.12,10.38-2.1,13.07-2.93c5.7-1.95,10.06-4.44,13.08-7.49
				C113.5,269.07,115.84,263.27,116.51,256.88z M50.17,332.04c-0.17,0.01-0.33,0.01-0.5,0.02c0-4.09,0-8.19,0-12.28
				c0.17,0,0.34-0.01,0.5-0.01C50.17,323.86,50.17,327.95,50.17,332.04z M107.46,289.02c0-0.14,0-0.28,0-0.42c-0.5,0-1.01,0-1.51,0
				c-5.7,3.09-12.75,5.09-21.12,5.99c-3.35,0.3-8.38,0.47-15.07,0.51c-4.19-0.12-8.37-0.24-12.56-0.37
				c-2.35,0.01-4.19,0.18-5.53,0.47c-0.5,0.15-1,0.3-1.5,0.44c0,0.15,0,0.29,0,0.44c0.33,0.29,0.83,0.43,1.5,0.43
				c6.7,0.1,13.39,0.2,20.09,0.29c10.38-0.07,18.43-1.13,24.13-3.13C99.58,293.11,103.44,291.54,107.46,289.02z M76.79,286.9
				c-8.54-0.15-17.08-0.3-25.62-0.45c0,0.15,0,0.29,0,0.44C59.71,286.89,68.25,286.9,76.79,286.9z M58.21,291.24
				c-2.35,0.01-4.69,0.01-7.03,0.02c0,0.15,0,0.29,0,0.44c2.35-0.01,4.69-0.02,7.03-0.02C58.21,291.53,58.21,291.39,58.21,291.24z
				 M129.1,284.86c-1.34,1.1-2.69,2.21-4.03,3.31c0.5-0.69,1.01-1.38,1.51-2.07c7.04-7.72,11.07-16.58,12.08-26.7
				c0-0.41,0-0.82,0-1.24c-0.34-0.01-0.67-0.01-1.01-0.02c0,4.94-1.85,11.21-5.54,18.88c-3.36,5.76-8.39,10.99-15.1,15.74
				c-2.69,1.96-6.29,3.72-10.81,5.29c-4.53,1.58-7.97,2.81-10.31,3.68c0.67,0.13,1.34,0.27,2.01,0.4c4.36-1.6,8.72-3.18,13.08-4.74
				c1.17-0.43,2.35-0.85,3.52-1.28c-5.71,3.94-12.08,6.39-19.11,7.32c-4.36,0.89-11.07,1.41-20.11,1.53
				c-1.68,0.31-4.52,0.49-8.54,0.54c1.67,0.27,4.35,0.37,8.04,0.32c11.72-0.16,21.11-1.42,28.15-3.74
				c5.7-1.46,11.73-4.45,18.11-8.91c1.34-0.84,2.85-2.15,4.53-3.96c1.68-1.8,2.85-3.11,3.53-3.93c1.34-1.1,2.18-2.06,2.52-2.89
				c1.85-3.3,3.69-6.58,5.53-9.86c0.33-0.82,0.84-1.98,1.51-3.47c0.67-1.5,1.17-2.92,1.51-4.29c0.33-1.64,0.67-3.82,1-6.55
				c0.33-2.72,0.51-6,0.51-9.84c0-4.38-0.34-11.22-1.01-20.55c0-5.75-1.35-14.68-4.03-26.91c-0.84-2.52-1.68-5.04-2.52-7.56
				c0.67,3.34,1.33,6.13,2.01,8.35c1.34,6.4,2.18,10.82,2.52,13.3c0.67,5.24,1.34,13.08,2.01,23.5c0.33,5.76,0,12.31-1.01,19.69
				c0,0.55,0.08,1.51,0.25,2.88c0.16,1.37-0.08,2.6-0.76,3.68c-1.34,3.54-3.7,8.86-7.04,15.99
				C131.11,282.11,130.1,283.48,129.1,284.86z M128.09,275.76c-0.34,0-0.5-0.14-0.5-0.42c-0.5,0.41-1.01,0.82-1.51,1.23
				c-5.71,9.9-15.6,16.74-29.68,20.5c-8.05,2.03-16.76,3.12-26.14,3.21c-0.5,0.01-1,0.01-1.5,0.02c0.33,0.14,0.67,0.28,1.01,0.42
				c2.34-0.02,4.69-0.05,7.03-0.07c18.42-0.19,33.01-5.42,43.75-15.38c3.69-3.04,5.54-4.55,5.54-4.55
				C126.08,280.71,126.75,279.05,128.09,275.76z M81.32,314.29c-4.19,0.08-8.38,0.17-12.56,0.26c0,0.14,0,0.29,0,0.43
				c1.84,0.1,3.68,0.21,5.53,0.31C77.63,315.22,79.97,314.89,81.32,314.29z M113,253.88c-0.17,0-0.34-0.01-0.5-0.01
				c-0.33,1.39-0.84,2.98-1.51,4.78c-0.68,1.8-1.34,3.68-2.01,5.62c0.33,0.01,0.67,0.01,1,0.02C111.99,259.86,113,256.39,113,253.88
				z M116.51,253.55c1.68,0.6,2.01-0.51,1.01-3.31c-0.67,0.68-1.34,1.36-2.01,2.04c-0.33,1.24-0.67,2.49-1,3.73
				c0.33,0.01,0.67,0.01,1,0.02C115.51,255.48,115.84,254.65,116.51,253.55z M114.5,296.11c3.52-2.67,7.04-5.31,10.57-7.94
				C122.72,291.22,119.2,293.86,114.5,296.11z M115.51,273.98c0.33,0,0.51,0.15,0.51,0.42c0.66-1.1,1.25-2.21,1.76-3.32
				c0.5-1.1,1.26-2.34,2.26-3.72c-0.17-0.14-0.33-0.28-0.5-0.42c-2.35,3.86-3.52,5.79-3.52,5.79S115.84,273.15,115.51,273.98z"/>
		</g>
		<g>
			<path d="M612.85,148.27c1.1,0.19,2.2,0.39,3.3,0.58c2.93-2.12,4.94-2.17,6.04-0.15c2.2-0.83,4.02-1.33,5.5-1.48
				c0.37-0.04,0.73-0.08,1.1-0.12c1.1,0.2,2.56-0.04,4.39-0.69c1.83-0.65,3.47-1.07,4.94-1.23c1.1-0.12,2-0.06,2.74,0.17
				c0.73,0.23,1.83,0.11,3.29-0.36c1.46-0.47,2.74-0.77,3.84-0.9c0.36-0.34,1.28-0.45,2.74-0.31c0.73-0.08,1.47-0.17,2.2-0.25
				c2.92-0.64,5.12-0.12,6.58,1.59c0.55,0.56,1.1,1.13,1.65,1.69c0.91-1.2,1.83-2.41,2.74-3.62c0.37-0.04,0.73-0.09,1.09-0.13
				c0.37,1.06,0.73,2.12,1.1,3.18c0.55,2.61,1.1,5.23,1.65,7.85c1.46,4.89,2.92,9.79,4.39,14.7c1.1,5.11,2.2,10.24,3.29,15.38
				c0.73,2.79,1.55,6.29,2.47,10.51c0.91,4.22,2.28,9.12,4.11,14.74c0.92,4.72,1.83,9.45,2.74,14.2c2.19,10.11,3.65,17.1,4.38,20.91
				c1.83,7.78,3.65,15.6,5.48,23.46c0.72,4.5,1.55,8.52,2.46,12.05c0.91,3.55,1.73,6.61,2.47,9.19c1.46,5.82-0.29-2.59,1.9,8.49
				c0.91,4.08,1.83,8.17,2.74,12.26c3.29,14.11,4.93,21.73,4.93,22.71c0.36,2.3,0.73,4.62,1.09,6.92c0.36,2.32,0.73,4.63,1.1,6.94
				c0.73,3.32,1.45,5.83,2.19,7.52c0,0.33,0,0.65,0,0.98c1.46,6.5,2.92,13.02,4.38,19.58c2.92,13.43,4.93,23.58,6.02,30.33
				c1.09,4.43,2.37,11.38,3.83,20.87c0.54,2.23,1.09,4.47,1.64,6.71c0,0.5,0,1,0,1.5c-0.18-0.03-0.36-0.05-0.55-0.07
				c-0.18-0.36-0.37-0.72-0.55-1.08c-0.37-0.71-0.73-1.09-1.09-1.14c-0.37-0.05-0.74,0.23-1.09,0.85c-0.74,1.57-2.19,2.36-4.38,2.38
				c-2.19,0.04-3.65,0.17-4.38,0.39c-0.73-0.1-1.46-0.2-2.19-0.3c-0.74,0.88-1.83,1.23-3.29,1.03c-1.46-0.2-2.38-0.32-2.74-0.37
				c-3.65-0.49-7.3-0.98-10.95-1.46c-4.38-0.58-7.67-1.81-9.86-3.69c-0.37-0.36-0.74-0.49-1.1-0.38c-0.37,0.12-0.74,0.15-1.1,0.1
				c-1.28-0.16-2.56-0.32-3.84-0.48c0-1.76,0-3.52,0-5.28c-1.83,1.06-3.65,2.12-5.48,3.17c-0.73-4.07-1.46-8.13-2.19-12.18
				c-0.37-4.17-0.73-8.34-1.1-12.51c-1.28-4.26-2.56-8.5-3.84-12.73c-0.37-2.41-0.73-4.81-1.1-7.22c-0.37-1.61-0.82-2.67-1.37-3.19
				c-0.55-0.52-1.74-0.85-3.56-1c-11.7-0.29-20.48-0.65-26.33-1.08c-10.06-0.74-12.79,0.73-22.86,0.06c-2.2-0.15-3.49-0.07-3.85,0.2
				c-0.37,0.28-0.92,1.3-1.65,3.05c-1.83,8.16-3.66,16.3-5.49,24.4c0,0.6-0.19,0.88-0.55,0.85c-1.47,0.48-1.47,1.38,0,2.7
				c-2.57,1.58-3.84,3.57-3.85,5.96c0,0.45,0,0.9,0,1.35c0,1.8-0.74,3.08-2.2,3.84c-1.1,0.2-2.75,0.8-4.95,1.79
				c-0.36,0.12-0.73,0.23-1.1,0.35c-1.65-0.3-3.3-0.59-4.95-0.89c-0.37-0.03-0.73-0.06-1.1-0.1c-2.94-0.26-5.14-0.15-6.6,0.31
				c-2.57,0.07-4.95-0.57-7.15-1.93c-0.74-0.94-1.38-1.36-1.92-1.26c-0.55,0.1-1.01,0.58-1.37,1.43c-0.19,0.28-0.37,0.56-0.55,0.83
				c-0.74-0.35-1.93-0.74-3.58-1.17c-1.65-0.42-3.21-0.7-4.67-0.81c-1.47-0.11-2.75,0.08-3.85,0.58c-0.74,0.24-1.56,0.25-2.47,0.03
				c-0.92-0.21-1.74-0.64-2.47-1.28c-0.37-0.31-0.83-0.5-1.38-0.54c-0.55-0.04-1.02-0.22-1.37-0.54c-0.74-2.38-0.37-5.54,1.1-9.5
				c1.65-7.15,3.3-14.31,4.95-21.5c1.83-5.71,3.3-10.59,4.4-14.63c0.37-1.15,0.73-2.3,1.1-3.45c1.1-5.21,3.11-13,6.05-23.44
				c0.19-1.75,0.37-3.5,0.55-5.25c0.73-2.03,1.56-4.42,2.47-7.18c0.91-2.76,1.74-5.9,2.47-9.41c1.65-6.13,3.3-12.29,4.95-18.45
				c1.65-6.61,3.3-13.25,4.95-19.9c4.03-16.85,4.3-19.18,8.33-36.29c2.93-13.2,5.31-23.03,7.14-29.41
				c2.93-13.47,5.86-27.02,8.79-40.65c2.56-12.55,4.39-21.18,5.49-25.82c0.73-2.49,1.1-3.73,1.1-3.73S611.75,148.38,612.85,148.27z
				 M569.9,412.2c3.3-12.38,6.6-24.84,9.9-37.36c-0.37-0.02-0.74-0.04-1.1-0.06c-3.3,12.37-6.6,24.67-9.9,36.9
				C569.17,411.85,569.54,412.02,569.9,412.2z M577.05,394.16c-1.1,4.35-2.2,8.7-3.3,13.04c0.37,0.03,0.73,0.05,1.1,0.08
				c1.1-4.19,2.2-8.39,3.3-12.6C577.78,394.51,577.42,394.34,577.05,394.16z M585.84,376.97c-0.18-0.01-0.37-0.02-0.55-0.03
				c-0.74,0.55-2.75,7.41-6.05,20.48c-3.3,13.06-4.77,20-4.4,20.92c0.37-0.71,0.73-1.41,1.1-2.12c2.02-7.36,4.03-14.74,6.05-22.16
				c1.1-3.77,2.38-8.72,3.85-14.86c0.37-0.27,0.46-0.64,0.28-1.1C585.93,377.64,585.84,377.27,585.84,376.97z M581.45,378.93
				c-1.1,3.78-2.2,7.55-3.3,11.32c0.37,0.03,0.73,0.05,1.1,0.07c0.92-3.78,1.83-7.57,2.75-11.36
				C581.81,378.95,581.63,378.94,581.45,378.93z M591.34,378.2c-0.19-0.16-0.37-0.32-0.55-0.48c-0.73,2.19-1.47,4.37-2.2,6.56
				c-2.94,11.11-4.95,19.25-6.05,24.49c-0.55,2.92-1.1,5.84-1.65,8.75c0.18,0.61,0.37,1.21,0.55,1.82c1.1-0.5,1.83-0.88,2.2-1.15
				c0.73-1.12,1.1-2.13,1.1-3.02c0.37-1.9,0.73-3.8,1.1-5.7c1.46-6.41,4.03-16.01,7.69-28.9c0-1.19,0.18-2.07,0.55-2.65
				c-0.37-0.17-0.73-0.34-1.1-0.52c-0.74,1.45-1.38,3.42-1.93,5.91c-0.55,2.5-1.19,4.61-1.92,6.35
				C589.88,386.75,590.6,382.92,591.34,378.2z M587.49,395.79c0.18,0.01,0.37,0.03,0.55,0.04c-1.28,4.96-2.57,9.91-3.85,14.84
				c-0.18-0.01-0.37-0.03-0.55-0.04C584.93,405.7,586.21,400.75,587.49,395.79z M588.05,332.51c0.37,0.01,0.73,0.02,1.1,0.04
				c0.55-2.66,1.1-5.32,1.65-7.98c-0.18-0.01-0.37-0.01-0.55-0.02C589.5,328.1,588.77,330.76,588.05,332.51z M592.44,333.11
				c2.2-10.36,4.4-20.76,6.59-31.2c-0.37-0.01-0.73-0.01-1.1-0.02c-2.2,10.44-4.4,20.83-6.59,31.18
				C591.71,333.08,592.08,333.09,592.44,333.11z M591.89,316.55c0.37,0.01,0.74,0.02,1.1,0.03c0-1.19,0.36-3.27,1.1-6.24
				c-0.37-0.01-0.73-0.01-1.1-0.02C592.99,311.51,592.62,313.59,591.89,316.55z M603.43,378.97c-0.37-0.17-0.73-0.35-1.1-0.52
				c0,0.3-0.37,0.73-1.1,1.28c0.73,0.65,0.91,1.34,0.55,2.06c-0.37,0.73-0.55,1.24-0.55,1.54c-0.73,3.7-1.46,7.39-2.2,11.08
				c-1.65,5.42-3.3,10.81-4.95,16.2c-0.74,1.73-1.1,3.04-1.1,3.93c0,0.9,0.36,1.97,1.1,3.23
				C598.84,398.48,601.96,385.48,603.43,378.97z M595.74,305.44c0.55-2.98,1.1-5.96,1.65-8.95c-0.18-0.15-0.37-0.3-0.55-0.45
				c-0.73,3.13-1.47,6.26-2.2,9.38C595,305.43,595.37,305.43,595.74,305.44z M627.13,192.24c-1.47,1.89-7.96,28.98-19.5,79.46
				c-11.53,50.35-13,60.68-11.9,61.97C611.13,269.08,619.07,231.05,627.13,192.24z M600.68,415.2c0.18,0.17,0.37,0.33,0.55,0.5
				c-1.09,3.21-1.84,5.23-2.2,6.09c0,0.6-0.55,0.85-1.65,0.75c-0.18-0.17-0.37-0.33-0.55-0.5c0-0.29,0.36-0.71,1.1-1.24
				c0.73-1.13,1.47-2.26,2.2-3.39C600.14,416.5,600.32,415.77,600.68,415.2z M614.42,276.73c-0.37-0.6-0.73-1.21-1.1-1.81
				c-0.18,0.91-0.37,1.81-0.55,2.72c-0.92,3.02-1.83,6.04-2.75,9.05c-0.73,2.26-1.46,4.51-2.2,6.77c-0.74,2.41-1.47,6.61-2.2,12.6
				c-1.1,3.29-2.38,8.23-3.84,14.78c-0.55,2.38-1.1,4.76-1.65,7.14c-0.18,1.49-0.37,2.98-0.55,4.48c0,0.9,0.36,1.36,1.1,1.39
				c2.2,0.08,3.48-0.78,3.85-2.57c0.36-2.99,1.28-7.76,2.75-14.35c3.66-16.31,7.33-32.74,10.98-49.3c0.73-3.49-2.3,7.66-1.57,4.16
				c4.39-18.74,8.79-37.66,13.18-56.76c0-1.22,0.36-3.08,1.1-5.58c-0.37,0.02-0.55-0.12-0.55-0.43c-0.92,3.28-1.83,6.54-2.75,9.81
				c-0.18,0.01-0.37,0.02-0.55,0.03c1.46-7.11,2.37-11.92,2.75-14.4c-0.18,0.01-0.37,0.02-0.55,0.03c-0.37,0.33-0.55,0.8-0.55,1.41
				c-0.37,2.17-0.92,4.58-1.65,7.21c-0.74,2.65-1.29,5.5-1.65,8.57c-0.37,2.47-0.74,5.01-1.1,7.61c-0.37,2.61-0.74,5.15-1.1,7.6
				c-0.73,3.54-1.47,7.07-2.2,10.6c-1.65,6.75-3.3,13.49-4.94,20.19c-1.65,7.77,0.47,0.86-1.18,8.58c0,0.31-0.09,0.46-0.28,0.46
				C614.5,276.73,614.42,276.73,614.42,276.73z M600.68,277.21c0.18,0,0.37,0,0.55,0c1.46-3.6-1.01,6.77,0.09,1.8
				c1.1-4.97,1.46-8.06,1.1-9.26C600.95,274.88,602.88,267.61,600.68,277.21z M617.16,288.09c-1.1,4.08-2.19,8.16-3.29,12.22
				c0.36-3.01,1.28-7.54,2.75-13.59c2.75-12.56,1.73-10.53,4.48-23.23c3.66-15.76,7.32-31.65,10.98-47.67c0-1.07,0-2.15,0-3.22
				c-0.37,0.02-0.73,0.04-1.1,0.06c-0.55,2.64-1.1,5.28-1.65,7.91c-2.93,14.86-5.31,26.08-7.14,33.75
				c-1.65,6.6-3.3,13.18-4.94,19.73c-1.47,6.1-0.08,2.71-3.38,19c-2.93,12.67-5.86,25.27-8.79,37.79c0,0.9,0,1.8,0,2.7
				c0.18,0.01,0.36,0.01,0.54,0.02c0.92-3.12,1.83-6.25,2.75-9.39c-0.37,1.5-0.55,3.9-0.55,7.21c3.3-14.34,6.59-28.77,9.89-43.3
				C617.53,288.09,617.35,288.09,617.16,288.09z M604.61,262.48c0.55-1.97,1.1-3.94,1.65-5.91c-0.18-0.15-0.37-0.29-0.55-0.44
				c-0.55,2.12-1.1,4.25-1.65,6.37C604.25,262.48,604.43,262.48,604.61,262.48z M625.95,276.25c-1.1,0.92-1.83,2.29-2.2,4.11
				c-0.37,1.83-0.92,3.2-1.65,4.11c-1.1,1.21-1.65,3.49-1.65,6.83c-0.37,1.21-0.46,2.2-0.27,2.96c0.18,0.76,0.27,1.3,0.27,1.6
				c0,0.61-0.37,1.44-1.1,2.49c-0.74,1.06-1.1,1.88-1.1,2.49c-1.84,5.74-3.84,14.33-6.04,25.73c0.73,0.02,1.19,0.27,1.37,0.72
				c0.18,0.46,0.08,1.14-0.27,2.04c-0.37,1.35-0.73,2.69-1.1,4.04c0.37,0.01,0.73,0.03,1.1,0.04
				C618.81,312.44,623.02,293.33,625.95,276.25z M609.56,256.93c5.49-23.26,10.98-46.77,16.48-70.58
				c-1.1,0.69-4.21,12.27-9.34,34.41C611.57,242.88,609.19,254.82,609.56,256.93z M619.36,339.98c15.38,0.94,23.41-0.24,38.77,0.83
				c-1.47-0.38-5.31-0.97-11.52-1.72c-6.23-0.76-12.45-1.26-18.66-1.53C618.8,337.17,620.82,339.45,619.36,339.98z M616.15,255.85
				c0.37,0.14,0.73,0.28,1.1,0.43c1.1-5.19,2.2-10.4,3.29-15.62c-0.18,0.01-0.37,0.01-0.55,0.02
				C618.89,244.08,617.61,249.14,616.15,255.85z M636.46,255.3c-0.91,3.57-1.83,7.13-2.74,10.68c0-0.92-0.19-1.53-0.55-1.83
				c-0.18,0-0.37,0.01-0.55,0.01c-1.1,4.94-2.19,9.86-3.29,14.78c0.37,0,0.73-0.01,1.1-0.01c0-0.92,0.36-2.61,1.09-5.08
				c0.74-2.62,1.47-5.24,2.2-7.87c-0.18,1.39-0.37,2.77-0.55,4.16c-0.37,2.16-0.74,4.39-1.1,6.7c-0.37,2.31,3.02-10.11,2.66-7.97
				c-1.1,4.15-2.19,8.29-3.29,12.42c-1.1,4.59-2.2,9.17-3.3,13.74c-1.83,8.53-2.93,13.22-3.29,14.13c-0.37,0.6-0.55,1.36-0.55,2.27
				c-0.73,3.64-1.47,7.27-2.2,10.89c-0.73,3.93-1.46,7.85-2.2,11.77c2.01,0.07,4.03,0.15,6.04,0.23c7.14,0.27,6.94-1.62,14.08-1.33
				c4.76,0.35,9.51,0.71,14.26,1.07c2.19,0.1,3.29-0.95,3.29-3.15c0.36-0.29,0.46-0.61,0.28-0.93c-0.19-0.32-0.28-0.64-0.28-0.95
				c-0.73-2.07-1.46-4.13-2.19-6.2c-0.55-3.31-1.1-6.61-1.64-9.91c-0.37-4.07-1.29-9.1-2.74-15.06c-1.47-4.08,0.65,6.04-0.81-3.3
				c-2.19-9.96-4.39-19.86-6.59-29.72c-1.1-5.55-2.19-11.09-3.29-16.61c0-0.61-0.37-1.53-1.1-2.74c-0.74,0.65-1.1,1.12-1.1,1.43
				C637.56,249.72,637.01,252.51,636.46,255.3z M623.29,227.75c-0.18,0.01-0.37,0.02-0.55,0.03c-0.55,2.16-1.1,4.32-1.64,6.47
				c0.36,0.14,0.73,0.27,1.09,0.41C622.19,233.14,622.55,230.84,623.29,227.75z M627.68,197.71c-1.83,8.39-3.66,16.74-5.5,25.06
				c0.37,0.13,0.73,0.27,1.1,0.4c1.83-8.02,3.66-16.08,5.49-24.16c0.36-0.32,0.45-0.56,0.27-0.71c-0.19-0.13-0.27-0.36-0.27-0.67
				C628.41,197.66,628.05,197.68,627.68,197.71z M622.19,278.56c0,0.91,3.76-12.82,3.76-11.91c0.18,0,0.37,0,0.55,0
				c0.37-0.31-3.03,14.03-2.66,13.72c0.91-3.37,1.83-6.74,2.75-10.12c5.12-20.58,8.23-33.98,9.33-39.87c-1.28,2.67-2.56,5.34-3.84,8
				c-0.55,2.48-1.1,4.95-1.64,7.42C627.68,256.79,624.93,267.71,622.19,278.56z M627.6,272.58c-0.18,1.83-0.37,3.67-0.55,5.5
				c0.18,0,0.37,0,0.55,0c0.37-1.83,0.73-3.66,1.1-5.5C628.33,272.58,627.96,272.58,627.6,272.58z M634.82,259.96
				c0.55-2.93,1.1-5.87,1.65-8.82c-0.37,0.01-0.55-0.13-0.55-0.44c-0.74,2.18-1.47,5.12-2.19,8.83
				C634.09,259.67,634.45,259.81,634.82,259.96z M659.78,351.74c0-0.47,0-0.94,0-1.41c-2.2-0.43-5.67-0.79-10.42-1.04
				c-6.59-0.36-11.53-0.46-14.82-0.33c1.1,0.37,2.55,0.6,4.39,0.7c0.73,0.04,1.46,0.08,2.19,0.12c1.1,0.06,2.92,0.16,5.49,0.3
				c2.55,0.14,4.74,0.42,6.58,0.83C654.65,351.29,656.84,351.57,659.78,351.74z M644.7,244.37c0.36-1.56,0.28-3.18-0.28-4.87
				c-0.55-1.67-1.19-2.66-1.92-2.94C643.23,240.25,643.96,242.86,644.7,244.37z M639.47,342.71c0,0.15,0,0.31,0,0.46
				c6.22,0.3,12.44,0.61,18.66,0.93c-1.84-0.72-4.94-1.19-9.33-1.41C644.78,342.5,641.67,342.52,639.47,342.71z M650.73,246.49
				c-1.83-9.27-3.66-18.51-5.49-27.7c-0.18,0.01-0.37,0.02-0.55,0.03c-0.74,1.9-1.1,3.47-1.1,4.7c0,1.24,0.18,2.31,0.55,3.23
				c1.1,3.97,2.55,8.7,4.39,14.23c0.55,1.84,1.1,3.69,1.65,5.54C650.37,246.5,650.55,246.49,650.73,246.49z M646.34,213.14
				c-0.18,0.01-0.36,0.02-0.55,0.03c-0.74,0.67-0.19,4.58,1.65,11.77c1.83,7.2,3.29,11.43,4.39,12.62
				C650.73,233.26,648.9,225.09,646.34,213.14z M645.79,248.52c4.02,21.89,6.66,32.45,15.08,66.01c0.73,4.11,2.19,10.29,4.39,18.59
				c-2.19-14.29-2.65-15.4-8.49-36.68c-1.1-3.75-2.84-10.62-5.22-20.56C649.17,265.95,647.25,256.84,645.79,248.52z M656.77,242.98
				c-0.37-0.29-0.55-0.76-0.55-1.39c-0.37-0.92-0.74-2.08-1.1-3.47c-0.37-1.39-0.55-3.02-0.55-4.89c-0.37-4.35-0.73-8.7-1.1-13.05
				c0-1.24-0.37-3.41-1.1-6.48c0.18-0.01,0.37-0.02,0.55-0.03c0.72,2.14,1.46,5.37,2.19,9.7c2.19,8,3.65,14.67,4.39,19.97
				c1.46,6.68,2.93,13.38,4.39,20.1c4.39,18.13,5.2,19.6,9.58,38.11c2.19,8.78,4.39,17.6,6.58,26.48c0.18,0.64,0.37,1.29,0.55,1.94
				c0.18,0.01,0.37,0.01,0.55,0.02c-11.51-52.58-19.45-86.86-30.97-136.69c-1.1,1.95-1.29,4.14-0.55,6.57
				c0.73,2.44,1.1,4.44,1.1,5.99c0,0.31,0,0.62,0,0.94c-0.55-2.14-1.1-4.29-1.65-6.42c-0.37,0.18-0.73,0.37-1.1,0.55
				c-0.73,3.16-1.1,5.82-1.1,7.99c1.28,5.35,2.56,10.71,3.84,16.09c0,0.63,0.36,1.23,1.1,1.81c0.18,1.24,0.37,2.47,0.55,3.71
				C653.11,235.48,654.57,239.63,656.77,242.98z M666.09,244.97c0-1.26,0-2.52,0-3.78c0.55,1.55,1.1,3.11,1.65,4.66
				c1.28,5.63,2.56,11.27,3.84,16.93c1.45,7.56,4.02,18.89,7.68,34.17c3.84,17.03,4.1,17.39,7.93,34.74
				c0.37,0.98,0.73,1.96,1.1,2.94c0.55,0.51,1.09,1.02,1.64,1.53c0.36-0.14,0.73-0.29,1.1-0.43c-2.74-12.21-5.48-24.34-8.22-36.39
				c-5.48-21.22-6.11-23.06-9.04-39.46c0.37,1.1,0.73,2.2,1.1,3.3c0.55,0.46,1.1,0.92,1.65,1.39c0.18-0.8,0.37-1.6,0.55-2.4
				c-0.55-2.21-1.1-4.41-1.64-6.62c-0.55-3-1.1-5.99-1.65-8.98c-0.18-0.63-0.37-1.25-0.55-1.88c-0.18,0.01-0.36,0.01-0.54,0.02
				c0.73,3.14,1.09,5.5,1.09,7.09c0.36,0.31,0.18,0.94-0.55,1.92c-0.55-0.62-1.1-1.23-1.64-1.84c-0.92-4.71-1.83-9.42-2.74-14.11
				c-0.55-2.34-1.1-4.68-1.64-7.02c0.36-0.02,0.73-0.04,1.1-0.05c1.46,2.77,2.37,5.26,2.74,7.45c0-3.16-0.19-5.92-0.55-8.27
				c-0.37-2.35-0.74-4.46-1.1-6.34c-0.55-3.28-1.1-6.56-1.64-9.84c0.18,0.93,0.37,1.87,0.55,2.8c2.19,7.44,4.57,17.43,7.13,30.01
				c0,1.27,0.18,2.3,0.55,3.07c0.36,0.78,0.73,1.48,1.1,2.11c0.18-0.01,0.37-0.01,0.55-0.02c-6.58-31.55-13.16-62.61-19.74-93.22
				c-0.37,0.2-0.73,0.39-1.09,0.59c1.46,7.04,2.92,14.1,4.39,21.19c-0.18,0.02-0.37,0.03-0.55,0.05c-0.74-2.44-1.37-5.52-1.92-9.23
				c-0.55-3.71-1.37-6.75-2.47-9.14c-0.37,0.04-0.73,0.07-1.1,0.11c0.55,5.25,1.1,10.51,1.65,15.78c-0.18,0.02-0.37,0.03-0.55,0.05
				c-0.55-1.67-1.1-3.34-1.65-5c-0.37,0.03-0.73,0.07-1.1,0.1c-0.18,1.73-0.37,3.46-0.55,5.19c0,0.32,0.08,0.62,0.27,0.91
				c0.18,0.3,0.09,0.46-0.27,0.49c-1.1,1.34-1.47,2.7-1.1,4.07c0.36,1.37,0.55,2.22,0.55,2.52c3.65,16.53,6.58,29.04,8.78,37.39
				c0.36,2.8,0.91,5.36,1.64,7.68c0.73,2.32,1.28,4.27,1.65,5.82c0.37,2.66,0.73,5.32,1.1,7.98
				C665.72,244.99,665.91,244.98,666.09,244.97z M659.22,347.47c0.19-0.15,0.37-0.29,0.55-0.44c-3.11-0.17-6.22-0.33-9.33-0.5
				c0,0.16,0,0.31,0,0.47c1.09,0.37,2.74,0.61,4.93,0.73C657.21,347.83,658.49,347.74,659.22,347.47z M658.96,244.78
				c-1.28-5.59-2.56-11.16-3.84-16.72c0,0.31-0.19,0.48-0.55,0.5c1.46,6.48,2.74,11.9,3.84,16.24
				C658.59,244.79,658.78,244.78,658.96,244.78z M658.41,189.39c-0.37-2-0.73-4.01-1.1-6.01c1.1,0.54,1.64,1.19,1.65,1.98
				C658.96,186.14,658.77,187.48,658.41,189.39z M660.06,158.7c-0.37,0.04-0.73,0.08-1.1,0.11c1.46,4.24,2.74,9.59,3.84,16.09
				c0.37-0.03,0.73-0.07,1.1-0.1c-0.74-2.76-1.37-5.44-1.92-8.06C661.43,164.13,660.79,161.45,660.06,158.7z M666.09,219.94
				c-1.83-3.98-3.2-8.77-4.11-14.36c-0.92-5.58-1.74-9.91-2.47-12.99c1.82,3.93,3.2,8.7,4.11,14.29
				C664.53,212.48,665.35,216.84,666.09,219.94z M661.7,219.25c1.46,7.29,2.92,14.61,4.39,21.95c-0.55-1.39-1.1-2.79-1.64-4.18
				c-1.47-6.85-2.38-11.82-2.74-14.94c-0.37-0.6-0.55-1.54-0.55-2.79C661.34,219.27,661.52,219.26,661.7,219.25z M663.35,192.29
				c-0.37,0.03-0.73,0.06-1.1,0.09c-0.18-2.03-0.37-4.05-0.55-6.08c0.18-0.01,0.36-0.03,0.55-0.04
				C662.25,187.83,662.61,189.84,663.35,192.29z M667.73,213.7c-1.1-3.71-2.19-7.42-3.29-11.12c0.37-0.03,0.73-0.05,1.1-0.08
				C666.27,206.23,667,209.96,667.73,213.7z M680.34,252.06c-5.11-24.51-10.23-48.72-15.35-72.64c-0.74,1.97,1.18,13.53,5.76,35.04
				C675.32,235.98,678.51,248.63,680.34,252.06z M681.44,259.67c0.55,3.17,1.1,6.35,1.65,9.53c0.37-0.01,0.73-0.01,1.1-0.02
				c-0.55-3.18-1.1-6.36-1.65-9.54C682.17,259.65,681.8,259.66,681.44,259.67z M686.64,301.82c-0.73-2.26-1.46-4.52-2.19-6.77
				c-0.18,0.16-0.37,0.32-0.55,0.47c0.55,2.25,1.1,4.51,1.64,6.76C685.91,302.13,686.27,301.97,686.64,301.82z M694.31,327.66
				c0.37,1.79,0.73,3.59,1.1,5.38c0.18,0.01,0.37,0.02,0.55,0.03c0-1.29-0.37-3.25-1.1-5.87
				C694.85,327.52,694.67,327.68,694.31,327.66z M701.98,337.74c0.55,0.03,1.09,0.06,1.64,0.08c-1.46-5.12-2.92-10.22-4.38-15.31
				c-0.37-0.01-0.55,0.15-0.55,0.46c0.36,1.64,0.73,3.68,1.1,6.13c0.36,2.45,0.54,3.68,0.55,3.68
				C700.33,332.78,700.88,334.44,701.98,337.74z M710.74,432.03c0.36-2.23-1.01-10.8-4.1-25.51c-3.11-14.7-5.21-22.33-6.3-23.09
				c-0.37,1.27,0.82,8.5,3.56,21.81C706.63,418.57,708.91,427.54,710.74,432.03z M708.55,361.12c-0.37-1.33-0.73-2.67-1.1-4
				c-0.37-0.02-0.73-0.05-1.09-0.08c0.72,2.01,1.09,3.5,1.09,4.49C707.82,361.4,708.18,361.26,708.55,361.12z M709.1,369.01
				c0.36,1.5,0.73,3,1.09,4.5c0.18,0.02,0.37,0.03,0.55,0.04c-0.18-1.49-0.37-2.98-0.55-4.46
				C709.82,369.07,709.46,369.04,709.1,369.01z M711.83,375.62c-0.74-0.06-1.1,0.08-1.1,0.4c1.64,6.85,3.29,13.74,4.93,20.65
				c0.18,0.02,0.36,0.04,0.55,0.06C714.02,387.29,712.56,380.28,711.83,375.62z M721.68,405.23c-0.74-0.08-1.09,0.05-1.09,0.38
				c0.37,1.53,0.73,3.06,1.09,4.58c0.37,0.04,0.73,0.09,1.1,0.13C722.05,408.25,721.68,406.56,721.68,405.23z"/>
		</g>
		<g>
			<path d="M209.34,375.94c0.28,0.31,0.56,0.63,0.84,0.94c-0.84,0.8-1.69,1.6-2.53,2.4c-1.69,0.08-3.1,0.03-4.22-0.14
				c-0.28,0.01-0.5-0.14-0.64-0.46c-0.14-0.32-0.49-0.58-1.05-0.77c0.28-0.01,0.42-0.13,0.42-0.35c0.42,0.2,0.85,0.4,1.27,0.6
				c0.27-0.01,0.84-0.32,1.68-0.9c0.84-0.58,0.56-1.28-0.84-2.09c1.12-0.05,1.83-0.24,2.11-0.58c0.28-0.34,0.42-0.84,0.42-1.49
				c0-3.71,0.14-6.55,0.42-8.52c0-1.31,0-2.62,0-3.93c0-5.88,0-11.77,0-17.65c0-18.75-0.14-16.28-0.42-25.43
				c0-11.77-0.15-20.49-0.42-26.16c-0.42-14.72-0.84-29.44-1.27-44.18c0.14-3.81,0.28-7.63,0.43-11.44c0-0.87-0.15-1.64-0.43-2.3
				c-0.14,0.32-0.28,0.65-0.42,0.97c-0.56,3.91-0.84,6.85-0.84,8.82c0,4.58,0.28,11.69,0.84,21.3c0,1.96-0.07,4.42-0.21,7.37
				c-0.14,2.94-0.07,6.27,0.21,9.98c0.14,7.97,0.28,15.93,0.42,23.89c0.28,4.8,0.43,12,0.43,21.59c-0.14,5.56-0.28-5.28-0.43,0.28
				c0.14,4.8,0.28,9.59,0.43,14.39c0,6.65,0,13.31,0,19.96c0,2.4,0.14,4.25,0.42,5.54c0.28,1.09-0.07,2.13-1.06,3.15
				c-0.99,1.03-2.18,2.01-3.58,2.94c-0.28-0.1-0.57-0.19-0.85-0.29c-0.14-0.98-0.28-1.96-0.42-2.93c0.85,0.19,1.48,0.21,1.9,0.08
				c0.42-0.13,0.63-0.62,0.63-1.5c0-0.87,0.28-1.98,0.85-3.31c0-0.54,0-1.09,0-1.64c-0.14-0.1-0.28-0.21-0.42-0.31
				c-0.56,1.77-1.12,3.54-1.69,5.31c-0.56,0.02-1.12,0.05-1.69,0.07c0.42-2.64,0.84-5.28,1.26-7.92c0.28,0.1,0.56,0.2,0.85,0.3
				c1.12-0.92,1.69-1.92,1.69-3.02c-0.14-0.76-0.28-1.52-0.42-2.27c-0.28-1.52-0.42-3.7-0.42-6.54c0.14-0.11,0.28-0.23,0.42-0.34
				c0.14,0.43,0.28,0.86,0.42,1.3c0.14-0.22,0.28-0.45,0.42-0.67c0.14-4.26,0.28-8.52,0.42-12.78c0-0.65-0.14-1.19-0.42-1.62
				c-0.28-0.43-0.57-0.86-0.85-1.29c0-0.22-0.14-0.6-0.42-1.14c-0.28-0.54-0.28-0.92,0-1.15c0.28-0.88,0.42-2.08,0.42-3.61
				c0-1.97-0.14-3.87-0.42-5.72c-0.28-1.85-0.42-3.65-0.42-5.4c0.28-2.41,0.35,11.88,0.22,10.02c-0.15-1.85-0.22-3.44-0.22-4.75
				c0-0.44-0.14-0.76-0.42-0.98c-0.14,0-0.28,0-0.42,0c0,9.51,0,2.6,0,12.11c-0.14,0-0.28,0.01-0.42,0.01c0-3.61,0-7.22,0-10.82
				c0-4.37-0.14,8.76-0.42,6.58c0.14-0.88,0.28-1.75,0.42-2.63c-0.14-2.08-0.28-4.15-0.42-6.23c0.14-1.64,0.28-3.28,0.42-4.92
				c0-1.97-0.29-4.91-0.84-8.85c0.14-0.87,0.28-1.75,0.42-2.62c0-0.22,0-0.44,0-0.65c-0.14-4.81-0.28-9.62-0.42-14.43
				c-0.28-1.53-0.42-4.05-0.42-7.55c-0.57-3.94-0.85-6.78-0.85-8.54c0-2.41,0.14-4.27,0.42-5.58c0.14-1.64,0.28-3.28,0.42-4.92
				c0.42,0.44,0.84,0.89,1.26,1.33c0-16.72,0-33.44,0-50.16c-0.28,0.43-0.56,0.85-0.84,1.28c-0.14-0.12-0.28-0.23-0.42-0.34
				c0-2.84,0-5.69,0-8.53c0-0.21-0.15-0.33-0.42-0.34c-0.28,0.43-0.56,0.85-0.84,1.28c-0.56-0.24-1.12-0.48-1.69-0.73
				c-0.14,0.65-0.28,1.3-0.42,1.96c0,3.94,0,7.89,0,11.83c0,8.11,0.14,14.13,0.42,18.09c0,4.82,0,9.64,0,14.45c0,0.66,0,1.31,0,1.97
				c0,7.01,0,14.02,0,21.03c0.14,3.29,0.28,6.57,0.42,9.86c0.28,2.19,0.42,5.48,0.42,9.85c0,6.79,0,13.57,0,20.36
				c0,12.92,0,9.42,0,22.34c-0.28,5.92-0.42,14.79-0.42,26.62c0,0.44,0,0.88,0,1.31c0.56,0.86,0.56,2.06,0,3.61
				c-0.57,1.12-0.42,1.88,0.42,2.28c0.56,0.19,0.85,0.62,0.84,1.27c0,0.66-0.28,1-0.84,1.02c-0.28,0.23-0.85,0.15-1.69-0.25
				c-0.42-0.64-0.84-1.28-1.26-1.92c0-0.44,0-0.88,0-1.32c0-0.66,0.14-1.21,0.42-1.66c-1.42,0.06-2.26,0.21-2.53,0.44
				c-0.7,0.36-1.41,0.72-2.11,1.08c-0.28-0.32-0.56-0.63-0.84-0.95c0,1.1,0,2.2,0,3.29c0,0.22-0.15,0.34-0.42,0.35
				c-0.42-1.74-0.84-3.48-1.27-5.22c0-4.73,0-9.46,0-14.19c0.14-5.17,0.28-10.35,0.42-15.52c-0.14-5.27-0.28-10.55-0.42-15.83
				c0.14-5.94,0.28,4.53,0.42-1.41c-0.14-3.85-0.28-7.69-0.42-11.54c0-8.03,0-16.06,0-24.08c0-8.58,0-17.16,0-25.74
				c0-6.27,0-12.54,0-18.81c0.28-13.08,0.56-26.15,0.84-39.22c-0.14-3.3-0.28-6.61-0.42-9.92c-0.28-1.11-0.14-2.53,0.42-4.27
				c0.27-0.43,1.12-1.15,2.53-2.17c1.27,0.07,2.53,0.13,3.8,0.2c0.56,0.47,1.12,0.94,1.68,1.4c0-0.88,0-1.75,0-2.63
				c-0.28-0.23-0.71-0.37-1.26-0.4c0.56,0.03,1.41-0.09,2.53-0.36c1.12-0.27,2.11-0.38,2.95-0.34c0.85,0.04,1.54,0.19,2.11,0.44
				c0.84-0.83,1.62-0.95,2.32-0.38c0.7,0.58,1.19,0.99,1.48,1.22c0.84-0.17,1.96-0.23,3.38-0.16c1.41,0.07,2.67,0.35,3.8,0.83
				c1.69,0.73,2.67,1,2.96,0.79c1.12-0.16,2.25,0.1,3.38,0.81c-0.42,0.74-0.84,1.48-1.27,2.22c-0.56-0.02-1.13-0.05-1.69-0.07
				c0.14,0.44,0.28,0.88,0.42,1.32c2.25,0.1,3.38-0.61,3.38-2.13c0-0.22,0-0.43,0-0.65c0.14,0.01,0.28,0.01,0.42,0.02
				c0.28,0.45,0.7,0.9,1.26,1.35c0.57,0.46,1.12,1.02,1.69,1.69c0.84-1.05,1.69-2.09,2.53-3.13c1.12,0.48,1.69,1.26,1.69,2.34
				c0.14,2.06,0.28,4.11,0.42,6.17c0.14,2.7,0.28,5.41,0.42,8.11c0,4.97,0,9.93,0,14.9c0,7.67,0,15.33,0,23c0,7.13,0,14.25,0,21.38
				c-0.14,3.45-0.28,6.91-0.42,10.36c0.14,4,0.28,7.99,0.42,11.99c0,9.5-0.15,16.63-0.42,21.38c0,6.69,0,13.39,0,20.08
				c-0.14,4-0.28-8.42-0.42-4.42c-0.28,2.38-0.36,4.44-0.21,6.16c0.14,1.73,0.21,3.23,0.21,4.53c-0.14,5.3-0.28,10.59-0.42,15.89
				c-0.29,2.17-0.36,4.06-0.21,5.68c0.14,1.62,0.21,2.97,0.21,4.04c-0.14,3.89-0.28,7.79-0.42,11.69c0,1.29-0.71,2.73-2.11,4.29
				c-0.28-0.2-0.36-0.69-0.21-1.45c0.14-0.76-0.21-1.23-1.05-1.42c0,1.09-0.14,1.85-0.42,2.29c0,0.87-0.42,1.53-1.27,2
				c-0.7,0.57-1.4,1.14-2.11,1.71c-0.84-0.18-1.69-0.36-2.53-0.55c-1.13-0.28-2.25-0.56-3.38-0.84c-0.42,1.1-0.84,2.21-1.26,3.31
				c-0.7-0.73-1.41-1.46-2.11-2.19c-0.42,0.24-0.84,0.47-1.27,0.71c0-0.54,0-1.09,0-1.63c0.42-1.43,0.84-2.87,1.27-4.3
				c0-0.76,0-1.52,0-2.28c-0.28,0.01-0.56,0.02-0.84,0.03C210.18,372.21,209.76,374.07,209.34,375.94z M192.88,286.14
				c0-1.86,0-3.73,0-5.59c-0.57-6.59-0.84-11.53-0.84-14.82c0-8.34,0.28-20.85,0.84-37.51c-0.14-3.3-0.28-6.59-0.42-9.89
				c0-1.76,0-3.51,0-5.27c-0.14-1.65-0.28-3.3-0.42-4.96c-0.28-0.01-0.56-0.02-0.84-0.04c0.28,4.19,0.42,10.67,0.42,19.45
				c0,6.48,0,12.95,0,19.43C191.61,259.9,192.04,272.97,192.88,286.14z M192.88,374.71c-0.28-0.97-0.56-1.95-0.84-2.92
				C193.44,372.6,193.72,373.58,192.88,374.71z M194.99,357.19c-0.42,1.11-0.85,2.22-1.27,3.34c-0.14-0.21-0.28-0.43-0.42-0.64
				c-0.28,1.44-0.56,2.87-0.84,4.31c0.14-0.01,0.28-0.01,0.42-0.02c0.27-0.23,0.42-0.67,0.42-1.33c0.28,0.1,0.56,0.2,0.84,0.3
				c0,0.99,0,1.97,0,2.96c0.14-0.01,0.28-0.01,0.42-0.02c0.56-1.12,0.84-2.77,0.84-4.97C195.41,359.37,195.27,358.06,194.99,357.19
				c0.14-0.88,0.28-1.76,0.42-2.65c0.14-4.94,0.28-9.87,0.42-14.8c-0.14-12.16-0.28-7.9-0.42-20.07
				c-0.14-10.19-0.28-20.38-0.42-30.57c0-1.09-0.15-1.86-0.42-2.3c-0.29,0-0.42,0.11-0.42,0.33c0,6.36,0,12.72,0,19.08
				c0,2.41,0,4.82,0,7.24c0.14,6.25,0.28-3.92,0.42,2.33c-0.14,4.06-0.28,8.12-0.42,12.17c-0.42,3.3-0.84,6.6-1.26,9.91
				c0,4.61-0.15,8.12-0.42,10.55c0,2.85,0.7,5.69,2.11,8.48c0,0.22,0,0.33,0,0.33C194.57,357.21,194.7,357.2,194.99,357.19z
				 M193.3,320.4c0-16.23,0-16.06,0-32.29c-0.28,0-0.56,0-0.84,0c0,0.77,0,1.54,0,2.3c0.14,12.73,0.28,25.46,0.42,38.18
				c0,3.74,0-10.82,0-10.82S193.02,318.65,193.3,320.4z M193.72,230.87c0,10.31,0,20.62,0,30.92c0.14,0,0.28,0,0.42,0.01
				c0-10.31,0-20.61,0-30.92C194,230.88,193.86,230.88,193.72,230.87z M193.72,265.41c0,2.08,0,4.16,0,6.25c0.14,0,0.28,0,0.42,0
				c0-2.08,0-4.17,0-6.25C194,265.42,193.86,265.42,193.72,265.41z M194.14,344.07c-0.14,0-0.28,0.01-0.42,0.01
				c0-3.07,0-6.14,0-9.21c0.14,0,0.28-0.01,0.42-0.01C194.14,337.92,194.14,341,194.14,344.07z M198.36,187.02
				c0.28-0.86,0.56-1.72,0.84-2.59c-1.41,0.81-2.04,1.54-1.9,2.2c0.14,0.66,1.33,1.6,3.58,2.8
				C200.9,188.35,200.05,187.54,198.36,187.02z M199.21,251.71c-0.28-0.01-0.56-0.01-0.84-0.02c-0.14-11.6-0.28-23.21-0.42-34.81
				c0-0.66,0.14-1.2,0.42-1.63c0.14,0,0.28,0.01,0.42,0.02c0,1.53,0.21,4.22,0.63,8.06c0.42,3.84,0.49,7.29,0.21,10.35
				c0,1.53,0.06,4.15,0.21,7.88C199.98,245.27,199.77,248.66,199.21,251.71z M200.89,280.92c0.28,11.48,0.56,22.95,0.85,34.42
				c0.14,0,0.28,0,0.42,0c0.28-5.24,0.14-12.88-0.42-22.94C201.17,287.15,200.9,283.33,200.89,280.92z M201.32,359.25
				c-0.14,0.01-0.28,0.01-0.42,0.02c0-2.73,0-5.47,0-8.2c0.14-0.01,0.28-0.01,0.42-0.01C201.32,353.79,201.32,356.52,201.32,359.25z
				 M202.58,187.23c0.84,0.04,1.69,0.08,2.53,0.12c0.28,0.01,0.7-0.08,1.27-0.27c0.56-0.19,0.7-0.51,0.42-0.96
				c-0.28-0.23-1.13-0.71-2.53-1.44c-0.14,0.32-0.28,0.64-0.42,0.96c-0.84-0.04-1.41-0.17-1.69-0.41
				C202.16,186.12,202.3,186.78,202.58,187.23z M203,213.45c0-2.29,0-4.59,0-6.88c-0.14,0-0.28-0.01-0.42-0.02c0,2.29,0,4.59,0,6.88
				C202.72,213.44,202.86,213.45,203,213.45z M202.58,336.27c0.14,0,0.28-0.01,0.42-0.01c0,2.4,0,4.8,0,7.21
				c-0.14,0-0.28,0.01-0.42,0.01C202.58,341.08,202.58,338.67,202.58,336.27z M210.18,205.88c-0.28-0.01-0.56-0.02-0.84-0.03
				c0,1.75-0.15,3.86-0.43,6.35c-0.28,2.5-0.28,4.51,0,6.04c0.56,5.69,0.85,9.83,0.85,12.44c-0.14,2.83-0.28,5.65-0.42,8.48
				c0,1.74,0,3.49,0,5.23c0.56-2.6,0.84-6.51,0.84-11.74c-0.14-6.1-0.28-12.2-0.42-18.3C209.76,210.65,209.9,207.83,210.18,205.88z
				 M209.76,301.87c0,15.13,0,13.85,0,28.98c0.14,0,0.28-0.01,0.42-0.01c0-15.13,0-13.85,0-28.98
				C210.04,301.87,209.9,301.87,209.76,301.87z M210.18,337.71c0,5.22,0,10.45,0,15.67c-0.14,0-0.28,0.01-0.42,0.01
				c0.56-6.98,0.84-12.21,0.84-15.7C210.46,337.7,210.32,337.7,210.18,337.71z M211.44,290.12c0,3.37,0,6.74,0,10.12
				c0.14,0,0.28,0,0.42,0C211.72,296.87,211.58,293.49,211.44,290.12z M211.87,328.52c0-13.7,0-10.99,0-24.7c-0.14,0-0.28,0-0.42,0
				c0,13.71,0,11,0,24.71C211.58,328.53,211.72,328.53,211.87,328.52z M211.87,352.34c0-2.18,0-4.35,0-6.53
				c-0.14,0.11-0.28,0.23-0.42,0.34c0,2.07,0,4.13,0,6.2C211.58,352.35,211.72,352.35,211.87,352.34z M211.87,363.11
				c0-1.96,0-3.92,0-5.87c-0.14,0.01-0.28,0.01-0.42,0.01c0,1.96,0,3.92,0,5.87C211.58,363.12,211.72,363.11,211.87,363.11z
				 M211.87,339.94c0-1.41,0-2.83,0-4.24C211.87,337.11,211.87,338.53,211.87,339.94z M218.2,371.66c0.28,0.86,0.42,2.26,0.42,4.22
				c1.12-0.7,1.61-1.26,1.47-1.69C219.95,373.77,219.32,372.92,218.2,371.66z"/>
		</g>
		<g>
			<path d="M331.33,307.26c0.24,0,0.48,0,0.72,0c1.45-3.42,2.9-6.83,4.35-10.24c0.48-1.25,0.96-2.46,1.45-3.63
				c0.49-1.16,0.96-2.29,1.45-3.37c0.97-2.15,2.9-6.82,5.8-14c0.48-1.08,0.96-1.97,1.45-2.69c0.12,0,0.24,0,0.36,0
				c0,0.9-0.12,1.61-0.36,2.15c-1.45,3.59-2.9,7.18-4.35,10.77c-1.93,4.85-3.87,9.7-5.8,14.55c-0.49,1.07-1.15,2.43-1.99,4.04
				c-0.85,1.62,2.7-7.33,1.97-5.17c-0.24,0.54-0.36,1.17-0.36,1.89c-1.09,2.61-2.17,5.21-3.26,7.82c-0.49,0.36-0.72,0.64-0.72,0.81
				c0.24,1.08,0.05,2.29-0.55,3.64c-0.61,1.35-1.03,2.29-1.27,2.83c-1.09,2.25-2.17,4.5-3.26,6.75c-0.49,0.9-0.97,1.72-1.45,2.43
				c-0.48,0.72-0.85,1.35-1.08,1.89c-0.12,0.09-0.24,0.18-0.37,0.27c-0.24,1.26-0.85,3.6-1.81,7.02c2.78-0.01,5.56-0.03,8.34-0.04
				c7.12-0.12,14.25-0.22,21.38-0.32c4.71,0,9.42,0,14.13,0c4.11-0.09,8.21-0.17,12.32-0.25c0.73,0,1.45,0,2.18,0.01
				c1.68,0.37,2.66,1,2.9,1.9c0.48,1.08,0.73,2.07,0.73,2.97c0,0.54-0.13,0.99-0.36,1.35c-0.24,0.36-0.31,0.72-0.18,1.08
				c0.12,0.36,0.18,0.72,0.18,1.08c0,0.54,0.12,1.13,0.36,1.75c0.24,0.64,0.36,1.22,0.36,1.76c0,0.54-0.12,0.9-0.36,1.08
				c-0.49,0.72-0.73,1.97-0.73,3.77c0,1.61-0.24,2.88-0.72,3.77c-0.24,0.18-0.31,0.54-0.18,1.08c0.12,0.54,0.18,0.9,0.18,1.08
				c0.24,1.44,0.24,2.39,0,2.83c-0.24,0.45-1.33,0.85-3.26,1.2c-2.17,0.53-4.23,0.79-6.16,0.79c-0.72,0-2.06-0.19-3.99-0.55
				c-1.94-0.36-3.39-0.55-4.35-0.55c-1.69,0-3.74,0.17-6.16,0.53c-3.5,0.09-7.01,0.18-10.51,0.28c-1.33-0.09-2.66-0.17-3.99-0.26
				c-2.41,0.1-4.83,0.2-7.25,0.3c-3.87,0.19-7.25,0.26-10.14,0.19c-2.9-0.07-5.32-0.1-7.25-0.08c-1.45,0.01-3.26,0.07-5.44,0.18
				c-2.17,0.11-4.71,0.09-7.61-0.06c-1.57,0.11-3.14,0.21-4.71,0.32c-1.21,0.02-2.05-0.07-2.54-0.24c-0.97-0.35-2.05-0.33-3.26,0.04
				c-1.93,0.2-4.47,0.19-7.61-0.03c-3.14-0.23-5.68-0.32-7.61-0.29c-1.69,0.03-3.02-0.04-3.99-0.21c0.73-0.92,0.48-1.37-0.72-1.35
				c-0.97-1.25-1.45-2.51-1.45-3.78c0-1.63,0.72-3.91,2.17-6.82c3.38-8.2,6.76-16.37,10.14-24.53c2.9-5.81,4.95-10.15,6.16-13.04
				c2.54-6.51,0.74-2.18,3.28-8.68c0.24-0.9,0.72-1.89,1.45-2.98c0.72-1.08,1.32-2.07,1.81-2.97c1.21-2.7,2.77-6.76,4.71-12.16
				c1.45-3.33,2.9-6.66,4.35-9.98c1.69-3.96,3.38-7.91,5.07-11.86c1.93-4.67,3.02-7.28,3.26-7.82c3.14-7.18,6.28-14.36,9.42-21.53
				c0.24-0.89,0.6-1.79,1.09-2.69c0.48-0.89,0.96-1.97,1.45-3.23c-0.49-0.18-1.09-0.27-1.81-0.27c-1.45-0.01-3.32-0.01-5.62-0.03
				c-2.3-0.01-4.17-0.2-5.62-0.57c-0.97-0.19-1.81-0.24-2.54-0.16c-0.72,0.09-1.33,0.13-1.81,0.12c-3.87,0.33-6.76,0.48-8.7,0.47
				c-5.8-0.14-11.59-0.29-17.39-0.46c-4.11,0.04-8.21,0.08-12.32,0.11c-1.33-0.11-2.66-0.22-3.98-0.33c-0.24,0-0.43-0.09-0.55-0.28
				c-0.12-0.18-0.31-0.27-0.54-0.28c-0.48-0.46-0.97-0.92-1.45-1.39c0.48,0.01,0.72-0.26,0.72-0.8c-0.12,0-0.24,0-0.36-0.01
				c-0.24-0.46-0.48-0.91-0.73-1.37c-0.24-1.45,0-3.08,0.73-4.88c0.24-0.17,0.24-0.4,0-0.68c-0.24-0.27-0.48-0.59-0.73-0.96
				c0-0.63,0-1.27,0-1.9c0.24-0.18,0.48-0.35,0.73-0.53c0-0.91,0-1.81,0-2.72c-0.24-0.18-0.61-0.28-1.09-0.29
				c0.36-0.36,0.72-0.71,1.09-1.07c-0.36-0.19-0.72-0.38-1.09-0.57c0.96-0.16,1.45-0.97,1.45-2.42c0-0.72-0.12-1.27-0.36-1.64
				c0.84-0.62,1.69-1.23,2.53-1.85c-0.48-0.01-0.96-0.02-1.44-0.03c-0.12-0.18-0.24-0.37-0.37-0.55c0.49-0.17,1.09-0.43,1.81-0.78
				c0.73-0.34,1.57-0.6,2.54-0.76c4.35-0.46,8.69-0.65,13.04-0.58c3.62,0.06,6.4,0.2,8.33,0.4c2.66,0.13,5.32,0.26,7.98,0.38
				c2.41,0.03,6.52-0.1,12.32-0.4c10.62-0.25,18.72-0.39,24.28-0.37c3.86-0.16,7.24-0.2,10.15-0.11c2.9,0.09,5.31,0.14,7.24,0.14
				c2.9,0,5.8,0,8.7-0.01c2.9-0.37,5.08-0.01,6.52,1.06c0,0.45,0,0.9,0,1.35c0.48-0.09,0.97-0.18,1.45-0.28c0,0.63,0,1.26,0,1.88
				c1.21-0.01,2.41-0.01,3.62-0.02c-2.9,7.56-5.8,15.11-8.7,22.66c-3.14,7.37-6.28,14.73-9.42,22.1c-0.97,2.24-1.93,4.49-2.9,6.73
				c-2.9,6.82-5.32,11.94-7.25,15.35c-0.24-0.09-0.49-0.18-0.73-0.27c2.9-7.9,5.8-15.79,8.7-23.69c-0.24,0-0.48,0-0.72,0
				c-5.08,13.29-7.61,19.92-7.61,19.92C347.28,267.4,341.96,280.68,331.33,307.26z M276.99,204.23c2.05-0.14,4.1-0.29,6.15-0.43
				c-2.05-0.04-4.1-0.07-6.15-0.11C276.99,203.87,276.99,204.05,276.99,204.23z M332.79,211.61c1.09-0.08,2.17-0.17,3.26-0.25
				c0-0.18,0-0.36,0-0.54c-1.21,0-2.42-0.01-3.62-0.01c-6.4-0.03-12.81-0.08-19.21-0.13c-8.21,0.01-16.43,0.01-24.64-0.02
				c-2.78,0.23-5.55,0.46-8.33,0.69c-0.73-0.01-1.21,0.08-1.45,0.25c0.24,0.19,0.6,0.28,1.09,0.29c2.41-0.23,4.83-0.47,7.25-0.7
				c8.45,0.12,16.91,0.22,25.36,0.3C319.26,211.53,326.02,211.58,332.79,211.61z M334.6,228.05c-0.73-0.36-1.21-0.36-1.45,0
				c-0.24,0.36-0.36,0.63-0.36,0.81c-1.69,4.3-3.38,8.61-5.07,12.91c-1.93,4.75-3.87,9.51-5.8,14.27
				c-3.14,9.34-7.74,20.65-13.77,33.97c-0.97,2.16-2.9,6.84-5.8,14.05c-1.81,4.24,0.71-2.35-1.1,1.9c-0.73,1.99-1.69,4.24-2.9,6.77
				c-1.21,2.53-2.06,4.43-2.54,5.69c-2.17,5.34-4.35,10.68-6.52,16.03c0,0.54-0.12,0.99-0.36,1.36c-0.25,0.37-0.49,0.73-0.73,1.09
				c0.24,0,0.49,0,0.73-0.01c0.72-1.27,1.45-2.54,2.17-3.82c1.81-4.53,3.62-9.06,5.43-13.58c1.21-2.98,2.42-5.97,3.62-8.95
				c2.29-4.97,0.26,0.9,2.55-4.06c2.9-7.21,4.82-11.89,5.79-14.05c2.17-4.5,3.5-7.38,3.99-8.64c1.2-2.33,3.14-7.19,5.8-14.56
				c0.48-1.26,1.14-2.74,1.99-4.45c0.84-1.7,1.63-3.64,2.36-5.79c1.33-3.86,2.66-7.72,3.98-11.58c2.05-5.02,4.11-10.05,6.16-15.07
				C333.02,231.82,333.63,230.38,334.6,228.05z M334.96,214.58c-2.66-0.19-6.65-0.3-11.96-0.34c-6.28-0.04-10.87,0.02-13.77,0.16
				c-2.17-0.02-4.95,0-8.33,0.05c-3.38,0.06-7.25-0.04-11.59-0.27c1.45,0.2,9.42,0.41,23.91,0.53
				C327.22,214.83,334.47,214.76,334.96,214.58z M323,288.67c0.85-1.62,1.69-3.23,2.54-4.85c0.24,0.36,0.48,0.45,0.73,0.27
				c0.23-0.17,0.36-0.36,0.36-0.54c0.96-2.51,1.81-4.31,2.54-5.39c-0.24,0-0.36-0.09-0.36-0.27c-0.61,1.08-1.21,2.16-1.81,3.24
				c-0.48,0.9-0.97,1.79-1.45,2.69c0-0.36,0.24-1.08,0.73-2.16c1.81-4.67,3.62-9.34,5.44-14.01c1.93-4.31,3.86-9.33,5.79-15.08
				c0.97-2.51,1.93-5.02,2.9-7.54c1.21-3.86,2.42-7.72,3.62-11.58c-0.49,0.36-0.73,0.81-0.73,1.34c-1.33,3.59-2.66,7.18-3.99,10.77
				c-0.24,1.26-0.96,2.61-2.17,4.04c-0.24,0.36-0.73,1.26-1.45,2.69c0,0.36-0.12,1.08-0.36,2.15c-0.24,1.08-0.72,1.88-1.45,2.42
				c-0.72,0.72-1.33,1.88-1.81,3.5c-0.49,1.8-0.97,3.15-1.45,4.04c-0.12,0.36-0.24,0.72-0.36,1.08c-0.24,0-0.48,0-0.72,0
				c0.73-2.7,1.57-5.02,2.53-7c3.86-12.56,7.73-22.88,11.6-30.95c-0.24-0.09-0.48-0.18-0.72-0.27c-0.72,0.72-1.45,1.43-2.17,2.15
				c0.12-0.54,0.24-1.08,0.36-1.62c-1.21-0.18-1.99-0.18-2.35-0.01c-0.37,0.18-0.67,0.62-0.91,1.35
				c-1.21,3.05-4.22,10.76-9.06,23.14c-0.61,1.79-1.21,3.59-1.81,5.38c-1.94,5.38-3.51,9.43-4.71,12.12
				c-1.45,3.77-4.96,12.03-10.51,24.81c-1.81,4.59,0.71-1.65-1.1,2.95c-3.26,7.39-6.52,14.79-9.78,22.2
				c-1.7,3.44-3.02,6.46-3.99,9.09c-0.97,2.62-1.81,4.75-2.54,6.38c-0.24,0.18-0.31,0.32-0.18,0.41c0.12,0.09,0.18,0.23,0.18,0.41
				c0.72-0.19,1.45-0.38,2.17-0.57c0.6-0.28,1.21-0.55,1.81-0.83c0.96,0.36,1.81,0.53,2.54,0.52c0.96-0.18,1.68-0.64,2.17-1.37
				c0,0.27,0,0.54,0,0.81c1.93-3.26,3.26-5.79,3.99-7.59c1.09-2.8,2.17-5.6,3.26-8.39c1.93-4.69,3.5-8.2,4.71-10.55
				c1.09-2.52,2.17-5.04,3.26-7.56c2.17-5.04-1.07,3.27-1.07,3.27S319.13,298.73,323,288.67z M299.43,317.86
				c-1.57,3.88-3.14,7.77-4.71,11.66c0.24,0,0.48,0,0.73-0.01c1.93-5.07,3.5-8.86,4.71-11.39
				C299.92,318.04,299.68,317.95,299.43,317.86z M337.14,207.59c-14.13,0.21-28.26,0.36-42.39,0.44c0,0.09,0,0.18,0,0.27
				c0.6,0.01,1.21,0.02,1.81,0.02c5.31-0.02,10.63-0.05,15.94-0.09c9.91,0.09,17.39,0.04,22.46-0.11c0.73,0,1.45,0.01,2.18,0.01
				C337.14,207.95,337.14,207.77,337.14,207.59z M313.56,306.45c0.12,0,0.24,0,0.36,0c0.72-1.44,1.45-2.88,2.17-4.33
				c0.24,0,0.36,0.09,0.36,0.27c-2.29,5.58-4.59,11.17-6.88,16.77c-0.73,1.08-1.58,2.89-2.54,5.42c-0.24,0-0.48,0-0.73,0
				c0.12-0.63,0.24-1.26,0.36-1.9c-0.12,0-0.24,0-0.36,0c-2.17,4.16-3.86,7.86-5.07,11.12c-0.24,0-0.48,0-0.73,0.01
				c3.14-7.42,6.28-14.82,9.42-22.22c3.99-9.56,3.64-8.27,7.63-17.81c0.24,0,0.48,0,0.73,0
				C315.27,301.61,316.58,298.61,313.56,306.45z M325.54,220.46c-2.78-0.02-5.56-0.03-8.33-0.05c0,0.09,0,0.18,0,0.27
				c4.71,0.21,9.42,0.42,14.13,0.62c0-0.18,0-0.36,0-0.54c0-0.18-0.12-0.27-0.36-0.27c0.96-0.35,1.57-0.53,1.81-0.53
				c0-0.18,0-0.36,0-0.54c-0.72,0-1.45-0.01-2.17-0.01c-6.4-0.03-12.8-0.07-19.2-0.12c-0.73,0.08-1.45,0.17-2.18,0.25
				c-0.97,0.35-1.82,0.52-2.54,0.51c-3.38-0.03-6.76-0.07-10.14-0.1c0,0.18,0,0.36,0,0.54c3.26,0.21,6.52,0.43,9.78,0.64
				c0-0.09,0-0.18,0-0.27c-0.12-0.09-0.24-0.19-0.36-0.28c0-0.09,0-0.18,0-0.27C312.49,220.38,319.02,220.43,325.54,220.46z
				 M319.01,209.64c0.6,0.01,1.21,0.01,1.81,0.01c-0.97-0.37-3.86-0.57-8.69-0.61c-7.97-0.07-12.57,0.13-13.77,0.66
				c3.5,0.04,7.01,0.08,10.51,0.12C312.25,209.76,315.63,209.7,319.01,209.64z M329.89,223.72c-7-0.03-14.01-0.08-21.01-0.13
				c0,0.09,0,0.18,0,0.27c7,0.06,14.01,0.1,21.01,0.13C329.89,223.9,329.89,223.81,329.89,223.72z M356.7,227.01
				c-0.73,0.72-1.09,1.26-1.09,1.62c-1.45,2.87-2.42,5.03-2.9,6.46c-0.61,1.88-1.21,3.77-1.81,5.66c-0.25,1.26-0.85,3.14-1.81,5.65
				c-0.49,1.44-1.15,2.96-1.99,4.58c-0.85,1.62-1.51,3.14-2,4.58c-0.84,2.42-1.69,4.85-2.53,7.27c-1.45,4.49-3.51,9.79-6.16,15.88
				c-3.62,8.71-7.25,17.42-10.87,26.14c-0.72,1.44,3-7.9,2.52-6.38c-0.49,1.53-1.09,3.02-1.81,4.45c-0.84,1.8-1.69,3.6-2.53,5.4
				c-0.73,1.62-1.4,3.24-2,4.86c-0.61,1.63-1.27,3.16-2,4.6c-1.21,2.7-2.42,5.4-3.62,8.11c-0.97,2.71-1.93,5.41-2.9,8.12
				c0,0.27,0,0.54,0,0.81c0.12,0.09,0.24,0.18,0.36,0.27c0.36-0.54,0.72-1.09,1.08-1.63c0,0.18,0,0.36,0,0.54
				c0,0.54,0.12,0.99,0.37,1.35c0.6-0.27,1.21-0.55,1.81-0.82c0.48-0.72,0.72-1.35,0.72-1.9c1.45-3.24,3.38-8.11,5.8-14.59
				c0.96-2.16,1.57-3.78,1.81-4.86c-0.12,0-0.24,0-0.36,0c-1.21,0.9-2.24,2.48-3.08,4.73c-0.85,2.25-1.76,3.83-2.72,4.73
				c0-0.27,0-0.54,0-0.81c0.73-1.26,1.57-3.15,2.54-5.68c2.41-4.86,3.99-7.92,4.71-9.18c0-0.36,0.18-0.63,0.54-0.81
				c0.36-0.17,0.55-0.44,0.55-0.81c0-0.9,0.3-1.97,0.91-3.24c0.6-1.26,1.03-2.16,1.27-2.7c-0.24,0.9-0.48,1.8-0.72,2.7
				c0,0.18,0.12,0.27,0.36,0.27c0.96-1.08,1.57-1.89,1.81-2.43c2.3-5.75,0.26-0.67,2.55-6.42c1.09-2.69,2.17-5.39,3.26-8.08
				c0.96-2.7,2.29-5.74,3.99-9.16c2.17-5.38,4.47-11.75,6.89-19.11c0.24-0.54,0.36-1.44,0.36-2.69c-0.24,0-0.48,0-0.72,0
				c-1.94,6.82-3.75,11.94-5.43,15.35c0-0.9,0.12-1.53,0.36-1.88c0.97-2.78,1.93-5.57,2.9-8.35c0.73-2.15,1.45-4.31,2.18-6.46
				c1.21-3.32,2.41-6.64,3.62-9.96c1.09-3.05,2.17-6.11,3.26-9.16c0-0.35,0.72-1.79,2.17-4.31c0.24,0.09,0.49,0.18,0.73,0.27
				c-0.25,0.36-0.43,0.81-0.55,1.34c-0.12,0.54-0.3,0.99-0.54,1.35c-1.69,1.8-2.66,3.59-2.9,5.39c-0.36,1.71-0.72,3.41-1.09,5.12
				c-0.24,1.44-0.48,2.87-0.72,4.31c0.24,0,0.48,0,0.72,0c0.96-3.23,3.38-9.87,7.25-19.93c-0.24,0-0.48,0-0.72,0
				c-0.48,0.45-0.97,0.9-1.45,1.35c-0.25-0.36-0.36-0.54-0.36-0.54S356.7,227.91,356.7,227.01z M316.11,204.76
				c-2.29,0.16-4.59,0.32-6.88,0.47c0.12,0,0.24,0,0.36,0c2.17,0.02,4.35,0.04,6.52,0.06C316.11,205.11,316.11,204.94,316.11,204.76
				z M310.68,221.71c3.38,0.03,6.76,0.05,10.14,0.07c-2.41-0.2-5.79-0.31-10.14-0.34C310.68,221.53,310.68,221.62,310.68,221.71z
				 M311.04,217.66c7.25,0.06,14.5,0.11,21.74,0.14C325.54,217.77,318.29,217.73,311.04,217.66z M315.38,349.64
				c0.12,0.18,0.24,0.36,0.37,0.54c0.24,0,0.48,0,0.72-0.01c3.86,0.15,9.66,0.2,17.39,0.17c3.26-0.1,6.52-0.21,9.78-0.3
				c7.97-0.2,15.94-0.38,23.92-0.55c1.33,0.09,2.66,0.18,3.99,0.27c0.48-0.18,0.96-0.35,1.45-0.53c0-0.18,0-0.36,0-0.54
				c-4.35-0.01-8.7-0.02-13.05-0.02c-2.17,0.18-4.89,0.27-8.15,0.28c-3.26,0-5.86,0.1-7.79,0.29c-2.17,0.19-5.56,0.29-10.15,0.3
				c-5.8,0.02-10.27-0.03-13.41-0.2C319.48,349.16,317.79,349.26,315.38,349.64z M370.82,348.41c0-0.18,0-0.36,0-0.54
				c-0.25,0-0.67-0.05-1.27-0.13c-0.61-0.09-1.04-0.05-1.27,0.13c-2.54,0-5.07-0.01-7.61-0.01c-9.18,0.36-16.07,0.55-20.66,0.56
				c-8.46,0.03-14.74-0.02-18.84-0.18c-1.57,0.1-3.14,0.2-4.71,0.3c3.62,0.34,9.17,0.48,16.67,0.45c5.43-0.11,10.87-0.22,16.31-0.32
				C358.61,348.3,365.74,348.22,370.82,348.41z M317.19,346.66c6.64-0.04,13.29-0.08,19.93-0.1c-2.66-0.17-5.31-0.34-7.97-0.5
				c-2.18,0.01-5.43-0.15-9.78-0.48c-0.25,0-1.09,0.27-2.54,0.82c0,0.18,0,0.27,0,0.27S316.94,346.66,317.19,346.66z M319.72,346.91
				c-0.97,0.1-1.93,0.2-2.9,0.29c0,0.18,0,0.36,0,0.54c0.72-0.18,1.93-0.29,3.62-0.3c1.93-0.01,3.86,0.11,5.8,0.38
				c1.93,0.26,3.86,0.38,5.8,0.38c0.96,0,2.41-0.19,4.34-0.56c-0.24-0.18-0.61-0.27-1.08-0.27c-0.73,0-1.63,0.05-2.72,0.15
				c-1.09,0.1-2.36,0.06-3.81-0.12C326.61,347.41,323.58,347.25,319.72,346.91z M317.91,357.45c2.29,0.16,4.59,0.32,6.89,0.49
				c0.12-0.18,0.24-0.36,0.36-0.54c-2.42-0.07-4.83-0.15-7.25-0.22C317.91,357.27,317.91,357.36,317.91,357.45z M319,343.68
				c3.14,0.34,7.73,0.49,13.77,0.47c6.28-0.03,15.22-0.41,26.82-1.13C341.7,343.37,328.17,343.62,319,343.68z M369.37,339.25
				c-5.07-0.18-12.68-0.1-22.83,0.27c-5.07,0.1-10.15,0.2-15.22,0.31c-4.59,0.02-7.97-0.05-10.14-0.22
				c-0.36,0.09-0.73,0.18-1.09,0.27c6.28,0.33,10.87,0.49,13.77,0.47c4.83-0.02,12.08-0.22,21.75-0.58
				C361.87,339.42,366.47,339.25,369.37,339.25z M321.9,326.94c-0.25,0.72-0.36,1.62-0.36,2.7c0.12,0,0.24,0,0.36,0
				c0.48-1.44,0.96-2.43,1.45-2.97c0.72-1.98,2.05-4.77,3.99-8.38c0.23-0.17,0.3-0.44,0.18-0.8c-0.12-0.35-0.06-0.72,0.18-1.08
				c-0.24,0.09-0.48,0.18-0.72,0.27c-1.93,3.24-3.26,5.67-3.99,7.29c-0.24,0.09-0.49,0.18-0.73,0.27c-0.48,0.99-0.96,1.98-1.45,2.97
				C321.3,327.21,321.65,327.12,321.9,326.94z M323,282.73c-0.73,1.8-1.45,3.59-2.18,5.39c-0.24-0.09-0.48-0.18-0.72-0.27
				c1.2-3.06,2.05-4.85,2.54-5.39c0,0.18,0.06,0.27,0.18,0.27S323,282.73,323,282.73z M321.19,290.55
				c-0.24-0.09-0.48-0.18-0.72-0.27c0.97-1.97,1.93-3.95,2.9-5.93c0.12,0.09,0.24,0.18,0.36,0.27c-0.24,0.9-0.6,1.8-1.08,2.7
				C322.15,288.22,321.67,289.3,321.19,290.55z M327.7,314.24c0.24,0.09,0.48,0.18,0.72,0.27c2.41-3.42,3.74-6.92,3.99-10.52
				C330.96,307.76,329.38,311.18,327.7,314.24z M327.7,357.92c10.63-0.42,21.26-0.81,31.89-1.17c0-0.09,0-0.18,0-0.27
				c-14.5,0.36-25.13,0.77-31.89,1.17C327.7,357.74,327.7,357.83,327.7,357.92z M326.62,274.38c-0.24-0.09-0.48-0.18-0.72-0.27
				c1.09-2.51,2.17-5.03,3.26-7.54c0.24,0,0.36,0.09,0.36,0.27c-0.24,0.9-0.36,1.35-0.36,1.35S328.31,270.25,326.62,274.38z
				 M326.99,304.58c0.12,0,0.24,0,0.36,0c-0.49,1.8,3.36-7.68,2.88-6.79C330.59,296.44,326.62,305.92,326.99,304.58z M336.77,208.93
				c-3.38-0.01-6.76-0.03-10.15-0.05c1.45,0.37,3.26,0.56,5.43,0.57C334.72,209.46,336.28,209.29,336.77,208.93z M344.73,337.37
				c-3.38,0.01-6.77,0.01-10.15,0.03C337.96,337.39,341.35,337.38,344.73,337.37z M333.15,250.68c-0.72,1.7-1.45,3.4-2.17,5.11
				c-0.12,0-0.24,0-0.36,0c0.73-1.79,1.45-3.58,2.17-5.38c0,0.18,0,0.27,0,0.27C332.79,250.68,332.91,250.68,333.15,250.68z
				 M333.87,247.72c0.48-1.17,0.97-2.33,1.45-3.5c0,0.18,0.12,0.27,0.36,0.27c-0.25,0.54-0.49,1.08-0.73,1.61
				c-0.24,0.54-0.48,1.18-0.72,1.89c0-0.18-0.07-0.27-0.18-0.27C333.93,247.72,333.87,247.72,333.87,247.72z M337.5,246.11
				c0.24,0.09,0.48,0.18,0.72,0.27c0.73-1.97,1.45-3.94,2.18-5.92c-0.12,0-0.24,0-0.36,0C339.06,242.97,338.22,244.86,337.5,246.11z
				 M338.22,235.88c-0.12-0.09-0.24-0.18-0.36-0.27c0.61-1.25,1.21-2.51,1.82-3.76c0.12,0,0.24,0,0.36,0
				C339.43,233.19,338.83,234.53,338.22,235.88z M354.51,337.9c-2.42,0-4.83,0-7.25,0.01C349.68,337.9,352.09,337.9,354.51,337.9z
				 M366.83,337.36c-3.14,0.09-6.28,0.17-9.42,0.26c0,0.09,0,0.18,0,0.27c5.31,0,10.63,0,15.94,0.02
				C371.9,337.55,369.73,337.37,366.83,337.36z M355.61,245.86c0.12,0,0.24,0,0.37,0c2.78-6.64,5.55-13.29,8.33-19.94
				c-0.24,0-0.36-0.08-0.36-0.27c-0.6,0.63-1.21,1.26-1.81,1.89c-1.45,3.5-2.9,7.01-4.35,10.51c-0.24,0.37-0.36,0.54-0.36,0.54
				S356.82,241.01,355.61,245.86z M377.7,336.58c-5.92-0.02-11.84-0.02-17.75-0.03c0,0.09,0,0.18,0,0.27
				c5.92,0,11.84,0.01,17.75,0.03C377.7,336.75,377.7,336.67,377.7,336.58z"/>
		</g>
		<g>
			<path d="M476.48,310.77c0.27,0,0.55,0,0.83,0c1.65-3.97,3.29-7.94,4.94-11.92c0.55-1.46,1.1-2.88,1.65-4.25
				c0.55-1.36,1.1-2.67,1.65-3.93c1.1-2.52,3.3-7.98,6.59-16.42c0.55-1.26,1.1-2.32,1.65-3.17c0.14,0,0.27,0,0.41,0
				c0,1.06-0.14,1.9-0.41,2.53c-1.65,4.22-3.29,8.44-4.94,12.64c-2.2,5.68-4.39,11.35-6.59,17c-0.55,1.25-1.3,2.83-2.26,4.71
				c-0.97,1.88,3.42-8.72,2.59-6.22c-0.27,0.63-0.41,1.36-0.41,2.2c-1.23,3.02-2.47,6.04-3.71,9.06c-0.55,0.41-0.82,0.72-0.82,0.93
				c0.27,1.26,0.07,2.66-0.62,4.22c-0.69,1.56-1.17,2.65-1.44,3.27c-1.24,2.59-2.47,5.18-3.71,7.77c-0.56,1.03-1.1,1.97-1.65,2.78
				c-0.55,0.83-0.97,1.55-1.23,2.17c-0.14,0.1-0.28,0.21-0.42,0.31c-0.27,1.46-0.96,4.15-2.06,8.08c3.16,0.06,6.32,0.12,9.47,0.19
				c8.1,0.06,16.19,0.14,24.29,0.23c5.35,0.13,10.7,0.27,16.05,0.41c4.67,0.02,9.33,0.04,14,0.07c0.82,0.02,1.65,0.05,2.47,0.07
				c1.91,0.49,3.01,1.27,3.29,2.35c0.55,1.3,0.83,2.49,0.83,3.55c0,0.64-0.14,1.18-0.41,1.59c-0.28,0.42-0.35,0.84-0.2,1.28
				c0.13,0.44,0.2,0.86,0.2,1.29c0,0.64,0.14,1.35,0.41,2.1c0.27,0.77,0.41,1.46,0.41,2.11s-0.14,1.07-0.41,1.27
				c-0.55,0.84-0.83,2.32-0.83,4.46c0,1.92-0.27,3.42-0.82,4.46c-0.28,0.2-0.35,0.63-0.21,1.27c0.14,0.65,0.21,1.08,0.21,1.29
				c0.27,1.72,0.26,2.85,0,3.37c-0.28,0.52-1.51,0.95-3.71,1.28c-2.47,0.53-4.8,0.75-6.99,0.66c-0.82-0.03-2.33-0.31-4.53-0.83
				c-2.19-0.52-3.84-0.79-4.94-0.83c-1.92-0.08-4.26,0.04-6.99,0.36c-3.98-0.05-7.96-0.09-11.94-0.13
				c-1.51-0.16-3.02-0.32-4.53-0.47c-2.75,0.01-5.49,0.02-8.24,0.04c-4.39,0.06-8.23,0-11.53-0.2c-3.3-0.21-6.04-0.33-8.24-0.4
				c-1.65-0.05-3.71-0.06-6.18-0.01c-2.47,0.04-5.35-0.09-8.65-0.38c-1.78,0.06-3.57,0.12-5.36,0.18c-1.37-0.03-2.34-0.16-2.88-0.38
				c-1.1-0.43-2.34-0.46-3.71-0.08c-2.2,0.15-5.08,0.04-8.65-0.33c-3.57-0.38-6.46-0.59-8.65-0.62c-1.92-0.04-3.44-0.16-4.53-0.38
				c0.82-1.02,0.55-1.54-0.83-1.56c-1.1-1.45-1.64-2.9-1.64-4.34c0-1.85,0.82-4.4,2.47-7.67c3.84-9.19,7.69-18.4,11.54-27.63
				c3.29-6.55,5.62-11.48,7-14.78c2.88-7.4,0.5-2.02,3.38-9.45c0.27-1.03,0.82-2.17,1.64-3.41c0.83-1.24,1.5-2.37,2.06-3.41
				c1.37-3.1,3.15-7.76,5.36-13.98c1.64-3.83,3.29-7.68,4.94-11.52c1.92-4.58,3.84-9.16,5.77-13.75c2.2-5.42,3.43-8.46,3.71-9.09
				c3.57-8.37,7.14-16.77,10.71-25.21c0.27-1.04,0.68-2.1,1.24-3.16c0.55-1.06,1.09-2.32,1.65-3.8c-0.56-0.19-1.23-0.28-2.06-0.26
				c-1.65,0.04-3.78,0.1-6.38,0.16c-2.61,0.06-4.74-0.09-6.38-0.47c-1.1-0.18-2.06-0.21-2.88-0.09c-0.82,0.12-1.51,0.19-2.06,0.21
				c-4.39,0.51-7.69,0.79-9.89,0.83c-6.59,0.03-13.18,0.05-19.77,0.06c-4.67,0.18-9.34,0.35-14.01,0.52
				c-1.51-0.08-3.02-0.16-4.53-0.25c-0.28,0-0.49-0.1-0.62-0.3c-0.14-0.21-0.35-0.3-0.62-0.3c-0.55-0.51-1.1-1.01-1.65-1.52
				c0.55-0.01,0.83-0.31,0.83-0.93c-0.14,0-0.28,0-0.41,0c-0.28-0.51-0.55-1.02-0.83-1.53c-0.27-1.63,0-3.49,0.83-5.55
				c0.27-0.21,0.27-0.47,0-0.77c-0.28-0.3-0.55-0.65-0.83-1.06c0-0.72,0-1.44,0-2.16c0.28-0.21,0.55-0.42,0.83-0.63
				c0-1.03,0-2.05,0-3.08c-0.28-0.2-0.69-0.3-1.24-0.29c0.41-0.42,0.83-0.83,1.24-1.25c-0.41-0.2-0.82-0.4-1.24-0.6
				c1.1-0.22,1.65-1.15,1.65-2.8c0-0.82-0.14-1.43-0.41-1.84c0.96-0.73,1.92-1.47,2.88-2.21c-0.55,0.01-1.1,0.02-1.65,0.03
				c-0.14-0.2-0.28-0.4-0.41-0.61c0.55-0.21,1.24-0.53,2.06-0.96c0.83-0.42,1.79-0.75,2.88-0.97c4.95-0.71,9.89-1.13,14.83-1.24
				c4.12-0.1,7.28-0.07,9.48,0.08c3.02,0.03,6.04,0.05,9.06,0.07c2.74-0.08,7.42-0.41,14-1.04c12.08-0.8,21.28-1.37,27.59-1.62
				c4.39-0.38,8.23-0.6,11.53-0.64c3.29-0.03,6.03-0.1,8.23-0.2c3.29-0.15,6.59-0.3,9.88-0.46c3.29-0.58,5.77-0.28,7.41,0.91
				c0,0.53,0,1.07,0,1.6c0.55-0.13,1.09-0.27,1.64-0.4c0,0.75,0,1.49,0,2.24c1.37-0.07,2.74-0.13,4.11-0.2
				c-3.29,9.13-6.58,18.22-9.88,27.27c-3.57,8.84-7.13,17.64-10.7,26.39c-1.1,2.67-2.2,5.33-3.29,7.99
				c-3.29,8.09-6.04,14.13-8.23,18.15c-0.28-0.1-0.55-0.21-0.83-0.31c3.29-9.29,6.59-18.63,9.88-28c-0.27,0.01-0.55,0.01-0.82,0.02
				c-5.76,15.76-8.65,23.56-8.65,23.56C494.6,264.12,488.56,279.87,476.48,310.77z M414.7,193.27c2.33-0.25,4.67-0.5,7-0.76
				c-2.33,0.05-4.67,0.1-7,0.15C414.7,192.86,414.7,193.06,414.7,193.27z M478.13,199.34c1.24-0.15,2.47-0.29,3.71-0.44
				c0-0.21,0-0.42,0-0.63c-1.37,0.05-2.75,0.09-4.12,0.14c-7.28,0.25-14.55,0.47-21.83,0.68c-9.33,0.37-18.67,0.71-28.01,1.01
				c-3.16,0.38-6.32,0.75-9.48,1.12c-0.83,0.02-1.37,0.13-1.65,0.34c0.27,0.2,0.68,0.29,1.24,0.28c2.75-0.36,5.49-0.72,8.24-1.09
				c9.61-0.2,19.23-0.44,28.83-0.71C462.76,199.83,470.45,199.6,478.13,199.34z M480.19,218.43c-0.82-0.4-1.38-0.38-1.65,0.04
				c-0.28,0.43-0.41,0.75-0.41,0.95c-1.92,5.07-3.84,10.14-5.76,15.19c-2.2,5.58-4.39,11.15-6.59,16.7
				c-3.57,10.89-8.79,24.05-15.64,39.41c-1.11,2.49-3.29,7.89-6.59,16.15c-2.06,4.86,1.15-3.08-0.91,1.76
				c-0.82,2.27-1.92,4.84-3.29,7.72c-1.38,2.88-2.34,5.04-2.88,6.47c-2.47,6.07-4.94,12.12-7.42,18.17c0,0.62-0.14,1.13-0.41,1.54
				c-0.28,0.41-0.55,0.82-0.83,1.23c0.27,0,0.55,0.01,0.83,0.01c0.83-1.43,1.65-2.86,2.47-4.3c2.06-5.13,4.12-10.26,6.18-15.4
				c1.37-3.39,2.75-6.78,4.12-10.18c2.61-5.66-0.06,1.46,2.55-4.22c3.3-8.27,5.49-13.66,6.59-16.15c2.47-5.18,3.98-8.52,4.53-9.97
				c1.37-2.7,3.57-8.32,6.59-16.88c0.55-1.46,1.3-3.19,2.26-5.17c0.96-1.99,1.85-4.24,2.68-6.76c1.51-4.5,3.02-9.01,4.53-13.52
				c2.33-5.89,4.67-11.79,7-17.71C478.4,222.88,479.09,221.19,480.19,218.43z M480.6,202.71c-3.02-0.11-7.55-0.07-13.59,0.11
				c-7.14,0.21-12.35,0.46-15.65,0.75c-2.47,0.06-5.63,0.2-9.48,0.39c-3.85,0.2-8.24,0.24-13.18,0.14
				c1.65,0.17,10.72,0.1,27.19-0.34C471.81,203.33,480.05,202.94,480.6,202.71z M467.01,289.14c0.96-1.88,1.92-3.76,2.88-5.64
				c0.27,0.42,0.55,0.52,0.83,0.31c0.27-0.21,0.41-0.42,0.41-0.62c1.09-2.93,2.06-5.02,2.88-6.28c-0.28,0-0.41-0.1-0.41-0.31
				c-0.69,1.26-1.37,2.51-2.06,3.77c-0.55,1.05-1.1,2.09-1.65,3.14c0-0.42,0.27-1.25,0.83-2.51c2.06-5.44,4.12-10.89,6.18-16.35
				c2.19-5.04,4.39-10.93,6.58-17.69c1.1-2.95,2.2-5.91,3.29-8.87c1.37-4.54,2.75-9.09,4.12-13.65c-0.56,0.44-0.82,0.97-0.82,1.6
				c-1.51,4.24-3.02,8.48-4.53,12.71c-0.27,1.48-1.1,3.07-2.47,4.77c-0.28,0.43-0.83,1.49-1.65,3.18c0,0.42-0.14,1.26-0.41,2.52
				c-0.28,1.26-0.82,2.21-1.65,2.85c-0.82,0.85-1.51,2.22-2.06,4.11c-0.55,2.1-1.1,3.68-1.65,4.73c-0.13,0.42-0.27,0.84-0.41,1.26
				c-0.28,0-0.55,0.01-0.82,0.01c0.82-3.15,1.78-5.87,2.88-8.19c4.39-14.71,8.78-26.88,13.18-36.46c-0.28-0.1-0.55-0.19-0.82-0.29
				c-0.82,0.86-1.65,1.73-2.47,2.59c0.14-0.64,0.28-1.27,0.41-1.91c-1.38-0.17-2.26-0.14-2.68,0.08c-0.41,0.22-0.76,0.76-1.03,1.61
				c-1.37,3.6-4.8,12.72-10.29,27.23c-0.69,2.1-1.37,4.2-2.06,6.3c-2.2,6.29-3.98,11-5.35,14.15c-1.65,4.39-5.63,14.01-11.95,28.76
				c-2.06,5.29-4.12,10.58-6.17,15.85c-3.71,8.48-2.14,4.14-5.85,12.58c-1.93,3.91-3.44,7.35-4.53,10.33
				c-1.1,2.98-2.06,5.39-2.88,7.24c-0.28,0.2-0.35,0.36-0.21,0.46c0.14,0.11,0.21,0.26,0.21,0.47c0.82-0.2,1.64-0.39,2.47-0.59
				c0.69-0.3,1.37-0.6,2.06-0.9c1.09,0.44,2.06,0.65,2.88,0.67c1.09-0.19,1.92-0.7,2.47-1.51c0,0.31,0,0.62,0,0.93
				c2.19-3.69,3.71-6.56,4.53-8.62c1.24-3.19,2.47-6.39,3.71-9.59c2.19-5.36,3.97-9.39,5.36-12.08c1.24-2.9,2.47-5.79,3.7-8.7
				c2.47-5.8-1.56,4.08-1.56,4.08C460.43,306.63,462.62,300.83,467.01,289.14z M440.57,322.26c-1.79,4.42-3.57,8.84-5.35,13.25
				c0.27,0,0.55,0.01,0.83,0.01c2.19-5.75,3.97-10.06,5.35-12.95C441.12,322.47,440.85,322.37,440.57,322.26z M483.07,194.45
				c-16.05,0.9-32.12,1.7-48.18,2.39c0,0.1,0,0.21,0,0.31c0.69-0.02,1.37-0.03,2.06-0.05c6.04-0.25,12.08-0.52,18.12-0.79
				c11.26-0.33,19.77-0.73,25.53-1.14c0.82-0.03,1.65-0.06,2.47-0.09C483.07,194.87,483.07,194.66,483.07,194.45z M456.64,309.37
				c0.14,0,0.27,0,0.41,0c0.82-1.65,1.65-3.31,2.47-4.96c0.27,0,0.42,0.11,0.42,0.31c-2.61,6.42-5.22,12.83-7.83,19.23
				c-0.82,1.23-1.79,3.29-2.89,6.18c-0.27,0-0.55-0.01-0.82-0.01c0.14-0.72,0.28-1.45,0.41-2.17c-0.14,0-0.27,0-0.41-0.01
				c-2.47,4.73-4.39,8.94-5.77,12.64c-0.27,0-0.55-0.01-0.82-0.01c3.57-8.42,7.14-16.86,10.71-25.33
				c4.53-10.94,3.79-9.13,8.32-20.16c0.27,0,0.55,0,0.82,0C458.23,304.14,460.07,300.37,456.64,309.37z M469.9,209.93
				c-3.16,0.09-6.31,0.17-9.47,0.26c0,0.1,0,0.21,0,0.31c5.35,0.07,10.7,0.13,16.05,0.18c0-0.21,0-0.42,0-0.63
				c0-0.21-0.14-0.31-0.41-0.3c1.09-0.45,1.78-0.68,2.06-0.69c0-0.21,0-0.42,0-0.62c-0.82,0.02-1.64,0.05-2.47,0.07
				c-7.27,0.22-14.55,0.42-21.83,0.6c-0.82,0.13-1.65,0.25-2.47,0.37c-1.1,0.45-2.06,0.67-2.88,0.69
				c-3.85,0.09-7.69,0.18-11.53,0.26c0,0.21,0,0.41,0,0.62c3.71,0.13,7.41,0.25,11.12,0.38c0-0.1,0-0.21,0-0.31
				c-0.14-0.1-0.28-0.2-0.42-0.3c0-0.1,0-0.21,0-0.31C455.07,210.33,462.48,210.14,469.9,209.93z M462.48,197.65
				c0.69-0.02,1.37-0.04,2.06-0.06c-1.1-0.38-4.39-0.49-9.88-0.33c-9.07,0.26-14.29,0.69-15.66,1.35c3.98-0.1,7.96-0.2,11.94-0.31
				C454.8,198.08,458.64,197.87,462.48,197.65z M474.84,213.56c-7.96,0.22-15.92,0.42-23.89,0.61c0,0.1,0,0.21,0,0.31
				c7.96-0.18,15.93-0.38,23.89-0.6C474.84,213.77,474.84,213.66,474.84,213.56z M505.3,216.42c-0.82,0.87-1.23,1.52-1.23,1.94
				c-1.65,3.43-2.75,6-3.29,7.7c-0.69,2.24-1.37,4.47-2.06,6.7c-0.28,1.49-0.97,3.71-2.06,6.69c-0.55,1.7-1.31,3.51-2.26,5.42
				c-0.96,1.91-1.72,3.72-2.27,5.41c-0.96,2.86-1.92,5.71-2.88,8.56c-1.65,5.28-3.98,11.5-7,18.64
				c-4.12,10.19-8.23,20.34-12.35,30.44c-0.82,1.67-1.51,3.39-2.06,5.15c-0.55,1.77,4.04-9.3,3.21-7.64
				c-0.96,2.08-1.92,4.15-2.88,6.23c-0.83,1.87-1.59,3.73-2.27,5.6c-0.69,1.87-1.44,3.62-2.27,5.28c-1.37,3.1-2.75,6.2-4.12,9.29
				c-1.1,3.1-2.2,6.2-3.29,9.29c0,0.31,0,0.62,0,0.93c0.14,0.11,0.27,0.21,0.42,0.32c0.41-0.62,0.82-1.23,1.23-1.85
				c0,0.21,0,0.42,0,0.63c0,0.62,0.14,1.14,0.41,1.56c0.69-0.3,1.37-0.6,2.06-0.9c0.55-0.82,0.82-1.54,0.82-2.17
				c1.65-3.71,3.84-9.28,6.59-16.74c1.09-2.48,1.79-4.35,2.06-5.6c-0.13,0-0.27,0-0.41,0c-1.38,1.02-2.54,2.84-3.5,5.42
				c-0.97,2.59-2,4.4-3.09,5.42c0-0.31,0-0.63,0-0.94c0.83-1.44,1.79-3.61,2.89-6.51c2.74-5.58,4.53-9.11,5.35-10.56
				c0-0.42,0.21-0.73,0.62-0.94c0.41-0.2,0.62-0.51,0.62-0.93c0-1.04,0.34-2.29,1.03-3.75c0.68-1.46-4.1,10.3-3.83,9.67
				c-0.27,1.04,4.72-10.71,4.45-9.67c0,0.21,0.13,0.31,0.41,0.32c1.09-1.24,1.78-2.18,2.06-2.8c2.61-6.66-0.06-0.55,2.55-7.25
				c1.24-3.14,2.47-6.28,3.71-9.43c1.09-3.15,2.6-6.72,4.53-10.73c2.47-6.32,5.08-13.8,7.82-22.49c0.27-0.64,0.41-1.7,0.41-3.17
				c-0.27,0.01-0.55,0.01-0.83,0.02c-2.2,8.04-4.26,14.06-6.17,18.07c0-1.05,0.13-1.78,0.41-2.21c1.1-3.27,2.19-6.54,3.29-9.82
				c0.82-2.54,1.64-5.08,2.47-7.62c1.37-3.92,2.75-7.85,4.12-11.78c1.23-3.62,2.47-7.24,3.7-10.87c0-0.42,0.83-2.13,2.47-5.14
				c0.27,0.1,0.55,0.19,0.82,0.29c-0.28,0.44-0.48,0.97-0.62,1.61c-0.14,0.64-0.35,1.18-0.61,1.6c-1.93,2.17-3.02,4.31-3.29,6.43
				c-0.41,2.02-0.82,4.04-1.24,6.05c-0.28,1.7-0.55,3.39-0.82,5.08c0.28,0,0.55-0.01,0.82-0.02c1.09-3.82,3.83-11.68,8.23-23.68
				c-0.27,0.01-0.55,0.02-0.82,0.03c-0.55,0.55-1.09,1.09-1.65,1.64c-0.28-0.41-0.41-0.62-0.41-0.62S505.3,217.48,505.3,216.42z
				 M459.19,192.13c-2.61,0.29-5.21,0.57-7.82,0.86c0.14,0,0.27-0.01,0.41-0.01c2.47-0.07,4.94-0.15,7.41-0.22
				C459.19,192.54,459.19,192.34,459.19,192.13z M453.01,211.94c3.84-0.09,7.69-0.19,11.53-0.29c-2.75-0.14-6.59-0.14-11.53-0.02
				C453.01,211.73,453.01,211.83,453.01,211.94z M453.42,207.25c8.24-0.21,16.47-0.44,24.71-0.7
				C469.9,206.81,461.66,207.04,453.42,207.25z M458.69,359.22c0.14,0.21,0.28,0.42,0.42,0.63c0.27,0.01,0.55,0.01,0.83,0.02
				c4.38,0.31,10.97,0.57,19.76,0.81c3.71,0,7.41,0,11.12,0c9.06,0.06,18.12,0.14,27.17,0.24c1.51,0.16,3.02,0.32,4.53,0.47
				c0.55-0.19,1.09-0.38,1.65-0.58c0-0.21,0-0.43,0-0.64c-4.94-0.17-9.88-0.34-14.82-0.5c-2.47,0.13-5.55,0.14-9.26,0.03
				c-3.7-0.11-6.65-0.09-8.85,0.05c-2.47,0.14-6.32,0.13-11.53-0.01c-6.59-0.18-11.67-0.4-15.24-0.7
				C463.36,358.81,461.44,358.86,458.69,359.22z M521.69,359.77c0-0.21,0-0.42,0-0.63c-0.28-0.01-0.76-0.08-1.44-0.21
				c-0.69-0.13-1.17-0.09-1.44,0.11c-2.88-0.1-5.76-0.19-8.64-0.29c-10.43,0.09-18.25,0.07-23.47-0.08
				c-9.61-0.27-16.75-0.54-21.41-0.86c-1.78,0.06-3.57,0.12-5.35,0.18c4.12,0.51,10.43,0.87,18.94,1.09
				c6.17,0.06,12.35,0.13,18.52,0.21C507.83,359.19,515.92,359.36,521.69,359.77z M460.76,355.83c7.55,0.17,15.1,0.35,22.65,0.55
				c-3.02-0.29-6.04-0.58-9.06-0.86c-2.47-0.06-6.17-0.36-11.12-0.88c-0.28-0.01-1.24,0.28-2.88,0.87c0,0.21,0,0.31,0,0.31
				C460.34,355.82,460.48,355.83,460.76,355.83z M463.64,356.21c-1.1,0.08-2.2,0.16-3.29,0.24c0,0.21,0,0.41,0,0.62
				c0.82-0.19,2.2-0.26,4.12-0.22c2.2,0.05,4.39,0.26,6.59,0.63c2.19,0.37,4.39,0.58,6.59,0.64c1.09,0.03,2.74-0.14,4.94-0.5
				c-0.27-0.21-0.69-0.33-1.23-0.35c-0.82-0.02-1.86,0.01-3.09,0.08c-1.24,0.08-2.68-0.01-4.32-0.27
				C471.46,357.02,468.03,356.73,463.64,356.21z M461.58,368.32c2.61,0.27,5.22,0.55,7.82,0.83c0.14-0.2,0.28-0.41,0.41-0.61
				c-2.75-0.18-5.49-0.36-8.23-0.54C461.58,368.11,461.58,368.22,461.58,368.32z M462.81,352.45c3.57,0.49,8.79,0.81,15.65,0.98
				c7.14,0.18,17.29,0.02,30.47-0.43C488.62,352.82,473.24,352.68,462.81,352.45z M520.04,348.88c-5.76-0.38-14.4-0.52-25.93-0.4
				c-5.76-0.04-11.53-0.08-17.29-0.1c-5.22-0.12-9.06-0.3-11.53-0.56c-0.41,0.09-0.82,0.19-1.23,0.29
				c7.13,0.56,12.35,0.89,15.64,0.96c5.49,0.13,13.73,0.12,24.7,0C511.53,348.84,516.75,348.78,520.04,348.88z M466.11,333.17
				c-0.28,0.83-0.41,1.86-0.41,3.11c0.14,0,0.27,0,0.41,0.01c0.55-1.65,1.1-2.79,1.65-3.41c0.82-2.27,2.33-5.48,4.53-9.62
				c0.27-0.2,0.34-0.51,0.21-0.93c-0.14-0.41-0.07-0.83,0.21-1.25c-0.27,0.1-0.55,0.2-0.83,0.3c-2.2,3.72-3.7,6.51-4.53,8.37
				c-0.27,0.1-0.55,0.2-0.83,0.3c-0.55,1.14-1.1,2.27-1.65,3.4C465.42,333.47,465.83,333.37,466.11,333.17z M467.01,282.26
				c-0.82,2.09-1.65,4.18-2.47,6.26c-0.27-0.1-0.55-0.21-0.82-0.31c1.37-3.54,2.32-5.63,2.88-6.26c0,0.21,0.06,0.31,0.2,0.31
				C466.94,282.26,467.01,282.26,467.01,282.26z M464.96,291.33c-0.27-0.1-0.55-0.21-0.82-0.31c1.1-2.29,2.2-4.58,3.3-6.88
				c0.13,0.1,0.27,0.21,0.41,0.31c-0.27,1.05-0.69,2.09-1.23,3.13C466.05,288.63,465.5,289.88,464.96,291.33z M472.7,318.58
				c0.28,0.11,0.55,0.21,0.82,0.32c2.74-3.92,4.25-7.98,4.53-12.16C476.41,311.11,474.62,315.06,472.7,318.58z M472.7,369.25
				c12.08-0.07,24.15-0.09,36.23-0.08c0-0.11,0-0.21,0-0.32c-16.46-0.17-28.55-0.11-36.23,0.08
				C472.7,369.04,472.7,369.14,472.7,369.25z M471.13,272.54c-0.27-0.1-0.55-0.21-0.82-0.31c1.23-2.93,2.47-5.87,3.71-8.81
				c0.27,0,0.41,0.1,0.41,0.31c-0.28,1.06-0.41,1.57-0.41,1.57S473.05,267.73,471.13,272.54z M471.54,307.62c0.14,0,0.28,0,0.41,0
				c-0.55,2.09-1.1,3.65-1.65,4.69C470.72,310.74,471.13,309.18,471.54,307.62z M482.66,196.04c-3.84,0.14-7.69,0.27-11.53,0.4
				c1.65,0.37,3.71,0.5,6.17,0.42C480.33,196.75,482.11,196.48,482.66,196.04z M492.05,345.91c-3.84-0.09-7.69-0.18-11.53-0.27
				C484.37,345.73,488.21,345.82,492.05,345.91z M478.54,244.86c-0.82,2-1.65,4-2.47,6c-0.14,0-0.27,0-0.41,0.01
				c0.83-2.1,1.65-4.21,2.47-6.31c0,0.21,0,0.31,0,0.31S478.27,244.86,478.54,244.86z M479.37,241.38c0.55-1.37,1.1-2.74,1.65-4.12
				c0,0.21,0.13,0.31,0.41,0.31c-0.27,0.64-0.55,1.27-0.82,1.9c-0.28,0.63-0.55,1.38-0.82,2.22c0-0.21-0.07-0.32-0.21-0.31
				C479.43,241.38,479.37,241.38,479.37,241.38z M483.48,239.41c0.28,0.1,0.55,0.2,0.83,0.3c0.82-2.32,1.65-4.65,2.47-6.98
				c-0.14,0-0.28,0.01-0.41,0.01C485.27,235.71,484.31,237.94,483.48,239.41z M484.31,227.44c-0.14-0.1-0.28-0.2-0.42-0.3
				c0.69-1.49,1.38-2.97,2.06-4.46c0.14,0,0.27-0.01,0.41-0.01C485.68,224.26,484.99,225.85,484.31,227.44z M503.17,346.82
				c-2.75-0.07-5.49-0.14-8.24-0.21C497.68,346.68,500.42,346.75,503.17,346.82z M517.16,346.57c-3.57,0-7.13,0.01-10.7,0.02
				c0,0.1,0,0.21,0,0.32c6.04,0.16,12.07,0.33,18.11,0.51C522.92,346.95,520.45,346.67,517.16,346.57z M504.07,238.65
				c0.14,0,0.28-0.01,0.42-0.01c3.15-7.9,6.31-15.83,9.46-23.79c-0.27,0.01-0.41-0.08-0.41-0.3c-0.69,0.77-1.37,1.54-2.05,2.3
				c-1.65,4.19-3.29,8.37-4.94,12.54c-0.28,0.44-0.41,0.65-0.41,0.65S505.44,232.92,504.07,238.65z M529.5,345.97
				c-6.72-0.2-13.44-0.39-20.17-0.57c0,0.1,0,0.21,0,0.32c6.72,0.18,13.44,0.37,20.17,0.57C529.5,346.19,529.5,346.08,529.5,345.97z
				"/>
		</g>
	</g>
	<g>
		<path class="st0" d="M125.16,671.12c-3.27,0-5.77-0.19-7.5-0.58c-4.04-0.77-8.56-2.31-13.56-4.62l-3.46-2.6
			c-3.07-2.5-4.62-6.16-4.62-10.97c0-2.5,0.29-5.1,0.87-7.79c1.73-5.39,3.85-10.39,6.35-15.01c5.39-10.39,11.93-20.2,19.62-29.44
			c6.54-8.08,11.54-14.05,15.01-17.89l6.64-6.92l4.33-4.62c3.08-3.27,8.08-7.98,15.01-14.14l10.68-9.24
			c0.58-0.58,4.42-3.56,11.54-8.94l13.56-9.81l7.51-5.19c0.76-0.38,1.34-0.77,1.73-1.16c-0.39-0.57-0.96-1.49-1.73-2.74
			c-0.77-1.25-1.55-2.17-2.31-2.74l-0.58-0.58c-0.77-1.34-1.92-2.83-3.46-4.47c-1.54-1.63-2.79-3.03-3.75-4.18
			c-1.54-2.11-3.08-3.75-4.62-4.91l-1.44-1.16c-1.15-1.15-2.41-2.5-3.75-4.04c-1.35-1.54-2.89-3.08-4.62-4.62l-8.66-8.37l-7.21-7.79
			l-1.73-1.73c-2.5-2.5-5.29-5.96-8.37-10.39c-2.5-4.42-4.13-8.37-4.91-11.83c-0.19-0.77-0.38-1.73-0.58-2.89
			c-0.19-1.16-0.29-2.5-0.29-4.04c0.39-3.85,0.96-7.4,1.73-10.68c0.58-2.5,2.02-5.87,4.33-10.1l4.62-6.64
			c2.5-3.85,5.38-7.31,8.66-10.39c2.5-2.5,5.2-4.91,8.08-7.21c0.19-0.19,0.43-0.43,0.72-0.72c0.29-0.29,0.53-0.53,0.72-0.72
			c3.07-2.69,7.4-5.67,12.98-8.95c2.11-1.15,4.09-2.16,5.92-3.03c1.83-0.87,3.41-1.59,4.76-2.16c1.92-1.15,3.94-1.83,6.06-2.02
			c1.16-0.19,3.36-0.67,6.64-1.44c2.5-0.77,5.48-0.96,8.95-0.58c3.08,0.39,5.38,0.77,6.93,1.16c4.61,0.96,8.46,2.6,11.54,4.9
			c3.65,2.89,5.67,6.74,6.06,11.54v6.93c-0.77,7.31-2.98,14.43-6.64,21.35l-3.46,6.35c-1.73,2.31-2.69,3.56-2.89,3.75
			c-1.34,1.73-2.98,2.21-4.9,1.44h-1.73c-0.96,0-1.83-0.29-2.6-0.86c-0.97-0.96-1.16-1.92-0.58-2.89c0.38-0.77,0.77-1.25,1.16-1.44
			c1.15-1.73,2.69-4.52,4.62-8.37c2.31-5.38,3.84-10.39,4.62-15.01c0.19-1.73,0.29-4.52,0.29-8.37c-0.19-2.69-1.06-5-2.6-6.93
			c-1.73-2.31-3.75-3.46-6.06-3.46c-1.15,0-2.88,0.19-5.19,0.58c-4.04,1.15-9.24,3.17-15.58,6.06l-7.79,4.62
			c-2.7,1.93-4.71,3.46-6.06,4.62l-4.33,3.75c-0.96,0.77-2.12,1.93-3.46,3.46c-1.35,1.54-2.6,2.79-3.75,3.75l-1.15,1.16l-5.77,8.08
			c-3.08,4.23-5.39,8.85-6.93,13.85c-0.57,2.31-0.87,4.52-0.87,6.64c0,3.08,0.58,6.25,1.73,9.52l0.87,1.15
			c0.58,1.15,1.15,2.16,1.73,3.03c0.58,0.87,1.05,1.69,1.44,2.45c0.19,0.58,1.25,1.83,3.17,3.75l2.02,2.88l0.87,0.87
			c3.07,2.7,5.29,4.81,6.63,6.35l4.33,4.33l2.89,2.6l1.73,1.73l7.5,7.21c2.31,2.31,3.85,4.04,4.62,5.2
			c1.35,1.73,2.89,3.27,4.62,4.62c1.92,1.93,3.08,3.18,3.46,3.75l2.31,2.6l3.75,4.62c0.19,0,0.87-0.29,2.02-0.87l25.39-14.72
			l8.66-5.2c0.58-0.19,2.5-1.25,5.77-3.17c1.15-0.58,2.31-0.87,3.46-0.87c2.31,0,3.46,0.87,3.46,2.6c0,1.54-1.15,2.99-3.46,4.33
			c-2.31,1.15-4.47,2.36-6.49,3.61c-2.02,1.25-3.8,2.27-5.34,3.03l-14.14,8.37l-14.43,8.95l4.9,7.79c1.73,2.7,3.56,5.68,5.48,8.95
			c1.54,2.5,2.4,4.14,2.6,4.91c0.58,0.96,1.83,3.66,3.75,8.08c0.38,0.77,0.62,1.44,0.72,2.02c0.09,0.58,0.14,1.06,0.14,1.44
			c0.77,1.73,1.25,3.85,1.44,6.35c0.19,2.5,0.38,4.33,0.58,5.48c0.19,0.58,0.29,1.63,0.29,3.18c0,1.73-0.1,3.08-0.29,4.04
			c-0.39,9.81-2.5,18.76-6.35,26.84c-1.16,2.69-2.99,5.77-5.49,9.23c-1.35,2.31-2.7,4.14-4.04,5.49l-2.88,4.04
			c-0.77,1.15-1.83,2.5-3.18,4.04c-1.35,1.54-2.41,2.79-3.17,3.75c-2.5,2.88-5.39,5.48-8.66,7.79l-0.87,0.87
			c-1.35,1.54-3.03,3.08-5.05,4.62c-2.02,1.54-3.51,2.69-4.47,3.46c-0.58,0.38-2.79,1.83-6.64,4.33l-2.31,1.73
			c-0.58,0.58-0.97,0.87-1.16,0.87c-1.73,0.77-3.37,1.83-4.9,3.18c-4.62,2.69-7.31,4.14-8.08,4.33c-1.15,0.38-2.31,0.96-3.46,1.73
			c-1.16,0.77-2.31,1.34-3.46,1.73c-0.77,0.38-2.45,1.16-5.05,2.31c-2.6,1.15-5.05,1.92-7.36,2.31l-2.31,0.87
			c-1.34,0.58-3.17,1.15-5.48,1.73c-2.31,0.58-4.13,1.05-5.48,1.44l-4.33,0.58l-6.93,0.87c-0.96,0.19-2.5,0.29-4.62,0.29H125.16z
			 M126.31,662.46c3.08-0.58,5.01-0.97,5.78-1.16c1.92-0.39,5.29-1.35,10.1-2.88l5.77-1.73c4.23-1.93,7.5-3.27,9.81-4.04
			c1.35-0.58,3.37-1.64,6.06-3.18l2.6-1.44c1.15-0.58,2.5-1.3,4.04-2.16c1.54-0.87,3.17-1.88,4.91-3.03
			c0.96-0.58,2.31-1.35,4.04-2.31c1.73-0.96,3.08-1.93,4.04-2.89l8.95-6.64l6.64-5.48c3.46-3.08,7.31-7.21,11.54-12.41
			c1.34-1.54,3.17-3.85,5.48-6.93c0.38-0.58,1.83-2.79,4.33-6.64c1.54-2.5,3.17-5.77,4.91-9.81c2.89-7.89,4.04-15.39,3.46-22.51
			c0-4.81-0.58-8.75-1.73-11.83l-0.58-2.31c-0.2-1.15-0.63-2.55-1.3-4.19c-0.68-1.63-1.21-3.03-1.59-4.18
			c-0.2-0.38-0.48-0.87-0.87-1.44c-0.39-0.58-0.58-1.16-0.58-1.73c0-0.38-0.29-0.87-0.87-1.44c-0.77-0.96-1.3-1.83-1.59-2.6
			c-0.29-0.77-0.63-1.44-1.01-2.02c-1.92-3.07-3.46-5.38-4.62-6.93l-2.31,1.15l-5.48,4.04c-4.81,2.89-11.64,7.79-20.49,14.72
			c-6.54,4.81-13.09,10.2-19.62,16.16c-5,4.23-8.66,7.5-10.97,9.81l-7.79,8.37l-4.04,4.33c-3.27,3.65-6.35,7.31-9.23,10.97
			c-5.19,6.15-9.71,12.22-13.56,18.18c-4.42,6.54-7.6,12.02-9.52,16.45c-2.69,5.2-4.42,10.48-5.19,15.87
			c-0.38,2.31-0.48,3.94-0.29,4.91c0,3.65,1.73,6.25,5.19,7.79c2.5,0.96,4.72,1.44,6.64,1.44
			C120.25,663.13,123.23,663.04,126.31,662.46z"/>
		<path class="st0" d="M263.67,602.14c0,0-0.19,0-0.58,0c-2.5-0.19-4.47-0.96-5.92-2.31c-1.44-1.35-2.74-3.27-3.9-5.77
			c-1.54-3.85-2.4-7.7-2.6-11.54c-0.19-1.35-0.29-3.37-0.29-6.06c-0.19-0.96-0.29-2.5-0.29-4.62c0-2.31,0.19-5.77,0.58-10.39
			c0.77-7.69,1.54-13.46,2.31-17.31l0.87-8.37c0.96-6.54,1.92-11.93,2.88-16.16c0.19-2.88,0.68-6.11,1.44-9.67
			c0.77-3.56,1.35-6.11,1.73-7.65l2.02-11.54c2.12-11.16,3.65-18.76,4.62-22.8l1.15-4.91l5.77-20.49l0.58-2.02l2.31-6.93h-1.45
			c-5,0.96-9.23,1.93-12.7,2.89l-6.35,1.44c-5.77,1.54-10,2.89-12.7,4.04l-4.91,1.73c-1.92,0.58-3.56,0.43-4.91-0.43
			c-1.34-0.87-2.02-1.97-2.02-3.32c0-1.92,1.35-3.46,4.04-4.62c4.62-1.92,8.08-3.27,10.39-4.04c2.31-0.77,6.25-1.82,11.83-3.17
			c8.85-2.31,15.87-3.85,21.07-4.62l0.87-0.29c0.58-1.16,0.96-2.21,1.15-3.17c0.19-0.96,0.38-1.73,0.58-2.31
			c0.58-1.73,1.3-3.9,2.16-6.49c0.87-2.6,1.88-5.43,3.03-8.51c1.54-4.62,2.78-7.98,3.75-10.1l2.31-6.06
			c2.12-4.62,4.91-8.95,8.37-12.99c0.58-0.58,1.2-1.1,1.88-1.59c0.67-0.48,1.3-1.01,1.88-1.59c1.15-0.77,2.6-1.15,4.33-1.15
			c2.89,0,5.19,0.68,6.92,2.02c1.34,1.16,2.21,2.79,2.6,4.91c0.39,3.46,0.58,5.97,0.58,7.5c0,3.85-0.48,8.18-1.44,12.99
			c-0.39,3.08-0.77,5.58-1.15,7.5l-3.18,13.27c3.46-0.38,6.06-0.77,7.79-1.15c0.58,0,1.83-0.19,3.75-0.58
			c8.46-1.16,14.91-1.83,19.34-2.02c1.92-0.19,4.71-0.29,8.37-0.29c2.12,0,3.75,0.53,4.91,1.59c1.15,1.06,1.73,2.26,1.73,3.61
			c0,2.31-1.35,3.56-4.04,3.75c-3.46,0.39-8.27,0.77-14.43,1.15l-10.68,1.15l-19.91,2.6l-3.18,10.1c-0.39,0.58-0.77,1.44-1.15,2.6
			c-1.15,3.08-3.08,7.7-5.77,13.85c-3.46,7.12-7.03,13.47-10.68,19.05c-2.12,4.04-4.62,7.89-7.5,11.54
			c-0.77,1.15-1.35,2.5-1.73,4.04c-1.16,6.93-2.12,12.12-2.89,15.58c-0.39,1.35-0.77,3.75-1.15,7.21l-2.02,12.12
			c-2.12,10.58-3.85,20.78-5.19,30.59c-0.39,1.92-0.77,4.81-1.15,8.66l-1.15,10.68c-0.39,3.85-0.58,9.52-0.58,17.03
			c-0.39,0.58-0.39,1.05,0,1.44l0.58,0.58c2.11-1.73,3.84-3.75,5.19-6.06c4.23-6.74,7.69-12.98,10.39-18.76
			c4.04-9.42,7.79-18.95,11.25-28.57c1.54-4.23,3.8-10.77,6.78-19.62c2.98-8.85,5.34-16.35,7.07-22.51
			c0.58-1.54,1.34-2.69,2.31-3.46c0.96-0.77,1.92-1.16,2.89-1.16c1.16,0,2.07,0.53,2.74,1.59c0.67,1.06,0.82,2.45,0.43,4.18
			l-3.46,12.41c-3.08,11.54-4.9,18.09-5.48,19.62c-3.46,9.81-7.79,21.35-12.99,34.63c-1.54,3.08-3.46,7.69-5.77,13.85
			c-2.89,5.38-5.48,9.81-7.79,13.28c-1.54,2.5-3.28,4.71-5.2,6.64c-0.58,0.77-2.02,1.92-4.33,3.46c-0.97,0.58-2.07,0.86-3.32,0.86
			c-1.25,0-2.07,0-2.45,0C264.06,602.33,263.67,602.14,263.67,602.14z M289.93,453.09c1.16-2.21,2.5-4.95,4.04-8.22
			c0.58-1.16,1.16-2.55,1.73-4.18c0.58-1.63,1.16-3.22,1.73-4.76c0.38-1.15,1.25-3.46,2.6-6.92l-4.9,0.87
			c-0.77,1.92-1.25,3.37-1.45,4.33l-4.04,15.01l-2.02,8.08C288.01,456.7,288.78,455.3,289.93,453.09z M303.21,418.89
			c1.92-7.12,3.36-12.89,4.33-17.31c0.96-4.42,1.35-7.98,1.15-10.68c-0.39,0.2-0.77,0.77-1.15,1.73c-0.96,2.69-3.08,8.85-6.35,18.47
			l-2.6,8.66L303.21,418.89z"/>
		<path class="st0" d="M303.78,551.64c-0.77-0.96-1.73-2.4-2.89-4.33l-0.86-1.44c-1.15-3.46-1.73-7.4-1.73-11.83
			c0-5.58,0.58-10.48,1.73-14.72c2.31-9.23,4.81-16.93,7.5-23.09c1.92-4.62,3.46-8.08,4.62-10.39c1.54-2.31,2.79-3.94,3.75-4.91
			c0.96-0.96,1.92-1.44,2.89-1.44c0.58,0,1.44,0.29,2.6,0.87c0.76,0.39,2.6,1.06,5.48,2.02h0.58c1.15-0.96,2.6-1.44,4.33-1.44
			c1.34,0,2.4,0.19,3.17,0.58c0.19,0.19,0.43,0.29,0.72,0.29c0.29,0,0.53,0.1,0.72,0.29c2.11,0.58,3.65,2.02,4.61,4.33
			c1.73,3.46,2.6,7.21,2.6,11.26v5.19v1.73c0.38,0.19,0.72,0.29,1.01,0.29c0.29,0,0.53,0,0.72,0c4.81-0.96,9.33-2.5,13.56-4.62
			c4.23-2.12,7.4-4.81,9.52-8.08c0.76-0.96,1.63-1.44,2.6-1.44c0.77,0,1.39,0.34,1.88,1.01c0.48,0.68,0.72,1.49,0.72,2.45
			c0,2.12-1.25,4.33-3.75,6.64c-2.89,3.08-6.74,5.82-11.54,8.22c-4.81,2.41-10.01,3.8-15.58,4.18c-0.19,0.96-0.68,3.08-1.44,6.35
			c-1.15,5.58-2.89,10.97-5.2,16.16l-3.17,7.21c-1.92,4.43-4.81,8.18-8.66,11.26l-4.33,2.6c-1.35,0.77-2.88,1.16-4.62,1.16
			c-0.96,0-1.73-0.09-2.31-0.29C308.78,556.36,305.71,554.34,303.78,551.64z M318.36,544.71c0.87-0.77,1.49-1.34,1.88-1.73
			c1.92-1.92,4.04-5.19,6.35-9.81c2.31-4.04,4.33-9.62,6.06-16.74c0.77-2.69,1.15-4.71,1.15-6.06c-0.77-0.58-1.59-1.15-2.45-1.73
			c-0.87-0.58-1.69-1.25-2.45-2.02c-1.15-0.96-2.7-2.6-4.62-4.91c-0.38,0.39-0.77,1.06-1.15,2.02l-2.6,7.22
			c-1.92,5.58-3.75,12.31-5.48,20.2c-0.39,2.31-0.58,4.76-0.58,7.36c0,2.6,0,4.38,0,5.34c0,1.35,0.38,2.21,1.15,2.6
			C316.58,546.06,317.49,545.49,318.36,544.71z M335.24,498.25c0-2.5-0.1-4.23-0.29-5.2c-0.39-0.77-0.58-1.54-0.58-2.31l-0.87,1.15
			c-0.58,1.35-0.87,2.89-0.87,4.62c0,1.73,0.48,3.56,1.44,5.48c0,0.19,0.1,0.29,0.29,0.29c0.19,0,0.38,0.1,0.58,0.29
			C335.14,501.82,335.24,500.37,335.24,498.25z"/>
		<path class="st0" d="M378.23,617.15c-2.89-2.12-4.72-4.72-5.48-7.79c-2.12-6.74-3.17-13.38-3.17-19.91
			c0-5.39,0.38-10.39,1.16-15.01c0.38-3.85,1.34-8.95,2.88-15.29c2.12-9.81,4.33-18.08,6.64-24.82c1.92-6.16,4.42-12.51,7.5-19.05
			c0.77-1.73,1.54-3.22,2.31-4.47c0.77-1.25,1.44-2.35,2.02-3.32c0.19-0.38,0.43-0.82,0.72-1.3c0.29-0.48,0.62-1.01,1.01-1.59
			l-1.15-0.58l-16.74-6.35c-3.66-1.34-7.79-3.08-12.41-5.19c-3.65-1.92-6.64-3.85-8.95-5.77c-7.31-5.77-10.68-13.28-10.1-22.51
			c0.19-2.31,0.77-4.81,1.73-7.5c1.92-5,4.33-9.23,7.21-12.7c2.31-2.69,4.81-4.71,7.51-6.06c2.31-1.54,5-2.31,8.08-2.31
			c2.69,0,5.29,0.62,7.79,1.87c2.5,1.25,4.42,2.74,5.77,4.47c2.5,3.27,3.85,6.93,4.04,10.97c0.57,7.7-0.49,15.49-3.18,23.38
			c-0.77,2.5-1.54,4.81-2.31,6.93c-0.77,2.12-1.44,4.04-2.02,5.77c-0.19,0.19-0.29,0.43-0.29,0.72c0,0.29-0.1,0.53-0.29,0.72
			l2.02,1.16l18.18,6.35c2.69,1.16,4.71,1.93,6.06,2.31c2.12,0.39,4.14,2.12,6.06,5.19c0.38,0.77,0.58,1.35,0.58,1.73
			c0,0.77-0.29,1.64-0.87,2.6c-0.58,1.35-1.35,2.7-2.31,4.04c-2.12,3.28-4.33,7.41-6.64,12.41c-1.54,3.66-3.66,9.33-6.35,17.03
			l-3.17,11.25c-1.15,4.62-1.92,8.08-2.31,10.39c-0.19,0.96-1.06,6.54-2.6,16.74c-0.39,2.5-0.57,6.25-0.57,11.25
			c0,1.54,0.09,2.79,0.29,3.75h0.29c0.38-0.39,0.58-0.68,0.58-0.87l2.31-8.66c1.92-7.7,4.9-16.35,8.95-25.97
			c3.85-9.62,6.83-16.83,8.95-21.64c0.38-0.96,0.91-2.12,1.59-3.46c0.67-1.34,1.39-2.88,2.16-4.62c1.54-2.69,2.6-4.71,3.18-6.06
			c1.92-3.65,4.86-8.61,8.8-14.86c3.94-6.25,7.26-11.3,9.96-15.15l1.15-1.44c0.96-1.15,2.02-1.44,3.17-0.87
			c0.19,0,0.87,0.19,2.02,0.58c0.19,0.58,0.53,1.25,1.01,2.02c0.48,0.77,0.82,1.54,1.01,2.31l-0.86,1.44
			c-2.89,4.43-8.66,14.33-17.32,29.72c-1.73,3.08-3.13,5.77-4.18,8.08c-1.06,2.31-1.97,4.23-2.74,5.77l-3.46,8.08l-5.48,13.85
			c-4.04,10-6.93,19.04-8.66,27.12c-1.16,4.42-2.41,10.29-3.75,17.6c-0.58,2.5-1.45,4.91-2.6,7.22c-1.54,2.88-3.75,4.04-6.64,3.46
			C383.04,619.94,380.35,618.88,378.23,617.15z M374.19,474.3c1.54-5,2.5-9.23,2.88-12.7c0.19-1.34,0.29-3.17,0.29-5.49
			c0-2.5-0.1-4.33-0.29-5.48c-0.39-3.27-1.54-5.87-3.46-7.79c-3.27,0.58-5.77,1.73-7.5,3.46l-3.75,4.91
			c-3.84,5.39-5.87,10.87-6.06,16.45c-0.38,6.74,2.02,11.93,7.21,15.58c0.39,0.39,1.92,1.35,4.62,2.88l1.44,0.58
			C371.11,483.44,372.65,479.31,374.19,474.3z"/>
		<path class="st0" d="M424.98,554.24c-2.5-4.23-3.85-8.66-4.04-13.28c0-3.65,0.38-6.73,1.15-9.23c0.19-0.77,0.39-1.73,0.58-2.89
			c0.19-1.15,0.58-2.5,1.16-4.04c0.39-1.34,0.86-3.07,1.44-5.19c0.58-2.11,1.15-3.85,1.73-5.19c0.77-2.69,1.54-5.19,2.31-7.5
			c0.77-2.31,1.44-4.33,2.02-6.06c1.15-4.23,3.07-8.95,5.77-14.14l2.02-3.75c1.35-2.69,4.04-4.04,8.08-4.04
			c3.08,0,5.19,0.87,6.35,2.6c0.38,0.77,0.58,1.92,0.58,3.46c0,1.93-0.58,4.43-1.73,7.5c-1.16,3.08-1.92,5.29-2.31,6.64
			c-0.58,1.35-1.06,2.6-1.44,3.75c-0.39,1.15-0.77,2.12-1.15,2.89c-0.96,2.7-1.92,5.77-2.88,9.23l-1.73,6.06l-1.73,7.21
			c-0.58,1.73-1.55,5.29-2.89,10.68c-0.58,2.5-0.87,5.29-0.87,8.37c0,1.93,0.1,3.37,0.29,4.33c0,1.54,0.38,2.79,1.16,3.75
			c0.76,0.39,1.92,0.39,3.46,0c2.88-1.34,5.38-2.79,7.5-4.33c3.46-2.5,7.89-7.02,13.28-13.56c3.07-3.65,7.84-10.82,14.28-21.5
			c6.44-10.67,10.53-17.65,12.27-20.92c0.77-2.31,2.31-3.46,4.62-3.46c1.34,0,2.5,0.48,3.46,1.44c0.96,0.97,1.15,2.21,0.58,3.75
			c-0.58,2.12-3.85,8.22-9.81,18.32c-5.97,10.1-10.2,16.88-12.7,20.35l-6.93,8.66c-5.19,6.92-10.87,12.22-17.02,15.87
			c-4.24,2.12-7.89,3.17-10.97,3.17c-1.35,0-2.31-0.09-2.89-0.29C432.01,562.32,427.68,559.43,424.98,554.24z M451.53,460.45
			c-1.54-1.15-2.31-2.69-2.31-4.62c0.19-0.58,0.29-1.44,0.29-2.6c0.58-2.5,1.83-3.84,3.75-4.04c1.92-0.19,3.8,0.05,5.62,0.72
			c1.83,0.68,3.03,1.49,3.61,2.45c0.38,0.77,0.58,1.83,0.58,3.17c0,1.73-0.39,3.32-1.16,4.76c-0.77,1.44-2.02,2.16-3.75,2.16
			C455.47,462.09,453.27,461.41,451.53,460.45z"/>
		<path class="st0" d="M510.4,563.47c0,0-1.35,0-4.04,0c-5,0-10.29-1.54-15.87-4.62c-4.04-2.31-6.93-5.67-8.66-10.1
			c-1.54-3.46-2.4-6.92-2.6-10.39c-0.19-1.34-0.29-3.27-0.29-5.77c0-2.69,0.1-4.62,0.29-5.77c0.58-5.58,1.54-10.39,2.88-14.43
			c1.15-3.85,2.98-8.66,5.49-14.43c1.73-3.85,3.75-7.6,6.06-11.25c0.38-0.77,2.31-3.85,5.77-9.24l2.6-3.17l5.77-6.35l5.19-4.04
			c2.5-2.11,6.15-3.85,10.96-5.19c0.77-0.38,1.83-0.58,3.17-0.58c1.54,0,2.69,0.19,3.47,0.58l3.75,1.44
			c0.96,0.39,1.63,0.77,2.02,1.15c2.12,1.92,3.07,4.23,2.89,6.93c-0.77,4.23-1.73,7.7-2.89,10.39c-2.12,4.81-5.1,9.62-8.95,14.43
			c-1.35,1.93-2.79,3.56-4.33,4.91c-5.39,5-9.62,8.56-12.7,10.68c-1.92,1.15-4.81,2.7-8.66,4.62l-1.73,0.87l-0.58,0.58
			c-1.73,4.62-2.89,9.43-3.46,14.43l-0.29,7.5c-0.2,4.04,0.48,8.47,2.02,13.27c0.19,0.39,0.38,0.82,0.58,1.3
			c0.19,0.48,0.38,1.01,0.58,1.59c1.34,1.93,2.98,2.79,4.9,2.6c2.31,0,4.42-0.29,6.35-0.87c6.35-1.34,12.99-5.19,19.91-11.54
			c3.85-3.46,7.79-7.98,11.83-13.56c2.31-3.08,5.38-7.89,9.23-14.43c2.12-3.65,5.2-10.29,9.24-19.91c0.38-1.15,1.1-2.11,2.16-2.89
			c1.05-0.77,2.16-1.15,3.32-1.15c1.15,0,2.02,0.48,2.6,1.44c0.57,0.97,0.57,2.31,0,4.04c-1.73,5.2-4.57,11.69-8.51,19.48
			c-3.95,7.79-7.84,14.38-11.68,19.77c-0.97,1.35-2.6,3.17-4.91,5.48c-4.81,5.39-9.43,9.72-13.85,12.99
			c-5.39,3.85-10.01,6.45-13.85,7.79C512.13,563,510.4,563.47,510.4,563.47z M517.04,491.04c4.62-5,8.27-11.25,10.97-18.76
			c-2.12,0.96-3.66,2.12-4.62,3.46c-0.58,0.77-1.21,1.4-1.88,1.87c-0.68,0.48-1.3,1.11-1.88,1.88l-2.6,2.89
			c-2.7,3.85-4.62,6.74-5.77,8.66l-3.46,5.19c-0.2,0.39-1.06,2.02-2.6,4.91C507.71,500.37,511.65,497.01,517.04,491.04z"/>
		<path class="st0" d="M546.76,639.66c-2.31,0-5.58-0.39-9.81-1.15c-4.04-0.77-7.69-2.41-10.96-4.91c-2.69-2.12-4.62-4.72-5.77-7.79
			c-0.96-2.31-1.63-5.87-2.02-10.68c0-7.12,1.25-14.43,3.75-21.93c1.93-5.96,5.39-13.37,10.39-22.22
			c5.39-9.23,12.41-19.14,21.07-29.73c1.35-1.73,2.98-3.75,4.91-6.06c1.92-2.31,3.46-4.04,4.62-5.19l0.87-1.44
			c-0.39-2.12-1.16-6.06-2.31-11.83c0-0.77-0.19-2.12-0.58-4.04c-0.39-3.46-0.58-6.16-0.58-8.08c0-5.38,0.19-9.38,0.58-11.98
			c0.38-2.6,1.06-5.72,2.02-9.38c2.11-5.96,4.91-11.25,8.37-15.87c0.58-0.96,2.4-2.98,5.48-6.06c1.92-1.54,3.66-2.4,5.2-2.6
			c2.88-0.19,5.24,0.1,7.07,0.87c1.82,0.77,3.03,1.78,3.6,3.03c0.58,1.25,0.48,2.36-0.29,3.32c-1.35,1.73-3.17,4.52-5.48,8.37
			c-1.15,1.54-2.7,4.04-4.62,7.5c-0.96,1.73-1.73,3.37-2.31,4.91c-1.93,6.16-2.99,10.87-3.18,14.14v5.48c0,2.5,0.1,4.43,0.29,5.77
			l0.29,3.17c16.35-10.2,32.71-17.79,49.06-22.8h1.44c1.54,0,2.84,0.43,3.9,1.3c1.05,0.87,1.59,1.88,1.59,3.03
			c0,1.54-1.06,2.6-3.18,3.17c-17.12,5.77-34.05,14.33-50.79,25.69c3.27,10.2,5.77,21.12,7.5,32.75c1.73,11.64,2.69,21.31,2.88,29
			c0,0.96-0.1,3.03-0.29,6.21c-0.19,3.17-0.58,6.01-1.15,8.51c-1.54,6.15-3.08,10.68-4.62,13.56c-1.35,3.08-3.27,6.15-5.77,9.24
			c-3.66,4.04-7.03,6.83-10.1,8.37c-0.58,0.38-1.2,0.87-1.88,1.44c-0.68,0.58-1.3,0.96-1.88,1.16c-3.46,1.54-7.79,2.69-12.99,3.46
			C550.13,639.56,548.69,639.66,546.76,639.66z M543.88,631.29c0,0,1.93-0.96,5.77-2.88c3.46-1.54,6.25-3.66,8.37-6.35
			c0.77-0.77,1.25-1.35,1.44-1.73c3.46-3.85,5.87-6.92,7.21-9.23c1.92-3.08,3.37-6.74,4.33-10.97c1.15-3.66,1.73-7.41,1.73-11.26
			c0-1.54,0.05-3.42,0.14-5.63c0.09-2.21,0.04-4.76-0.14-7.65c0-2.31-0.39-5.58-1.15-9.81c-0.39-4.23-0.77-7.22-1.16-8.95
			c-1.54-6.15-2.6-10.77-3.17-13.85c-0.39-1.54-0.96-2.79-1.73-3.75l-2.6,2.88l-10.39,13.85c-2.69,3.46-4.61,6.06-5.77,7.79
			c-1.34,1.93-3.17,5-5.48,9.23c-4.62,6.93-8.66,15.3-12.12,25.11c-2.31,6.73-3.18,12.99-2.6,18.76c0.39,4.62,1.54,8.27,3.46,10.96
			l1.73,1.73c2.7,1.15,4.91,1.73,6.64,1.73C542.05,631.29,543.88,631.29,543.88,631.29z"/>
	</g>
</g>
</svg>
