<?xml version="1.0" encoding="utf-8"?>
<!-- Generator: Adobe Illustrator 25.4.1, SVG Export Plug-In . SVG Version: 6.00 Build 0)  -->
<svg version="1.1" id="Layer_1" xmlns="http://www.w3.org/2000/svg" xmlns:xlink="http://www.w3.org/1999/xlink" x="0px" y="0px"
	 viewBox="0 0 729.3 671.1" style="enable-background:new 0 0 729.3 671.1;" xml:space="preserve">
<style type="text/css">
	.st0{fill:#BFBEBE;}
	.st1{fill:#FFFFFF;}
	.st2{fill:#C1252F;}
</style>
<g>
	<g>
		<path class="st0" d="M364.7,150.7c78.4,0,141.9-33.7,141.9-75.3C506.6,33.7,443,0,364.7,0S222.8,33.7,222.8,75.3
			C222.8,117,286.3,150.7,364.7,150.7"/>
		<path class="st1" d="M364.6,145.2c-36.9,0-71.6-7.3-97.7-20.6c-12.8-6.5-22.8-14.1-29.8-22.5c-7.4-8.8-11.1-18.2-11.1-28
			c0-9.7,3.7-19.2,11.1-28c7-8.5,17.1-16.1,29.9-22.6C293,10.1,327.8,2.8,364.7,2.7h0.3c36.9,0,71.6,7.3,97.7,20.6
			c12.8,6.5,22.8,14.1,29.8,22.5c7.4,8.8,11.1,18.3,11.1,28c0,9.8-3.7,19.2-11.1,28c-7,8.5-17.1,16.1-29.9,22.6
			c-26.2,13.3-60.9,20.7-97.9,20.8L364.6,145.2L364.6,145.2z"/>
		<path class="st2" d="M240.4,66.1c0.5-32.3,56.9-57.7,126.1-56.7c69.2,1,124.9,28,124.4,60.3c-0.5,32.3-56.9,57.7-126.1,56.8
			C295.6,125.5,240,98.5,240.4,66.1"/>
		<path class="st1" d="M390.1,105.9c-0.2-2.1-1.5-1.5-2.2-1.6c-0.7-0.1-1.2-0.1-1.3-1.7c-0.1-1.6-0.5-7.9-0.6-9.2
			c-0.1-1.3,0.2-2.2,1.2-3.3c1-1,0.8-1.8,0.8-2.4c0-0.6-0.2-1.8-0.3-2.8s-1.2-0.9-2-0.4c-0.8,0.4-9.4,5.1-10.3,5.7s-1.1,1.2-1,2
			c0.1,0.8,0.2,1.8,0.2,2.1c0,0.2-0.1,1.7,1.6,1.6c1.8-0.2,1.9,0.7,2,1.7c0,0,0.4,4.3,0.5,6.1c0.1,1.8-0.9,1.7-2,2s-1.1,1.1-1,1.6
			c0,0.5,0.1,1.9,0.2,2.8c0.1,0.9,0.5,1.2,1.6,1.1c1.1-0.1,8.8-1,10.8-1.2c2-0.2,2-0.8,2-1.6C390.2,107.5,390.1,106.4,390.1,105.9
			 M360.1,94.6c-0.2,2.8-1.4,3.9-3.4,3.8c-1.5-0.1-4.2-0.9-4.2-4.5c0.1-3.5,2-3.9,3.7-4C358.8,90.2,360.3,91.8,360.1,94.6
			 M367.5,80.8c-3-0.1-4.2,0.7-5.1,1.3c-0.9,0.6-2,1.3-4.1,2.7c-12-1.2-14.1,5.9-14.5,9.1c-0.4,3.2,1.1,6.2,4.6,8.3
			c-2.2,0.9-4.9,1.7-5.1,4.8s3.1,4.2,4.9,4.4c1.8,0.2,6.7,0.2,9.3,0.3c2.6,0.1,2.9,1.3,2.4,2.6c-0.5,1.2-3.8,1.8-8.2-0.2
			c-4-1.9-7.5-1.8-9.2-1.4c-1.1,0.2-1.1,1.3-1.1,3.5s0.6,3.3,8.1,4.5c7.5,1.2,19.7,0.7,20.4-7.4c0.7-8.1-9-7.4-14.6-7.6
			c-2.2-0.1-3.3-0.2-3.3-1.1s2.6-0.8,4.9-0.8c10.2,0.1,11.6-4.8,12-7.8c0.8-6.8-4.3-9.6-4.5-9.6c-0.2-0.1-0.3-0.3,0-0.3
			c2.2-0.3,1.9,0.8,6,0.9c1.4,0,1.5-0.5,1.5-1.2c0-0.7,0.1-2.1,0.2-3.6C372.1,80.7,370.5,80.9,367.5,80.8 M451.9,88.7
			c-0.6-1.1-0.7-1-2.3-0.5c-1.6,0.5-1.9-0.4-2.3-1.3c-0.4-0.9-1.6-3.6-3.6-8.4c-1.5-3.7-4.5-8.4-10.9-6c-4.4,1.7-6,5.4-6,5.4
			s-0.6-1.2-0.8-1.6c-0.5-1.2-0.9-1.2-2-0.3c-1.1,0.9-5.7,6.1-6.2,6.8c-0.6,0.7-0.6,1.2-0.4,1.7c0.2,0.5,0.7,1.8,1.1,2.7
			c0.4,0.9,1,0.9,2.2,0.5c1.1-0.4,1.7-0.2,2.1,0.8c0.4,1,2.3,5.3,3,7c0.8,1.7-1.1,2.1-1.6,2.3c-0.5,0.3-0.6,0.9-0.4,1.5
			c0.2,0.6,0.8,2,1.1,2.7c0.3,0.7,0.9,1.1,1.7,0.8c0.8-0.3,10-3.9,10.8-4.1c0.8-0.2,1.1-0.9,0.8-1.6c-0.3-0.7-0.8-1.8-1.3-2.9
			c-0.5-1.1-1.1-0.9-2-0.6c-0.9,0.3-1.5-0.2-1.9-1.1c-0.4-0.8-3.5-8.2-3.5-8.2s0.1-2.5,2.7-3.7c2.6-1.2,4.1,0.5,4.6,1.7
			c0.5,1.2,2.6,6.1,3.2,7.4c0.6,1.3,0.1,1.7-0.5,2.1c-0.6,0.3-0.9,0.8-0.6,1.5c0.3,0.8,0.7,1.7,1.2,2.8c0.5,1,0.9,1.1,1.7,0.8
			c0.8-0.3,9.1-3.5,10.4-4c1.3-0.5,1.3-0.9,0.9-1.8C452.8,90.6,452.5,89.8,451.9,88.7 M472.5,77.7c-0.3-0.3-0.8-0.7-1.9-1.9
			s-2-0.2-2.5,0.3c-0.5,0.4-1.3,0.6-2.2-0.2s-7.9-7.9-7.9-7.9s0.1-0.5,0.3-1.1c0.2-0.5,0.4-1.6-0.1-2.1s-2.1-2.2-3.4-3.3
			c-1.2-1.1-2.2,0.6-2.7,1.6c-0.5,1-3.8,7-4.4,8.3c-0.7,1.3-0.5,2-0.2,2.4c0.4,0.4,2,2,2.8,2.7c1.2,1.2,2.4,0.1,3-0.3
			c0.6-0.4,1.1-0.1,1.5,0.2c0.4,0.4,4.3,4.2,5.1,4.9c0.8,0.7-0.1,1.6-0.7,2.2c-0.6,0.6-0.6,1.1-0.2,1.5c0.4,0.4,1.6,1.7,2.2,2.3
			s1.1,0.5,1.5,0.2c1.4-1,8.5-6.9,9.6-7.8C473.2,78.8,472.8,78,472.5,77.7 M316,80.5c-1-0.2-1.6-0.4-2.7-0.6c0,0,3-4.4,3.7-5.3
			c0.7-1,0.3-1.6-0.5-1.7c-0.8-0.1-4.6-0.8-5.7-1c-1.2-0.2-1.5,0-2.1,0.8c-0.6,0.8-3.8,5.4-3.8,5.4s-1.7-0.3-2.3-0.4
			c-0.6-0.1-0.8,0-1.2,0.6c-0.4,0.6-1.9,2.7-2.5,3.5s-0.1,1.2,0.8,1.4s1.2,0.3,1.2,0.3s-3.4,4.8-4.7,6.8c-1.2,1.8-2.1,3-2.6,5.1
			c-0.8,3.5,2.4,5,5,6c2.6,1.1,4.5,0.7,5.2,0.4s1.3-2.1,1.4-3.1c0.1-1-0.3-1.1-1.7-1.8c-1.4-0.7-1-1.9-0.4-2.7s4.6-6.5,6.2-8.7
			c0,0,2,0.3,3.2,0.6s1.6-0.2,2.1-0.8c0.4-0.6,1.2-1.7,2-2.9C317.5,81.2,317,80.7,316,80.5 M409.2,101.8c-3.9,1.8-6.5-0.7-8.5-4
			c-2-3.4-1.8-7.1,0.5-8.4c3.6-2,6.9,0.1,8.8,4C410.6,94.6,413.1,100,409.2,101.8 M399.9,83.5c-5.9,2.2-10.1,7-7.6,16.3
			c2.5,9.4,10.9,9.9,17.4,8.2c6.5-1.8,12.2-8.2,8.8-17.4C415,81.4,406.1,81.2,399.9,83.5 M330.2,100.4c0,0-1.6,1.5-4.2,1
			c-2.5-0.6-2.3-2-2.2-2.6c0.1-0.6,0.7-3.3,7.1-2.7L330.2,100.4z M339.2,103.3c-0.8-0.2-1.3-0.6-1.1-1.6c0.2-1,1-5.2,2.1-10.7
			c1.1-5.5-3.8-8-8.7-8.7c-4.9-0.8-8.7-0.4-10.1,0c-1.4,0.4-1.5,1.1-1.6,1.5c-0.1,0.5-0.4,1.8-0.7,3.6c-0.3,1.8,1.6,1.5,3.8,1.8
			c2.1,0.4,2.5-0.4,3.7-0.9c1.2-0.5,1.9-0.7,4.1-0.3c2.2,0.4,1.5,2.6,1.2,4c-7.5-1.1-15.6-0.2-17,6.2c-1.3,6.4,5.8,7.8,8.5,8.4
			c2.7,0.6,5.4-0.5,6.5-1.1c2.4,4.5,8.9,2.6,9.9,2.2c1-0.4,1-2,1.2-3.2C341,103.4,340,103.4,339.2,103.3 M445.2,69.2
			c0.7,0.8,1.1,0.6,1.4,0s3.2-6.7,3.5-7.6c0.3-0.8,0.2-1.2-0.2-1.6c0,0-1.5-1.7-1.8-2c-0.5-0.6-0.8-0.3-1.1,0.3
			c-0.3,0.6-3,6.2-3.5,7.4c-0.5,1.2,0,1.5,0.2,1.8C444,67.9,444.5,68.4,445.2,69.2 M359.7,28c0.8,0,3.7,0.1,4.1,0.1
			c0.4,0,0.5,0,0.5-0.5c0-0.4,0-0.6,0.1-0.9c0-0.2,0-0.4-0.4-0.5c-0.3,0-0.4-0.1-0.6-0.1s-0.4-0.1-0.3-0.8c0-0.7,0.2-7.6,0.2-7.6
			c0-0.5,0.1-0.7,0.4-1c0.3-0.2,0.6-0.3,0.6-1.1V15c0-0.3-0.2-0.7-1-0.3c-0.8,0.4-2.9,1.2-3.6,1.5c-0.2,0.1-0.4,0.3-0.4,0.8
			c0,0.5-0.1,1,0.4,1c0.5,0.1,1,0,1,0.9c0,0.9-0.1,5.9-0.2,6.4s0,0.8-0.5,0.8s-0.6,0-0.7,0.5C359.2,27.1,358.9,27.9,359.7,28
			 M365.1,74.4c12.8-0.6,22.9-5.5,22.6-15.9c-0.3-9.7-12.1-13.3-22-13c-7.1,0.2-11.5,2.4-11.5,2.4l0.3-5.8c0,0,3,0.7,6,0.7
			c4.8,0,14.8-1,20.1-4.1c4.1-2.4,4.2-4.2,4-4.8c-0.2-0.6-0.9-1.4-4.4-0.7c-4.5,0.9-20.5,2.3-32.7,0.8c0,0-0.5,14.7-0.6,16.4
			c-0.1,1.7-0.2,2.4,0.4,3.1c2.4,2.9,6.7-2,13.3-2.4c7-0.4,11,6.2,8.9,12.8c-2,6.2-6.9,5.9-9.4,5.5c-2.5-0.4-2.4-4.2-1.7-5.4
			c1-1.9,0.8-5.2-4.7-6.2c-5.8-1.1-10,2-10.3,5.5C342.6,71.2,352.3,75,365.1,74.4 M383,78.2c-0.6,0.3-6.4,3.1-7.1,3.5
			c-0.7,0.4-0.8,0.6-0.5,1.8c0,0,0.4,1.4,0.6,2.6c0.2,0.9,1,1.1,1.7,0.8c0.7-0.4,5.7-3,6.8-3.4c1-0.4,1.2-1,0.9-1.8
			s-0.4-1.8-0.7-2.9C384.4,77.6,383.8,77.9,383,78.2 M289.3,73.4c-3.7-3-4.6-4.8-2.8-5.8c1.7-1.1,3.5,0.3,4.6,1s0.5,2.9,1.5,4
			c0.9,1.1,1.4,1.8,3.7,3.1c2.3,1.3,3.6,0.5,5.4-3c0.8-1.7,1.4-2.5-0.5-4.7c-2-2.2-7.2-7.2-13.8-7.8s-9.4,1.1-11.8,4.8
			c-2.4,3.7,0.1,7.9,3.4,10.8s7.2,5.8,5,8.2c-1,1.1-1.9,1.8-4.2,0.4c-2.3-1.4-3.4-2.4-3.3-4c0.1-1.6,0-2.9-2.7-4.7
			c-2.7-1.8-5.7-2.9-7-0.4c-1.4,2.5-2.4,4.2-0.3,6.6s6.5,8,15,9.7c8.6,1.7,13.4-4.8,13.7-8C295.5,80.2,293,76.4,289.3,73.4
			 M369.5,21.3c1-0.3,1.8,0.7,1.1,1.1c-0.7,0.4-2.6,1.1-2.6,1.1C368,22.4,368.6,21.6,369.5,21.3 M372.7,27.9
			c0.9-0.3,1.8-0.8,1.5-1.4c-0.3-0.6-0.5-1.2-1.1-0.9c-0.6,0.3-3.1,1.5-4.1-0.2c0,0,4.2-1.7,4.5-1.9c0.3-0.1,1-0.9,0.9-1.8
			c-0.1-0.6-1.8-3.4-5.9-2.1c-4.1,1.2-3.3,5.8-2.3,7C366.8,27.3,368.8,29.3,372.7,27.9"/>
		<path class="st1" d="M310.7,28.1c0,0,7.6,38.8,7.6,38.9s-42.9-16-42.9-16c3.7-2,17.5-3.8,34,8C306.9,51,303.9,29.7,310.7,28.1"/>
		<path class="st1" d="M326.8,44.7c-2.5-5-8-2.5-9.7-6.5c-0.1,12,9.2,8.5,11,12.8c-0.1-4.7,9.8-5.2,4.8-16.1
			C333,39.1,327,39.1,326.8,44.7"/>
		<path class="st1" d="M328.8,54c-2.5-5-8-2.5-9.7-6.5c-0.1,12,9.2,8.5,11,12.8c-0.1-4.7,9.8-5.2,4.8-16.2
			C335,48.5,329,48.4,328.8,54"/>
		<path class="st1" d="M330.8,63.3c-2.5-5-8-2.5-9.7-6.5c-0.1,12,9.2,8.5,11,12.8c-0.1-4.6,9.8-5.2,4.8-16.1
			C337,57.8,331,57.7,330.8,63.3"/>
		<path class="st1" d="M325.8,40.3c-2.5,0.5-4.5-2.1-4.1-4.3c0.3-2.2,1.9-4.1,1.7-6.8c1,2.5,3.2,3.6,4.4,5.5
			C329,36.6,328.3,39.8,325.8,40.3"/>
		<polygon class="st1" points="325.7,24.3 326.6,24.1 328.2,31.6 327.3,31.8 		"/>
		<polygon class="st1" points="322,25 322.5,27.1 323.4,26.9 323,24.8 		"/>
		<polygon class="st1" points="329.3,23.5 330.3,23.3 332.5,33.6 331.5,33.8 		"/>
		<polygon class="st1" points="319.3,25.6 318.4,25.8 320,33.3 321,33.1 		"/>
		<polygon class="st1" points="315.7,26.4 314.7,26.6 317,36.8 317.9,36.6 		"/>
		<path class="st1" d="M421.5,28.1c0,0-7.6,38.8-7.6,38.9s42.9-16,42.9-16c-3.7-2-17.5-3.8-34,8C425.2,51,428.2,29.7,421.5,28.1"/>
		<path class="st1" d="M405.4,44.7c2.5-5,8-2.5,9.7-6.5c0.1,12-9.2,8.5-11,12.8c0.1-4.7-9.8-5.2-4.8-16.1
			C399.1,39.1,405.2,39.1,405.4,44.7"/>
		<path class="st1" d="M403.4,54c2.5-5,8-2.5,9.7-6.5c0.1,12-9.2,8.5-11,12.8c0.1-4.7-9.8-5.2-4.8-16.2
			C397.1,48.5,403.2,48.4,403.4,54"/>
		<path class="st1" d="M401.4,63.3c2.5-5,8-2.5,9.7-6.5c0.1,12-9.2,8.5-11,12.8c0.1-4.6-9.8-5.2-4.8-16.1
			C395.1,57.8,401.2,57.7,401.4,63.3"/>
		<path class="st1" d="M406.3,40.3c2.5,0.5,4.5-2.1,4.1-4.3c-0.3-2.2-1.9-4.1-1.7-6.8c-1,2.5-3.2,3.6-4.4,5.5
			C403.1,36.6,403.9,39.8,406.3,40.3"/>
		<polygon class="st1" points="406.5,24.3 405.5,24.1 403.9,31.6 404.8,31.8 		"/>
		<polygon class="st1" points="408.7,26.9 409.6,27.1 410.1,25 409.1,24.8 		"/>
		<polygon class="st1" points="402.8,23.5 401.9,23.3 399.6,33.6 400.6,33.8 		"/>
		<polygon class="st1" points="412.8,25.6 413.8,25.8 412.1,33.3 411.2,33.1 		"/>
		<polygon class="st1" points="416.4,26.4 417.4,26.6 415.2,36.8 414.2,36.6 		"/>
	</g>
	<g>
		<g>
			<path class="st1" d="M98.9,312.3c-2,0.3-4.4,0.8-7,1.4c-2.7,0.6-5.9,1.1-9.6,1.5c-2,0.3-5.4,0.5-10.1,0.6c-3.3,0.1-5.9,0-7.5-0.3
				c-1.3-0.3-3.1-0.2-5.3,0.1s-3.9,0.5-5.3,0.5c-0.7,0-1.3,0-2,0c-2,0-3,1-3,2.7c-0.3,5.6-0.5,13.9-0.5,25c0.2,7.5,0.3-1.5,0.5,5.9
				c0.3,5.2,0.5,12.8,0.5,22.8c0,6.7,0,30.1,0,36.8c0.2,5.5,0.3,11.1,0.5,16.6c0.3,2.3-0.7,3.6-3,3.9c-0.5,0.1-1,0.1-1.5,0.2
				c-1-0.2-1.9-0.1-2.8,0.1c-0.8,0.2-1.6,0.4-2.3,0.5c-0.2-0.6-0.3-1.1-0.5-1.7c-2.3,2.6-5,4.1-8,4.5c-1.3,0.2-2.7,0.2-4,0
				c-1.3-0.1-2.9-0.1-4.5,0.1c0.7-1.3,1-2.1,1-2.4c-0.3,0.3-0.8,0.5-1.2,0.6s-0.8,0.2-0.8,0.5c-0.7,0.7-1.3,1.1-1.8,1.3
				c-0.5,0.2-1.1,0.2-1.8,0c-0.3-0.3-0.8-0.4-1.5-0.3c-3.4-0.2-5.7-0.2-7,0c-1.3,0.2-2.8-0.1-4.5-0.8c-0.3,0.2-0.7,0.4-1,0.6
				c-0.3,0.4-0.5,1-0.5,1.9c-1.3-0.1-1.7-1.1-1-3.1c-2,0.2-2.9-0.4-2.8-1.9c0.2-1.5,0.2-2.5,0.2-2.8c-0.3-0.9-0.5-2.2-0.5-4
				c0-1.2,0-2.4,0-3.7c0.3-5.5,0.7-11,1-16.6c0-0.9,0-1.8,0-2.7c0-6.5,0-29.7,0-36.2c-0.2-10.8-0.3-5.2-0.5-16c0-4,0.3-10.2,1-18.8
				c-0.2-8.8-0.3-17.6-0.5-26.5c0-5,0-10,0-15.1c-0.2-5.5-0.3-11-0.5-16.5c-0.2-11.1-0.3-22.2-0.5-33.4c0.2-7.2,0.3-14.3,0.5-21.5
				c0-5.3,0-10.7,0-16c0-7.3-0.2-12.7-0.5-16.1C0.2,179.8,0,173.1,0,164.2c0-4.9,0.5-9.7,1.5-14.5c0-0.3,0.7-1,2-2
				c0.8,0.7,1.7,1.4,2.5,2.1c0.8-1.4,1.7-2.8,2.5-4.2c0.3-0.3,0.8-0.4,1.5-0.3c1,0.1,2.4,0.1,4.3-0.1c1.8-0.2,3.6-0.2,5.3,0
				c2.7,0,6.7,0.4,12,1c3.3,0.1,8.4,0.5,15.1,1.3c7.2,1.1,14.4,2.2,21.6,3.2c1.5,0.3,3,0.6,4.5,0.9c0.3,0.2,0.7,0.4,1,0.5
				c9.1,0.9,15.8,1.7,20.1,2.4c0.7,0.4,2.7,1,6,2.1c3.3,1,6.4,2.4,9.1,4c-2-0.4-4.9-1.3-8.8-2.5c-3.9-1.2-7.1-2.1-9.8-2.6
				c-0.3,0-0.5,0.1-0.5,0.4c0.5,0.3,1,0.7,1.5,1c8.7,2.5,15.1,4.5,19.1,6c10.7,4.3,20,11.4,27.7,21.2c4.7,5.8,7.9,13.9,9.6,24.3
				c1.3,5.5,2.3,13.7,3,24.6c0,4.4,0.2,7.6,0.5,9.8c0.3,4.4-0.2,8.6-1.5,12.6c0,0.6-0.4,1.5-1.3,2.8c-0.8,1.4-1.2,2.6-1.2,3.7
				c0.3-0.4,0.7-0.8,1-1.2c-2.7,8.1-5,14.2-7.1,18.4c-4,9.3-11.1,16.6-21.1,21.9c-3.4,1.7-8.4,4-15.1,6.9c-0.7,0.6-1,1-1,1.3
				c3.7-1.6,7.4-3.2,11.1-4.8c-1.3,1.4-3.4,2.8-6.3,4.3s-5.3,2.3-7.3,2.6c0.3,0,0.8-0.3,1.5-0.9c-4.4,0.9-8.7,1.8-13.1,2.8
				c2,0,3-0.1,3-0.1C92.9,313.2,94.9,312.9,98.9,312.3z M16.5,321.6c-0.2-0.9-0.3-1.8-0.5-2.7c-0.3,0-0.7,0-1,0c0,0.6,0,1.2,0,1.8
				c0.2,0.9,0.3,1.8,0.5,2.7c-0.2,4.4-0.3,8.7-0.5,13.1c0.3,11.1,0.5,11.1,0.5,32.8c0.2,0.4,0.3,0.9,0.5,1.3
				c0.2,2.1,0.3,20.8,0.5,22.9c-0.7,7.3-1,13-1,17.2c-0.3,2.7-0.5,6.8-0.5,12.2c0,2.4,0.7,4,2,4.7c0-0.6,0-1.2,0-1.8
				c0-4.8,0-9.6,0-14.4c0-1.2,0.2-2.3,0.5-3.2c0.2-0.9,0.3-1.8,0.5-2.8c-0.2-9.3-0.3-35.2-0.5-44.5c-0.7-12.6-1-5.4-1-11.5
				C16.5,340.2,16.5,330.9,16.5,321.6z M21.1,321.9c-0.2-0.9-0.3-1.8-0.5-2.7c-0.3,0.2-0.7,0.3-1,0.5c0.2,17.5,0.3,18.6,0.5,36.2
				c-0.2,0-0.3,0-0.5,0c0-3-0.2-5.2-0.5-6.7c-0.3,0-0.7,0-1,0.1c0.5,20.1,1,56.7,1.5,76.8c0.3-0.3,1-1.5,2-3.4
				c0-0.6,0.2-1.3,0.5-2.1c0.3-0.8,0.5-1.5,0.5-2.1c-0.2-10.3-0.3-37.2-0.5-47.5C21.4,341.7,21.1,336.3,21.1,321.9z M18.5,424.3
				c0-3.3,0-6.6,0-9.9c-0.2,0-0.3,0-0.5,0c0,3.3,0,6.6,0,9.9C18.2,424.4,18.4,424.4,18.5,424.3z M19.6,247.7c0-2.6,0-5.1,0-7.6
				c-0.3,0-0.7,0-1,0c0.2,2.6,0.3,5.1,0.5,7.7C19.2,247.7,19.4,247.7,19.6,247.7z M20.1,234.3c-0.3-9.2-0.7-18.3-1-27.5
				c0,9.1,0,18.3,0,27.4C19.4,234.2,19.7,234.2,20.1,234.3z M24.6,357.3c-0.2-8.6-0.3-0.9-0.5-9.5c0-1.5,0-3,0-4.5
				c0.7-1.8,1-3.3,1-4.5c0-0.3,0-0.6,0-0.9c-0.3-1.8-0.4-3.3-0.2-4.7c0.2-1.4,0.2-2.5,0.2-3.4c0.3-1.8,0.4-3.4,0.2-4.9
				s-0.2-2.8-0.2-4c0-0.9-0.3-1.6-1-2.2c-1,0-1.5,0.8-1.5,2.3c-0.3,2.1-0.5,5.5-0.5,10.3c0.2,5.2,0.3,10.5,0.5,15.7
				c0.3,3.6,0.5-7.6,0.5-0.7c0,9.4,0,35.4,0,44.9c0,1.9,0,3.9,0,5.8c0.5,2.9,1,5.9,1.5,8.8c0,5.2,0,10.5,0,15.7
				c0.2,0.6,0.3,1.2,0.5,1.7c1.3-1.3,2-2.5,2-3.4c0-1.8,0-3.6,0-5.4c-0.3-14.3-0.7-45.1-1-59.4c0-0.9,0-1.8,0-2.7
				c-0.3,0.2-0.7,0.3-1,0.5c0,2.1,0,3.1,0,3.1S24.9,356.4,24.6,357.3z M25.1,270.3c-0.7,0.3-1.3,0.6-2,0.9c0-2.2,0-4.5,0-6.7
				c-0.2,0-0.3,0-0.5,0c0,3.6,0,7.2,0,10.8c0,0.6,0.7,1.8,2,3.6C24.6,275.2,24.7,272.4,25.1,270.3z M26.1,209.5
				c0,22.2,0,44.4,0,66.6c0.5,0,1,0,1.5,0c0-0.3,0.1-0.6,0.2-0.9c0.2-0.3,0.1-0.6-0.2-0.9c-0.2-3.1-0.3-6.3-0.5-9.4
				c-0.3-11.3-0.5-28.3-0.5-51c0-1.5,0-3,0-4.5C26.4,209.5,26.2,209.5,26.1,209.5z M30.6,422.5c0.2,0,0.3,0,0.5-0.1c0-1.5,0-3,0-4.5
				c0-2.1,0.2-3.6,0.5-4.5c0-0.6,0.2-1.1,0.5-1.6c0.3-0.5,0.5-1,0.5-1.6c-0.5-14.3-1-45.3-1.5-59.6c-0.2-8.9-0.3-1.4-0.5-10.3
				c-0.3-4.1-0.5-10.7-0.5-19.6c0-1.5-1-2.2-3-2.1c-0.2,0.6-0.3,1.2-0.5,1.8c0.3,13.7,0.7,11,1,24.7c0,12.8,0.3,48.3,1,73.2
				C28.6,420.1,29.2,421.5,30.6,422.5z M32.1,258.4c0,3.1,0,6.2,0,9.4C32.1,264.6,32.1,261.5,32.1,258.4z M34.1,351.3
				c0,1.2,0,2.4,0,3.5c-0.2,0-0.3,0-0.5,0c-0.3-17-0.7-17.6-1-34.7c0,0.7,0,1.5,0,2.2c0.2,21.6,0.3,26.9,0.5,48.5
				c0.2,9.3,0.3,35.2,0.5,44.6c0,1.2,0.7,2,2,2.5c0-2.4,0.3-6,1-10.8c0,4,0,8,0,12c0.3,0,0.7-0.1,1-0.1c0.3-1.5,0.5-3.9,0.5-7.1
				c-0.2-4.7-0.3-9.4-0.5-14.1c0.5,5.7,1,11.4,1.5,17.1c0,0.9,0.3,2.2,1,3.9c0.3,0,0.7-0.1,1-0.1c0-0.4,0-0.9,0-1.3
				c0-12.1-0.2-37.8-0.5-44c0-6.8-0.3-16.9-1-30.4c-0.2-13.1-0.3-9.8-0.5-22.9c-0.2-0.7-0.3-1.5-0.5-2.2c-0.5,0-1,0-1.5,0
				c0.2,17.6,0.3,18.7,0.5,36.3c-0.2,0-0.3,0-0.5,0c-0.3-14.3-0.7-12.2-1-26.5c-0.3,0-0.7,0-1,0c0.3,20.7,0.7,25,1,45.6
				c-0.2,0-0.3,0-0.5,0c0-4.7-0.3-12.1-1-22.1C34.4,351.3,34.3,351.3,34.1,351.3z M35.6,394c0.2,0,0.3,0,0.5,0c0,3,0,5.9,0,8.9
				c-0.2,0-0.3,0-0.5,0C35.6,399.9,35.6,397,35.6,394z M44.1,282.9c0.2,0,0.3,0,0.5,0c0-0.4,0-0.9,0-1.3c-0.3-0.6-0.7-1.2-1-1.8
				c-0.5,0.4-1,0.9-1.5,1.3c0,1,0,2.1,0,3.1c0.7,0.6,1.2,0.9,1.5,0.9c0.3-0.3,0.7-0.6,1-0.9c0-0.6,0-0.9,0-0.9
				S44.5,283.2,44.1,282.9z M43.6,419.3c0.2,0.6,0.3,1.1,0.5,1.7c0.2,0,0.3,0,0.5,0c0.2-0.5,0.3-0.9,0.5-1.4c1-4.5,1.5-6.9,1.5-7.2
				c-0.2-5-0.3-9.9-0.5-14.9c0-17.3-0.3-43.4-1-78c0-0.3-0.3-1-1-2.2c-1,0.9-1.5,1.6-1.5,2.2c-0.2,4.1-0.3,8.2-0.5,12.4
				c0.3,10.3,0.5,9.6,0.5,30.8C43.3,380.3,43.6,410.2,43.6,419.3z M42.6,414.6c-0.2-4.2-0.3-8.5-0.5-12.8c0,4.3,0,8.5,0,12.8
				C42.3,414.6,42.5,414.6,42.6,414.6z M44.1,228.7c0-1,0-2.1,0-3.1c-0.2,0-0.3,0-0.5,0c0,1.9,0,3.8,0,5.7c0,12.8,0,25.6,0,38.3
				c0,1.8-0.3,4.4-1,7.9c0.2,0.3,0.3,0.6,0.5,0.9c0.3-0.3,0.7-0.6,1-0.9c0.3-1.5,0.5-3.4,0.5-5.7C44.5,257.5,44.3,243.1,44.1,228.7z
				 M111.5,249.2c-0.3,0.6-0.7,1.1-1,1.6c0-2.5,0.3-6.3,1-11.3c-0.2,0-0.3,0-0.5,0c-0.7,3.3-1,5.8-1,7.5s0.2,2.9,0.5,3.8
				c-0.3,0.3-0.4,0.7-0.2,1.2c0.2,0.6,0.1,1-0.2,1.2c-0.3,1.1-0.8,2.7-1.3,4.8c-0.5,2.1-1.1,3.8-1.8,5.2c-1,3.1-2.9,5.7-5.5,7.9
				c-5.4,3.3-10.2,5.1-14.6,5.4c-9.1,0.8-17.1,1-24.1,0.7c0.3-0.3,1-0.4,2-0.4c2.3,0,6.2-0.2,11.6-0.8c2-0.1,4-0.2,6-0.4
				c5,0.3,10.1-0.9,15.1-3.7c2-1.1,3.3-2.1,4-2.9c3-3.3,4.7-6.5,5-9.6c0.3-1.1,1.2-3.5,2.5-7.1c-0.2-0.4-0.3-0.9-0.5-1.3
				c-0.2,0-0.3,0-0.5,0c-0.5,1.4-1,2.8-1.5,4.2c-0.2,0-0.3,0-0.5,0c0.2-1.3,0.3-2.5,0.5-3.8c-0.3,0-0.7,0-1,0
				c-0.7,3.9-1.4,7.1-2.3,9.6c-0.8,2.5-2.4,4.9-4.8,7.1c1-2.5,2-5,3-7.5c2-3.3,3-6,3-7.9c0-6.4-0.3-15.9-1-28.2
				c-0.5-2.7-1-5.4-1.5-8.1c-1.5-3-3-6.1-4.5-9.1c-1-3.7-4.9-6.9-11.6-9.6c-2-0.7-5.7-1.5-11.1-2.5c-3-0.8-7.9-1.7-14.6-2.8
				c-1-0.1-2.3-0.1-3.8-0.1c-1.5,0-3.3-0.2-5.3-0.6c-1.3-0.1-2.2,0-2.5,0.2c-0.3,0.3-0.5,1-0.5,2.2c0.2,4.6,0.3,9.1,0.5,13.6
				c0.3,2.1,0.5,5.1,0.5,9.2c-0.3,0-0.7,0-1-0.1c0-1.9,0-3.8,0-5.7c-0.3,1.1-0.7,2.4-1,3.9c-0.3,1.4-0.5,3.2-0.5,5.2
				c0,1.5,0.5,3.1,1.5,4.9c0,0.3,0,0.6,0,0.9c-0.2,9.6-0.3,19.3-0.5,29c0.2,2.8,0.3,5.6,0.5,8.4c0.3,0,0.7,0,1,0c0-5,0-9.9,0-14.9
				c0.3,0.6,0.5,1.8,0.5,3.5c0,8.2,0,16.4,0,24.6c0,1.8,1,2.6,3,2.6c5.7-0.1,11.4-0.2,17.1-0.3c1,0,4.2-0.1,9.5-0.4
				c5.3-0.2,10.2-1.4,14.6-3.3c0.7-0.3,2-0.8,4-1.4c2-0.7,3.7-1.6,5-2.7c2-1.7,3.5-3.9,4.5-6.7c1.3-3.1,2.3-5.8,3-8.1
				c0.7-2.4,1.2-4.2,1.5-5.6c0-0.6,0-1.1,0-1.7C111.8,249.2,111.7,249.2,111.5,249.2z M48.2,356.1c0-10.8,0-5.2,0-16.1
				c-0.2,0-0.3,0-0.5,0c0,10.8,0,5.3,0,16.1C47.8,356.1,48,356.1,48.2,356.1z M49.2,275.9c0-2.5,0-5,0-7.5c-0.3,0-0.7,0-1,0
				c0,2.5,0,5,0,7.5C48.5,275.9,48.8,275.9,49.2,275.9z M48.2,366.2c0,6.1,0,28.9,0,35c0.2,0,0.3,0,0.5,0c0-6.1,0-28.9,0-35
				C48.5,366.2,48.3,366.2,48.2,366.2z M49.7,160.6c5.3-0.3,10.9-0.2,16.6,0.4c12.7,1.2,27,4.8,42.7,10.2
				c-14.1-5.6-27.7-9.2-40.7-10.5C61.2,160,55,159.9,49.7,160.6z M116.5,256.9c-0.2,0-0.3,0-0.5,0c-0.7,2.2-1,3.9-1,5
				c-1,4.7-3.2,8.5-6.5,11.2c-5,5.3-11.9,8.6-20.6,10c-8,1.1-17.8,1.4-29.2,0.8c-1.3-0.3-3.2-0.4-5.5-0.5c10-0.5,17.4-0.8,22.1-0.8
				c1.3,0,4.1,0,8.3-0.2c4.2-0.1,7.8-0.9,10.8-2.3c4.3-1.9,7.9-3.8,10.6-5.4c2.7-1.6,4.5-4,5.5-7.1c0.3-0.5,0.5-1.4,0.5-2.5
				c-0.2,0-0.3,0-0.5,0c-1,1-2,1.9-3,2.9c-0.7,0.5-1.3,1.5-2,2.7c-0.7,1.2-1.5,2.2-2.5,2.7c-5,3.6-10.6,5.8-16.6,6.6
				c-6.7,0.5-11.7,0.8-15.1,0.8c-4.4,0-10.5-0.3-18.6-1c-1,0-2,0-3,0c0,1.3,0,2.6,0,4c0,0.6,0.5,1.2,1.5,1.8
				c9.7,0.3,20.4,0,32.1-0.8c6-1.1,10.4-2.1,13.1-2.9c5.7-2,10.1-4.4,13.1-7.5C113.5,269.1,115.8,263.3,116.5,256.9z M50.2,332
				c-0.2,0-0.3,0-0.5,0c0-4.1,0-8.2,0-12.3c0.2,0,0.3,0,0.5,0C50.2,323.9,50.2,328,50.2,332z M107.5,289c0-0.1,0-0.3,0-0.4
				c-0.5,0-1,0-1.5,0c-5.7,3.1-12.8,5.1-21.1,6c-3.3,0.3-8.4,0.5-15.1,0.5c-4.2-0.1-8.4-0.2-12.6-0.4c-2.3,0-4.2,0.2-5.5,0.5
				c-0.5,0.1-1,0.3-1.5,0.4c0,0.1,0,0.3,0,0.4c0.3,0.3,0.8,0.4,1.5,0.4c6.7,0.1,13.4,0.2,20.1,0.3c10.4-0.1,18.4-1.1,24.1-3.1
				C99.6,293.1,103.4,291.5,107.5,289z M76.8,286.9c-8.5-0.1-17.1-0.3-25.6-0.5c0,0.1,0,0.3,0,0.4C59.7,286.9,68.2,286.9,76.8,286.9
				z M58.2,291.2c-2.3,0-4.7,0-7,0c0,0.1,0,0.3,0,0.4c2.3,0,4.7,0,7,0C58.2,291.5,58.2,291.4,58.2,291.2z M129.1,284.9
				c-1.3,1.1-2.7,2.2-4,3.3c0.5-0.7,1-1.4,1.5-2.1c7-7.7,11.1-16.6,12.1-26.7c0-0.4,0-0.8,0-1.2c-0.3,0-0.7,0-1,0
				c0,4.9-1.9,11.2-5.5,18.9c-3.4,5.8-8.4,11-15.1,15.7c-2.7,2-6.3,3.7-10.8,5.3c-4.5,1.6-8,2.8-10.3,3.7c0.7,0.1,1.3,0.3,2,0.4
				c4.4-1.6,8.7-3.2,13.1-4.7c1.2-0.4,2.3-0.9,3.5-1.3c-5.7,3.9-12.1,6.4-19.1,7.3c-4.4,0.9-11.1,1.4-20.1,1.5
				c-1.7,0.3-4.5,0.5-8.5,0.5c1.7,0.3,4.3,0.4,8,0.3c11.7-0.2,21.1-1.4,28.2-3.7c5.7-1.5,11.7-4.5,18.1-8.9c1.3-0.8,2.8-2.1,4.5-4
				c1.7-1.8,2.9-3.1,3.5-3.9c1.3-1.1,2.2-2.1,2.5-2.9c1.9-3.3,3.7-6.6,5.5-9.9c0.3-0.8,0.8-2,1.5-3.5c0.7-1.5,1.2-2.9,1.5-4.3
				c0.3-1.6,0.7-3.8,1-6.5c0.3-2.7,0.5-6,0.5-9.8c0-4.4-0.3-11.2-1-20.6c0-5.8-1.4-14.7-4-26.9c-0.8-2.5-1.7-5-2.5-7.6
				c0.7,3.3,1.3,6.1,2,8.4c1.3,6.4,2.2,10.8,2.5,13.3c0.7,5.2,1.3,13.1,2,23.5c0.3,5.8,0,12.3-1,19.7c0,0.5,0.1,1.5,0.2,2.9
				c0.2,1.4-0.1,2.6-0.8,3.7c-1.3,3.5-3.7,8.9-7,16C131.1,282.1,130.1,283.5,129.1,284.9z M128.1,275.8c-0.3,0-0.5-0.1-0.5-0.4
				c-0.5,0.4-1,0.8-1.5,1.2c-5.7,9.9-15.6,16.7-29.7,20.5c-8.1,2-16.8,3.1-26.1,3.2c-0.5,0-1,0-1.5,0c0.3,0.1,0.7,0.3,1,0.4
				c2.3,0,4.7,0,7-0.1c18.4-0.2,33-5.4,43.8-15.4c3.7-3,5.5-4.5,5.5-4.5C126.1,280.7,126.8,279,128.1,275.8z M81.3,314.3
				c-4.2,0.1-8.4,0.2-12.6,0.3c0,0.1,0,0.3,0,0.4c1.8,0.1,3.7,0.2,5.5,0.3C77.6,315.2,80,314.9,81.3,314.3z M113,253.9
				c-0.2,0-0.3,0-0.5,0c-0.3,1.4-0.8,3-1.5,4.8c-0.7,1.8-1.3,3.7-2,5.6c0.3,0,0.7,0,1,0C112,259.9,113,256.4,113,253.9z
				 M116.5,253.6c1.7,0.6,2-0.5,1-3.3c-0.7,0.7-1.3,1.4-2,2c-0.3,1.2-0.7,2.5-1,3.7c0.3,0,0.7,0,1,0
				C115.5,255.5,115.8,254.6,116.5,253.6z M114.5,296.1c3.5-2.7,7-5.3,10.6-7.9C122.7,291.2,119.2,293.9,114.5,296.1z M115.5,274
				c0.3,0,0.5,0.1,0.5,0.4c0.7-1.1,1.2-2.2,1.8-3.3c0.5-1.1,1.3-2.3,2.3-3.7c-0.2-0.1-0.3-0.3-0.5-0.4c-2.3,3.9-3.5,5.8-3.5,5.8
				S115.8,273.1,115.5,274z"/>
		</g>
		<g>
			<path class="st1" d="M612.8,148.3c1.1,0.2,2.2,0.4,3.3,0.6c2.9-2.1,4.9-2.2,6-0.1c2.2-0.8,4-1.3,5.5-1.5c0.4,0,0.7-0.1,1.1-0.1
				c1.1,0.2,2.6,0,4.4-0.7c1.8-0.6,3.5-1.1,4.9-1.2c1.1-0.1,2-0.1,2.7,0.2c0.7,0.2,1.8,0.1,3.3-0.4c1.5-0.5,2.7-0.8,3.8-0.9
				c0.4-0.3,1.3-0.4,2.7-0.3c0.7-0.1,1.5-0.2,2.2-0.2c2.9-0.6,5.1-0.1,6.6,1.6c0.5,0.6,1.1,1.1,1.7,1.7c0.9-1.2,1.8-2.4,2.7-3.6
				c0.4,0,0.7-0.1,1.1-0.1c0.4,1.1,0.7,2.1,1.1,3.2c0.5,2.6,1.1,5.2,1.7,7.9c1.5,4.9,2.9,9.8,4.4,14.7c1.1,5.1,2.2,10.2,3.3,15.4
				c0.7,2.8,1.5,6.3,2.5,10.5c0.9,4.2,2.3,9.1,4.1,14.7c0.9,4.7,1.8,9.4,2.7,14.2c2.2,10.1,3.7,17.1,4.4,20.9
				c1.8,7.8,3.7,15.6,5.5,23.5c0.7,4.5,1.5,8.5,2.5,12c0.9,3.5,1.7,6.6,2.5,9.2c1.5,5.8-0.3-2.6,1.9,8.5c0.9,4.1,1.8,8.2,2.7,12.3
				c3.3,14.1,4.9,21.7,4.9,22.7c0.4,2.3,0.7,4.6,1.1,6.9c0.4,2.3,0.7,4.6,1.1,6.9c0.7,3.3,1.5,5.8,2.2,7.5c0,0.3,0,0.6,0,1
				c1.5,6.5,2.9,13,4.4,19.6c2.9,13.4,4.9,23.6,6,30.3c1.1,4.4,2.4,11.4,3.8,20.9c0.5,2.2,1.1,4.5,1.6,6.7c0,0.5,0,1,0,1.5
				c-0.2,0-0.4,0-0.5-0.1c-0.2-0.4-0.4-0.7-0.5-1.1c-0.4-0.7-0.7-1.1-1.1-1.1c-0.4,0-0.7,0.2-1.1,0.9c-0.7,1.6-2.2,2.4-4.4,2.4
				c-2.2,0-3.7,0.2-4.4,0.4c-0.7-0.1-1.5-0.2-2.2-0.3c-0.7,0.9-1.8,1.2-3.3,1c-1.5-0.2-2.4-0.3-2.7-0.4c-3.7-0.5-7.3-1-11-1.5
				c-4.4-0.6-7.7-1.8-9.9-3.7c-0.4-0.4-0.7-0.5-1.1-0.4c-0.4,0.1-0.7,0.1-1.1,0.1c-1.3-0.2-2.6-0.3-3.8-0.5c0-1.8,0-3.5,0-5.3
				c-1.8,1.1-3.7,2.1-5.5,3.2c-0.7-4.1-1.5-8.1-2.2-12.2c-0.4-4.2-0.7-8.3-1.1-12.5c-1.3-4.3-2.6-8.5-3.8-12.7
				c-0.4-2.4-0.7-4.8-1.1-7.2c-0.4-1.6-0.8-2.7-1.4-3.2s-1.7-0.9-3.6-1c-11.7-0.3-20.5-0.6-26.3-1.1c-10.1-0.7-12.8,0.7-22.9,0.1
				c-2.2-0.1-3.5-0.1-3.8,0.2c-0.4,0.3-0.9,1.3-1.7,3c-1.8,8.2-3.7,16.3-5.5,24.4c0,0.6-0.2,0.9-0.5,0.9c-1.5,0.5-1.5,1.4,0,2.7
				c-2.6,1.6-3.8,3.6-3.8,6c0,0.5,0,0.9,0,1.4c0,1.8-0.7,3.1-2.2,3.8c-1.1,0.2-2.8,0.8-5,1.8c-0.4,0.1-0.7,0.2-1.1,0.4
				c-1.7-0.3-3.3-0.6-5-0.9c-0.4,0-0.7-0.1-1.1-0.1c-2.9-0.3-5.1-0.1-6.6,0.3c-2.6,0.1-5-0.6-7.2-1.9c-0.7-0.9-1.4-1.4-1.9-1.3
				c-0.5,0.1-1,0.6-1.4,1.4c-0.2,0.3-0.4,0.6-0.5,0.8c-0.7-0.4-1.9-0.7-3.6-1.2c-1.7-0.4-3.2-0.7-4.7-0.8c-1.5-0.1-2.8,0.1-3.8,0.6
				c-0.7,0.2-1.6,0.2-2.5,0c-0.9-0.2-1.7-0.6-2.5-1.3c-0.4-0.3-0.8-0.5-1.4-0.5s-1-0.2-1.4-0.5c-0.7-2.4-0.4-5.5,1.1-9.5
				c1.7-7.1,3.3-14.3,5-21.5c1.8-5.7,3.3-10.6,4.4-14.6c0.4-1.1,0.7-2.3,1.1-3.5c1.1-5.2,3.1-13,6-23.4c0.2-1.8,0.4-3.5,0.5-5.2
				c0.7-2,1.6-4.4,2.5-7.2c0.9-2.8,1.7-5.9,2.5-9.4c1.7-6.1,3.3-12.3,5-18.5c1.7-6.6,3.3-13.2,5-19.9c4-16.9,4.3-19.2,8.3-36.3
				c2.9-13.2,5.3-23,7.1-29.4c2.9-13.5,5.9-27,8.8-40.6c2.6-12.6,4.4-21.2,5.5-25.8c0.7-2.5,1.1-3.7,1.1-3.7
				S611.8,148.4,612.8,148.3z M569.9,412.2c3.3-12.4,6.6-24.8,9.9-37.4c-0.4,0-0.7,0-1.1-0.1c-3.3,12.4-6.6,24.7-9.9,36.9
				C569.2,411.9,569.5,412,569.9,412.2z M577,394.2c-1.1,4.4-2.2,8.7-3.3,13c0.4,0,0.7,0,1.1,0.1c1.1-4.2,2.2-8.4,3.3-12.6
				C577.8,394.5,577.4,394.3,577,394.2z M585.8,377c-0.2,0-0.4,0-0.5,0c-0.7,0.5-2.8,7.4-6,20.5c-3.3,13.1-4.8,20-4.4,20.9
				c0.4-0.7,0.7-1.4,1.1-2.1c2-7.4,4-14.7,6-22.2c1.1-3.8,2.4-8.7,3.8-14.9c0.4-0.3,0.5-0.6,0.3-1.1
				C585.9,377.6,585.8,377.3,585.8,377z M581.5,378.9c-1.1,3.8-2.2,7.5-3.3,11.3c0.4,0,0.7,0,1.1,0.1c0.9-3.8,1.8-7.6,2.8-11.4
				C581.8,379,581.6,378.9,581.5,378.9z M591.3,378.2c-0.2-0.2-0.4-0.3-0.5-0.5c-0.7,2.2-1.5,4.4-2.2,6.6c-2.9,11.1-5,19.2-6,24.5
				c-0.5,2.9-1.1,5.8-1.7,8.8c0.2,0.6,0.4,1.2,0.5,1.8c1.1-0.5,1.8-0.9,2.2-1.1c0.7-1.1,1.1-2.1,1.1-3c0.4-1.9,0.7-3.8,1.1-5.7
				c1.5-6.4,4-16,7.7-28.9c0-1.2,0.2-2.1,0.5-2.6c-0.4-0.2-0.7-0.3-1.1-0.5c-0.7,1.5-1.4,3.4-1.9,5.9c-0.5,2.5-1.2,4.6-1.9,6.4
				C589.9,386.8,590.6,382.9,591.3,378.2z M587.5,395.8c0.2,0,0.4,0,0.5,0c-1.3,5-2.6,9.9-3.8,14.8c-0.2,0-0.4,0-0.5,0
				C584.9,405.7,586.2,400.8,587.5,395.8z M588,332.5c0.4,0,0.7,0,1.1,0c0.5-2.7,1.1-5.3,1.7-8c-0.2,0-0.4,0-0.5,0
				C589.5,328.1,588.8,330.8,588,332.5z M592.4,333.1c2.2-10.4,4.4-20.8,6.6-31.2c-0.4,0-0.7,0-1.1,0c-2.2,10.4-4.4,20.8-6.6,31.2
				C591.7,333.1,592.1,333.1,592.4,333.1z M591.9,316.5c0.4,0,0.7,0,1.1,0c0-1.2,0.4-3.3,1.1-6.2c-0.4,0-0.7,0-1.1,0
				C593,311.5,592.6,313.6,591.9,316.5z M603.4,379c-0.4-0.2-0.7-0.4-1.1-0.5c0,0.3-0.4,0.7-1.1,1.3c0.7,0.6,0.9,1.3,0.5,2.1
				c-0.4,0.7-0.5,1.2-0.5,1.5c-0.7,3.7-1.5,7.4-2.2,11.1c-1.7,5.4-3.3,10.8-5,16.2c-0.7,1.7-1.1,3-1.1,3.9c0,0.9,0.4,2,1.1,3.2
				C598.8,398.5,602,385.5,603.4,379z M595.7,305.4c0.5-3,1.1-6,1.7-9c-0.2-0.1-0.4-0.3-0.5-0.5c-0.7,3.1-1.5,6.3-2.2,9.4
				C595,305.4,595.4,305.4,595.7,305.4z M627.1,192.2c-1.5,1.9-8,29-19.5,79.5c-11.5,50.4-13,60.7-11.9,62
				C611.1,269.1,619.1,231.1,627.1,192.2z M600.7,415.2c0.2,0.2,0.4,0.3,0.5,0.5c-1.1,3.2-1.8,5.2-2.2,6.1c0,0.6-0.5,0.9-1.7,0.8
				c-0.2-0.2-0.4-0.3-0.5-0.5c0-0.3,0.4-0.7,1.1-1.2c0.7-1.1,1.5-2.3,2.2-3.4C600.1,416.5,600.3,415.8,600.7,415.2z M614.4,276.7
				c-0.4-0.6-0.7-1.2-1.1-1.8c-0.2,0.9-0.4,1.8-0.5,2.7c-0.9,3-1.8,6-2.8,9c-0.7,2.3-1.5,4.5-2.2,6.8c-0.7,2.4-1.5,6.6-2.2,12.6
				c-1.1,3.3-2.4,8.2-3.8,14.8c-0.5,2.4-1.1,4.8-1.7,7.1c-0.2,1.5-0.4,3-0.5,4.5c0,0.9,0.4,1.4,1.1,1.4c2.2,0.1,3.5-0.8,3.8-2.6
				c0.4-3,1.3-7.8,2.8-14.4c3.7-16.3,7.3-32.7,11-49.3c0.7-3.5-2.3,7.7-1.6,4.2c4.4-18.7,8.8-37.7,13.2-56.8c0-1.2,0.4-3.1,1.1-5.6
				c-0.4,0-0.5-0.1-0.5-0.4c-0.9,3.3-1.8,6.5-2.8,9.8c-0.2,0-0.4,0-0.5,0c1.5-7.1,2.4-11.9,2.8-14.4c-0.2,0-0.4,0-0.5,0
				c-0.4,0.3-0.5,0.8-0.5,1.4c-0.4,2.2-0.9,4.6-1.7,7.2c-0.7,2.6-1.3,5.5-1.7,8.6c-0.4,2.5-0.7,5-1.1,7.6c-0.4,2.6-0.7,5.1-1.1,7.6
				c-0.7,3.5-1.5,7.1-2.2,10.6c-1.7,6.8-3.3,13.5-4.9,20.2c-1.7,7.8,0.5,0.9-1.2,8.6c0,0.3-0.1,0.5-0.3,0.5
				C614.5,276.7,614.4,276.7,614.4,276.7z M600.7,277.2c0.2,0,0.4,0,0.5,0c1.5-3.6-1,6.8,0.1,1.8c1.1-5,1.5-8.1,1.1-9.3
				C601,274.9,602.9,267.6,600.7,277.2z M617.2,288.1c-1.1,4.1-2.2,8.2-3.3,12.2c0.4-3,1.3-7.5,2.8-13.6c2.8-12.6,1.7-10.5,4.5-23.2
				c3.7-15.8,7.3-31.6,11-47.7c0-1.1,0-2.1,0-3.2c-0.4,0-0.7,0-1.1,0.1c-0.5,2.6-1.1,5.3-1.7,7.9c-2.9,14.9-5.3,26.1-7.1,33.8
				c-1.7,6.6-3.3,13.2-4.9,19.7c-1.5,6.1-0.1,2.7-3.4,19c-2.9,12.7-5.9,25.3-8.8,37.8c0,0.9,0,1.8,0,2.7c0.2,0,0.4,0,0.5,0
				c0.9-3.1,1.8-6.2,2.8-9.4c-0.4,1.5-0.5,3.9-0.5,7.2c3.3-14.3,6.6-28.8,9.9-43.3C617.5,288.1,617.3,288.1,617.2,288.1z
				 M604.6,262.5c0.5-2,1.1-3.9,1.7-5.9c-0.2-0.1-0.4-0.3-0.5-0.4c-0.5,2.1-1.1,4.2-1.7,6.4C604.2,262.5,604.4,262.5,604.6,262.5z
				 M626,276.2c-1.1,0.9-1.8,2.3-2.2,4.1c-0.4,1.8-0.9,3.2-1.7,4.1c-1.1,1.2-1.7,3.5-1.7,6.8c-0.4,1.2-0.5,2.2-0.3,3
				c0.2,0.8,0.3,1.3,0.3,1.6c0,0.6-0.4,1.4-1.1,2.5c-0.7,1.1-1.1,1.9-1.1,2.5c-1.8,5.7-3.8,14.3-6,25.7c0.7,0,1.2,0.3,1.4,0.7
				c0.2,0.5,0.1,1.1-0.3,2c-0.4,1.4-0.7,2.7-1.1,4c0.4,0,0.7,0,1.1,0C618.8,312.4,623,293.3,626,276.2z M609.6,256.9
				c5.5-23.3,11-46.8,16.5-70.6c-1.1,0.7-4.2,12.3-9.3,34.4C611.6,242.9,609.2,254.8,609.6,256.9z M619.4,340
				c15.4,0.9,23.4-0.2,38.8,0.8c-1.5-0.4-5.3-1-11.5-1.7c-6.2-0.8-12.5-1.3-18.7-1.5C618.8,337.2,620.8,339.5,619.4,340z
				 M616.2,255.9c0.4,0.1,0.7,0.3,1.1,0.4c1.1-5.2,2.2-10.4,3.3-15.6c-0.2,0-0.4,0-0.5,0C618.9,244.1,617.6,249.1,616.2,255.9z
				 M636.5,255.3c-0.9,3.6-1.8,7.1-2.7,10.7c0-0.9-0.2-1.5-0.5-1.8c-0.2,0-0.4,0-0.5,0c-1.1,4.9-2.2,9.9-3.3,14.8c0.4,0,0.7,0,1.1,0
				c0-0.9,0.4-2.6,1.1-5.1c0.7-2.6,1.5-5.2,2.2-7.9c-0.2,1.4-0.4,2.8-0.5,4.2c-0.4,2.2-0.7,4.4-1.1,6.7c-0.4,2.3,3-10.1,2.7-8
				c-1.1,4.1-2.2,8.3-3.3,12.4c-1.1,4.6-2.2,9.2-3.3,13.7c-1.8,8.5-2.9,13.2-3.3,14.1c-0.4,0.6-0.5,1.4-0.5,2.3
				c-0.7,3.6-1.5,7.3-2.2,10.9c-0.7,3.9-1.5,7.9-2.2,11.8c2,0.1,4,0.1,6,0.2c7.1,0.3,6.9-1.6,14.1-1.3c4.8,0.4,9.5,0.7,14.3,1.1
				c2.2,0.1,3.3-1,3.3-3.1c0.4-0.3,0.5-0.6,0.3-0.9c-0.2-0.3-0.3-0.6-0.3-1c-0.7-2.1-1.5-4.1-2.2-6.2c-0.5-3.3-1.1-6.6-1.6-9.9
				c-0.4-4.1-1.3-9.1-2.7-15.1c-1.5-4.1,0.7,6-0.8-3.3c-2.2-10-4.4-19.9-6.6-29.7c-1.1-5.5-2.2-11.1-3.3-16.6c0-0.6-0.4-1.5-1.1-2.7
				c-0.7,0.6-1.1,1.1-1.1,1.4C637.6,249.7,637,252.5,636.5,255.3z M623.3,227.8c-0.2,0-0.4,0-0.5,0c-0.5,2.2-1.1,4.3-1.6,6.5
				c0.4,0.1,0.7,0.3,1.1,0.4C622.2,233.1,622.5,230.8,623.3,227.8z M627.7,197.7c-1.8,8.4-3.7,16.7-5.5,25.1
				c0.4,0.1,0.7,0.3,1.1,0.4c1.8-8,3.7-16.1,5.5-24.2c0.4-0.3,0.5-0.6,0.3-0.7c-0.2-0.1-0.3-0.4-0.3-0.7
				C628.4,197.7,628,197.7,627.7,197.7z M622.2,278.6c0,0.9,3.8-12.8,3.8-11.9c0.2,0,0.4,0,0.5,0c0.4-0.3-3,14-2.7,13.7
				c0.9-3.4,1.8-6.7,2.8-10.1c5.1-20.6,8.2-34,9.3-39.9c-1.3,2.7-2.6,5.3-3.8,8c-0.5,2.5-1.1,4.9-1.6,7.4
				C627.7,256.8,624.9,267.7,622.2,278.6z M627.6,272.6c-0.2,1.8-0.4,3.7-0.5,5.5c0.2,0,0.4,0,0.5,0c0.4-1.8,0.7-3.7,1.1-5.5
				C628.3,272.6,628,272.6,627.6,272.6z M634.8,260c0.5-2.9,1.1-5.9,1.7-8.8c-0.4,0-0.5-0.1-0.5-0.4c-0.7,2.2-1.5,5.1-2.2,8.8
				C634.1,259.7,634.5,259.8,634.8,260z M659.8,351.7c0-0.5,0-0.9,0-1.4c-2.2-0.4-5.7-0.8-10.4-1c-6.6-0.4-11.5-0.5-14.8-0.3
				c1.1,0.4,2.5,0.6,4.4,0.7c0.7,0,1.5,0.1,2.2,0.1c1.1,0.1,2.9,0.2,5.5,0.3c2.5,0.1,4.7,0.4,6.6,0.8
				C654.7,351.3,656.8,351.6,659.8,351.7z M644.7,244.4c0.4-1.6,0.3-3.2-0.3-4.9c-0.5-1.7-1.2-2.7-1.9-2.9
				C643.2,240.2,644,242.9,644.7,244.4z M639.5,342.7c0,0.1,0,0.3,0,0.5c6.2,0.3,12.4,0.6,18.7,0.9c-1.8-0.7-4.9-1.2-9.3-1.4
				C644.8,342.5,641.7,342.5,639.5,342.7z M650.7,246.5c-1.8-9.3-3.7-18.5-5.5-27.7c-0.2,0-0.4,0-0.5,0c-0.7,1.9-1.1,3.5-1.1,4.7
				c0,1.2,0.2,2.3,0.5,3.2c1.1,4,2.5,8.7,4.4,14.2c0.5,1.8,1.1,3.7,1.7,5.5C650.4,246.5,650.5,246.5,650.7,246.5z M646.3,213.1
				c-0.2,0-0.4,0-0.5,0c-0.7,0.7-0.2,4.6,1.7,11.8c1.8,7.2,3.3,11.4,4.4,12.6C650.7,233.3,648.9,225.1,646.3,213.1z M645.8,248.5
				c4,21.9,6.7,32.4,15.1,66c0.7,4.1,2.2,10.3,4.4,18.6c-2.2-14.3-2.7-15.4-8.5-36.7c-1.1-3.8-2.8-10.6-5.2-20.6
				C649.2,266,647.2,256.8,645.8,248.5z M656.8,243c-0.4-0.3-0.5-0.8-0.5-1.4c-0.4-0.9-0.7-2.1-1.1-3.5c-0.4-1.4-0.5-3-0.5-4.9
				c-0.4-4.4-0.7-8.7-1.1-13.1c0-1.2-0.4-3.4-1.1-6.5c0.2,0,0.4,0,0.5,0c0.7,2.1,1.5,5.4,2.2,9.7c2.2,8,3.7,14.7,4.4,20
				c1.5,6.7,2.9,13.4,4.4,20.1c4.4,18.1,5.2,19.6,9.6,38.1c2.2,8.8,4.4,17.6,6.6,26.5c0.2,0.6,0.4,1.3,0.5,1.9c0.2,0,0.4,0,0.5,0
				c-11.5-52.6-19.5-86.9-31-136.7c-1.1,1.9-1.3,4.1-0.5,6.6c0.7,2.4,1.1,4.4,1.1,6c0,0.3,0,0.6,0,0.9c-0.5-2.1-1.1-4.3-1.7-6.4
				c-0.4,0.2-0.7,0.4-1.1,0.6c-0.7,3.2-1.1,5.8-1.1,8c1.3,5.4,2.6,10.7,3.8,16.1c0,0.6,0.4,1.2,1.1,1.8c0.2,1.2,0.4,2.5,0.5,3.7
				C653.1,235.5,654.6,239.6,656.8,243z M666.1,245c0-1.3,0-2.5,0-3.8c0.5,1.6,1.1,3.1,1.7,4.7c1.3,5.6,2.6,11.3,3.8,16.9
				c1.5,7.6,4,18.9,7.7,34.2c3.8,17,4.1,17.4,7.9,34.7c0.4,1,0.7,2,1.1,2.9c0.5,0.5,1.1,1,1.6,1.5c0.4-0.1,0.7-0.3,1.1-0.4
				c-2.7-12.2-5.5-24.3-8.2-36.4c-5.5-21.2-6.1-23.1-9-39.5c0.4,1.1,0.7,2.2,1.1,3.3c0.5,0.5,1.1,0.9,1.7,1.4
				c0.2-0.8,0.4-1.6,0.5-2.4c-0.5-2.2-1.1-4.4-1.6-6.6c-0.5-3-1.1-6-1.7-9c-0.2-0.6-0.4-1.2-0.5-1.9c-0.2,0-0.4,0-0.5,0
				c0.7,3.1,1.1,5.5,1.1,7.1c0.4,0.3,0.2,0.9-0.5,1.9c-0.5-0.6-1.1-1.2-1.6-1.8c-0.9-4.7-1.8-9.4-2.7-14.1c-0.5-2.3-1.1-4.7-1.6-7
				c0.4,0,0.7,0,1.1-0.1c1.5,2.8,2.4,5.3,2.7,7.4c0-3.2-0.2-5.9-0.5-8.3c-0.4-2.4-0.7-4.5-1.1-6.3c-0.5-3.3-1.1-6.6-1.6-9.8
				c0.2,0.9,0.4,1.9,0.5,2.8c2.2,7.4,4.6,17.4,7.1,30c0,1.3,0.2,2.3,0.5,3.1c0.4,0.8,0.7,1.5,1.1,2.1c0.2,0,0.4,0,0.5,0
				c-6.6-31.6-13.2-62.6-19.7-93.2c-0.4,0.2-0.7,0.4-1.1,0.6c1.5,7,2.9,14.1,4.4,21.2c-0.2,0-0.4,0-0.5,0.1
				c-0.7-2.4-1.4-5.5-1.9-9.2c-0.5-3.7-1.4-6.8-2.5-9.1c-0.4,0-0.7,0.1-1.1,0.1c0.5,5.2,1.1,10.5,1.7,15.8c-0.2,0-0.4,0-0.5,0.1
				c-0.5-1.7-1.1-3.3-1.7-5c-0.4,0-0.7,0.1-1.1,0.1c-0.2,1.7-0.4,3.5-0.5,5.2c0,0.3,0.1,0.6,0.3,0.9c0.2,0.3,0.1,0.5-0.3,0.5
				c-1.1,1.3-1.5,2.7-1.1,4.1c0.4,1.4,0.5,2.2,0.5,2.5c3.7,16.5,6.6,29,8.8,37.4c0.4,2.8,0.9,5.4,1.6,7.7c0.7,2.3,1.3,4.3,1.7,5.8
				c0.4,2.7,0.7,5.3,1.1,8C665.7,245,665.9,245,666.1,245z M659.2,347.5c0.2-0.1,0.4-0.3,0.5-0.4c-3.1-0.2-6.2-0.3-9.3-0.5
				c0,0.2,0,0.3,0,0.5c1.1,0.4,2.7,0.6,4.9,0.7C657.2,347.8,658.5,347.7,659.2,347.5z M659,244.8c-1.3-5.6-2.6-11.2-3.8-16.7
				c0,0.3-0.2,0.5-0.5,0.5c1.5,6.5,2.7,11.9,3.8,16.2C658.6,244.8,658.8,244.8,659,244.8z M658.4,189.4c-0.4-2-0.7-4-1.1-6
				c1.1,0.5,1.6,1.2,1.7,2C659,186.1,658.8,187.5,658.4,189.4z M660.1,158.7c-0.4,0-0.7,0.1-1.1,0.1c1.5,4.2,2.7,9.6,3.8,16.1
				c0.4,0,0.7-0.1,1.1-0.1c-0.7-2.8-1.4-5.4-1.9-8.1C661.4,164.1,660.8,161.4,660.1,158.7z M666.1,219.9c-1.8-4-3.2-8.8-4.1-14.4
				c-0.9-5.6-1.7-9.9-2.5-13c1.8,3.9,3.2,8.7,4.1,14.3C664.5,212.5,665.3,216.8,666.1,219.9z M661.7,219.2
				c1.5,7.3,2.9,14.6,4.4,21.9c-0.5-1.4-1.1-2.8-1.6-4.2c-1.5-6.9-2.4-11.8-2.7-14.9c-0.4-0.6-0.5-1.5-0.5-2.8
				C661.3,219.3,661.5,219.3,661.7,219.2z M663.3,192.3c-0.4,0-0.7,0.1-1.1,0.1c-0.2-2-0.4-4.1-0.5-6.1c0.2,0,0.4,0,0.5,0
				C662.2,187.8,662.6,189.8,663.3,192.3z M667.7,213.7c-1.1-3.7-2.2-7.4-3.3-11.1c0.4,0,0.7-0.1,1.1-0.1
				C666.3,206.2,667,210,667.7,213.7z M680.3,252.1c-5.1-24.5-10.2-48.7-15.3-72.6c-0.7,2,1.2,13.5,5.8,35
				C675.3,236,678.5,248.6,680.3,252.1z M681.4,259.7c0.5,3.2,1.1,6.4,1.7,9.5c0.4,0,0.7,0,1.1,0c-0.5-3.2-1.1-6.4-1.7-9.5
				C682.2,259.6,681.8,259.7,681.4,259.7z M686.6,301.8c-0.7-2.3-1.5-4.5-2.2-6.8c-0.2,0.2-0.4,0.3-0.5,0.5c0.5,2.2,1.1,4.5,1.6,6.8
				C685.9,302.1,686.3,302,686.6,301.8z M694.3,327.7c0.4,1.8,0.7,3.6,1.1,5.4c0.2,0,0.4,0,0.5,0c0-1.3-0.4-3.2-1.1-5.9
				C694.8,327.5,694.7,327.7,694.3,327.7z M702,337.7c0.5,0,1.1,0.1,1.6,0.1c-1.5-5.1-2.9-10.2-4.4-15.3c-0.4,0-0.5,0.1-0.5,0.5
				c0.4,1.6,0.7,3.7,1.1,6.1c0.4,2.5,0.5,3.7,0.5,3.7C700.3,332.8,700.9,334.4,702,337.7z M710.7,432c0.4-2.2-1-10.8-4.1-25.5
				c-3.1-14.7-5.2-22.3-6.3-23.1c-0.4,1.3,0.8,8.5,3.6,21.8C706.6,418.6,708.9,427.5,710.7,432z M708.5,361.1
				c-0.4-1.3-0.7-2.7-1.1-4c-0.4,0-0.7,0-1.1-0.1c0.7,2,1.1,3.5,1.1,4.5C707.8,361.4,708.2,361.3,708.5,361.1z M709.1,369
				c0.4,1.5,0.7,3,1.1,4.5c0.2,0,0.4,0,0.5,0c-0.2-1.5-0.4-3-0.5-4.5C709.8,369.1,709.5,369,709.1,369z M711.8,375.6
				c-0.7-0.1-1.1,0.1-1.1,0.4c1.6,6.9,3.3,13.7,4.9,20.6c0.2,0,0.4,0,0.5,0.1C714,387.3,712.6,380.3,711.8,375.6z M721.7,405.2
				c-0.7-0.1-1.1,0-1.1,0.4c0.4,1.5,0.7,3.1,1.1,4.6c0.4,0,0.7,0.1,1.1,0.1C722,408.2,721.7,406.6,721.7,405.2z"/>
		</g>
		<g>
			<path class="st1" d="M209.3,375.9c0.3,0.3,0.6,0.6,0.8,0.9c-0.8,0.8-1.7,1.6-2.5,2.4c-1.7,0.1-3.1,0-4.2-0.1
				c-0.3,0-0.5-0.1-0.6-0.5c-0.1-0.3-0.5-0.6-1.1-0.8c0.3,0,0.4-0.1,0.4-0.4c0.4,0.2,0.9,0.4,1.3,0.6c0.3,0,0.8-0.3,1.7-0.9
				s0.6-1.3-0.8-2.1c1.1,0,1.8-0.2,2.1-0.6s0.4-0.8,0.4-1.5c0-3.7,0.1-6.5,0.4-8.5c0-1.3,0-2.6,0-3.9c0-5.9,0-11.8,0-17.6
				c0-18.8-0.1-16.3-0.4-25.4c0-11.8-0.1-20.5-0.4-26.2c-0.4-14.7-0.8-29.4-1.3-44.2c0.1-3.8,0.3-7.6,0.4-11.4
				c0-0.9-0.1-1.6-0.4-2.3c-0.1,0.3-0.3,0.6-0.4,1c-0.6,3.9-0.8,6.9-0.8,8.8c0,4.6,0.3,11.7,0.8,21.3c0,2-0.1,4.4-0.2,7.4
				c-0.1,2.9-0.1,6.3,0.2,10c0.1,8,0.3,15.9,0.4,23.9c0.3,4.8,0.4,12,0.4,21.6c-0.1,5.6-0.3-5.3-0.4,0.3c0.1,4.8,0.3,9.6,0.4,14.4
				c0,6.6,0,13.3,0,20c0,2.4,0.1,4.2,0.4,5.5c0.3,1.1-0.1,2.1-1.1,3.1c-1,1-2.2,2-3.6,2.9c-0.3-0.1-0.6-0.2-0.9-0.3
				c-0.1-1-0.3-2-0.4-2.9c0.9,0.2,1.5,0.2,1.9,0.1s0.6-0.6,0.6-1.5c0-0.9,0.3-2,0.9-3.3c0-0.5,0-1.1,0-1.6c-0.1-0.1-0.3-0.2-0.4-0.3
				c-0.6,1.8-1.1,3.5-1.7,5.3c-0.6,0-1.1,0-1.7,0.1c0.4-2.6,0.8-5.3,1.3-7.9c0.3,0.1,0.6,0.2,0.9,0.3c1.1-0.9,1.7-1.9,1.7-3
				c-0.1-0.8-0.3-1.5-0.4-2.3c-0.3-1.5-0.4-3.7-0.4-6.5c0.1-0.1,0.3-0.2,0.4-0.3c0.1,0.4,0.3,0.9,0.4,1.3c0.1-0.2,0.3-0.5,0.4-0.7
				c0.1-4.3,0.3-8.5,0.4-12.8c0-0.6-0.1-1.2-0.4-1.6s-0.6-0.9-0.9-1.3c0-0.2-0.1-0.6-0.4-1.1s-0.3-0.9,0-1.1
				c0.3-0.9,0.4-2.1,0.4-3.6c0-2-0.1-3.9-0.4-5.7s-0.4-3.6-0.4-5.4c0.3-2.4,0.4,11.9,0.2,10c-0.1-1.9-0.2-3.4-0.2-4.8
				c0-0.4-0.1-0.8-0.4-1c-0.1,0-0.3,0-0.4,0c0,9.5,0,2.6,0,12.1c-0.1,0-0.3,0-0.4,0c0-3.6,0-7.2,0-10.8c0-4.4-0.1,8.8-0.4,6.6
				c0.1-0.9,0.3-1.8,0.4-2.6c-0.1-2.1-0.3-4.1-0.4-6.2c0.1-1.6,0.3-3.3,0.4-4.9c0-2-0.3-4.9-0.8-8.9c0.1-0.9,0.3-1.8,0.4-2.6
				c0-0.2,0-0.4,0-0.6c-0.1-4.8-0.3-9.6-0.4-14.4c-0.3-1.5-0.4-4-0.4-7.5c-0.6-3.9-0.9-6.8-0.9-8.5c0-2.4,0.1-4.3,0.4-5.6
				c0.1-1.6,0.3-3.3,0.4-4.9c0.4,0.4,0.8,0.9,1.3,1.3c0-16.7,0-33.4,0-50.2c-0.3,0.4-0.6,0.9-0.8,1.3c-0.1-0.1-0.3-0.2-0.4-0.3
				c0-2.8,0-5.7,0-8.5c0-0.2-0.1-0.3-0.4-0.3c-0.3,0.4-0.6,0.9-0.8,1.3c-0.6-0.2-1.1-0.5-1.7-0.7c-0.1,0.6-0.3,1.3-0.4,2
				c0,3.9,0,7.9,0,11.8c0,8.1,0.1,14.1,0.4,18.1c0,4.8,0,9.6,0,14.4c0,0.7,0,1.3,0,2c0,7,0,14,0,21c0.1,3.3,0.3,6.6,0.4,9.9
				c0.3,2.2,0.4,5.5,0.4,9.9c0,6.8,0,13.6,0,20.4c0,12.9,0,9.4,0,22.3c-0.3,5.9-0.4,14.8-0.4,26.6c0,0.4,0,0.9,0,1.3
				c0.6,0.9,0.6,2.1,0,3.6c-0.6,1.1-0.4,1.9,0.4,2.3c0.6,0.2,0.9,0.6,0.8,1.3c0,0.7-0.3,1-0.8,1c-0.3,0.2-0.9,0.1-1.7-0.2
				c-0.4-0.6-0.8-1.3-1.3-1.9c0-0.4,0-0.9,0-1.3c0-0.7,0.1-1.2,0.4-1.7c-1.4,0.1-2.3,0.2-2.5,0.4c-0.7,0.4-1.4,0.7-2.1,1.1
				c-0.3-0.3-0.6-0.6-0.8-1c0,1.1,0,2.2,0,3.3c0,0.2-0.1,0.3-0.4,0.4c-0.4-1.7-0.8-3.5-1.3-5.2c0-4.7,0-9.5,0-14.2
				c0.1-5.2,0.3-10.4,0.4-15.5c-0.1-5.3-0.3-10.5-0.4-15.8c0.1-5.9,0.3,4.5,0.4-1.4c-0.1-3.9-0.3-7.7-0.4-11.5c0-8,0-16.1,0-24.1
				c0-8.6,0-17.2,0-25.7c0-6.3,0-12.5,0-18.8c0.3-13.1,0.6-26.1,0.8-39.2c-0.1-3.3-0.3-6.6-0.4-9.9c-0.3-1.1-0.1-2.5,0.4-4.3
				c0.3-0.4,1.1-1.1,2.5-2.2c1.3,0.1,2.5,0.1,3.8,0.2c0.6,0.5,1.1,0.9,1.7,1.4c0-0.9,0-1.8,0-2.6c-0.3-0.2-0.7-0.4-1.3-0.4
				c0.6,0,1.4-0.1,2.5-0.4s2.1-0.4,2.9-0.3c0.9,0,1.5,0.2,2.1,0.4c0.8-0.8,1.6-0.9,2.3-0.4c0.7,0.6,1.2,1,1.5,1.2
				c0.8-0.2,2-0.2,3.4-0.2c1.4,0.1,2.7,0.4,3.8,0.8c1.7,0.7,2.7,1,3,0.8c1.1-0.2,2.2,0.1,3.4,0.8c-0.4,0.7-0.8,1.5-1.3,2.2
				c-0.6,0-1.1-0.1-1.7-0.1c0.1,0.4,0.3,0.9,0.4,1.3c2.2,0.1,3.4-0.6,3.4-2.1c0-0.2,0-0.4,0-0.6c0.1,0,0.3,0,0.4,0
				c0.3,0.4,0.7,0.9,1.3,1.4c0.6,0.5,1.1,1,1.7,1.7c0.8-1.1,1.7-2.1,2.5-3.1c1.1,0.5,1.7,1.3,1.7,2.3c0.1,2.1,0.3,4.1,0.4,6.2
				c0.1,2.7,0.3,5.4,0.4,8.1c0,5,0,9.9,0,14.9c0,7.7,0,15.3,0,23c0,7.1,0,14.2,0,21.4c-0.1,3.5-0.3,6.9-0.4,10.4c0.1,4,0.3,8,0.4,12
				c0,9.5-0.1,16.6-0.4,21.4c0,6.7,0,13.4,0,20.1c-0.1,4-0.3-8.4-0.4-4.4c-0.3,2.4-0.4,4.4-0.2,6.2c0.1,1.7,0.2,3.2,0.2,4.5
				c-0.1,5.3-0.3,10.6-0.4,15.9c-0.3,2.2-0.4,4.1-0.2,5.7c0.1,1.6,0.2,3,0.2,4c-0.1,3.9-0.3,7.8-0.4,11.7c0,1.3-0.7,2.7-2.1,4.3
				c-0.3-0.2-0.4-0.7-0.2-1.5c0.1-0.8-0.2-1.2-1.1-1.4c0,1.1-0.1,1.9-0.4,2.3c0,0.9-0.4,1.5-1.3,2c-0.7,0.6-1.4,1.1-2.1,1.7
				c-0.8-0.2-1.7-0.4-2.5-0.5c-1.1-0.3-2.2-0.6-3.4-0.8c-0.4,1.1-0.8,2.2-1.3,3.3c-0.7-0.7-1.4-1.5-2.1-2.2
				c-0.4,0.2-0.8,0.5-1.3,0.7c0-0.5,0-1.1,0-1.6c0.4-1.4,0.8-2.9,1.3-4.3c0-0.8,0-1.5,0-2.3c-0.3,0-0.6,0-0.8,0
				C210.2,372.2,209.8,374.1,209.3,375.9z M192.9,286.1c0-1.9,0-3.7,0-5.6c-0.6-6.6-0.8-11.5-0.8-14.8c0-8.3,0.3-20.9,0.8-37.5
				c-0.1-3.3-0.3-6.6-0.4-9.9c0-1.8,0-3.5,0-5.3c-0.1-1.6-0.3-3.3-0.4-5c-0.3,0-0.6,0-0.8,0c0.3,4.2,0.4,10.7,0.4,19.4
				c0,6.5,0,12.9,0,19.4C191.6,259.9,192,273,192.9,286.1z M192.9,374.7c-0.3-1-0.6-2-0.8-2.9C193.4,372.6,193.7,373.6,192.9,374.7z
				 M195,357.2c-0.4,1.1-0.9,2.2-1.3,3.3c-0.1-0.2-0.3-0.4-0.4-0.6c-0.3,1.4-0.6,2.9-0.8,4.3c0.1,0,0.3,0,0.4,0
				c0.3-0.2,0.4-0.7,0.4-1.3c0.3,0.1,0.6,0.2,0.8,0.3c0,1,0,2,0,3c0.1,0,0.3,0,0.4,0c0.6-1.1,0.8-2.8,0.8-5
				C195.4,359.4,195.3,358.1,195,357.2c0.1-0.9,0.3-1.8,0.4-2.6c0.1-4.9,0.3-9.9,0.4-14.8c-0.1-12.2-0.3-7.9-0.4-20.1
				c-0.1-10.2-0.3-20.4-0.4-30.6c0-1.1-0.1-1.9-0.4-2.3c-0.3,0-0.4,0.1-0.4,0.3c0,6.4,0,12.7,0,19.1c0,2.4,0,4.8,0,7.2
				c0.1,6.2,0.3-3.9,0.4,2.3c-0.1,4.1-0.3,8.1-0.4,12.2c-0.4,3.3-0.8,6.6-1.3,9.9c0,4.6-0.1,8.1-0.4,10.5c0,2.9,0.7,5.7,2.1,8.5
				c0,0.2,0,0.3,0,0.3C194.6,357.2,194.7,357.2,195,357.2z M193.3,320.4c0-16.2,0-16.1,0-32.3c-0.3,0-0.6,0-0.8,0c0,0.8,0,1.5,0,2.3
				c0.1,12.7,0.3,25.5,0.4,38.2c0,3.7,0-10.8,0-10.8S193,318.6,193.3,320.4z M193.7,230.9c0,10.3,0,20.6,0,30.9c0.1,0,0.3,0,0.4,0
				c0-10.3,0-20.6,0-30.9C194,230.9,193.9,230.9,193.7,230.9z M193.7,265.4c0,2.1,0,4.2,0,6.2c0.1,0,0.3,0,0.4,0c0-2.1,0-4.2,0-6.2
				C194,265.4,193.9,265.4,193.7,265.4z M194.1,344.1c-0.1,0-0.3,0-0.4,0c0-3.1,0-6.1,0-9.2c0.1,0,0.3,0,0.4,0
				C194.1,337.9,194.1,341,194.1,344.1z M198.4,187c0.3-0.9,0.6-1.7,0.8-2.6c-1.4,0.8-2,1.5-1.9,2.2s1.3,1.6,3.6,2.8
				C200.9,188.4,200.1,187.5,198.4,187z M199.2,251.7c-0.3,0-0.6,0-0.8,0c-0.1-11.6-0.3-23.2-0.4-34.8c0-0.7,0.1-1.2,0.4-1.6
				c0.1,0,0.3,0,0.4,0c0,1.5,0.2,4.2,0.6,8.1s0.5,7.3,0.2,10.4c0,1.5,0.1,4.1,0.2,7.9C200,245.3,199.8,248.7,199.2,251.7z
				 M200.9,280.9c0.3,11.5,0.6,23,0.9,34.4c0.1,0,0.3,0,0.4,0c0.3-5.2,0.1-12.9-0.4-22.9C201.2,287.1,200.9,283.3,200.9,280.9z
				 M201.3,359.2c-0.1,0-0.3,0-0.4,0c0-2.7,0-5.5,0-8.2c0.1,0,0.3,0,0.4,0C201.3,353.8,201.3,356.5,201.3,359.2z M202.6,187.2
				c0.8,0,1.7,0.1,2.5,0.1c0.3,0,0.7-0.1,1.3-0.3c0.6-0.2,0.7-0.5,0.4-1c-0.3-0.2-1.1-0.7-2.5-1.4c-0.1,0.3-0.3,0.6-0.4,1
				c-0.8,0-1.4-0.2-1.7-0.4C202.2,186.1,202.3,186.8,202.6,187.2z M203,213.4c0-2.3,0-4.6,0-6.9c-0.1,0-0.3,0-0.4,0
				c0,2.3,0,4.6,0,6.9C202.7,213.4,202.9,213.4,203,213.4z M202.6,336.3c0.1,0,0.3,0,0.4,0c0,2.4,0,4.8,0,7.2c-0.1,0-0.3,0-0.4,0
				C202.6,341.1,202.6,338.7,202.6,336.3z M210.2,205.9c-0.3,0-0.6,0-0.8,0c0,1.8-0.1,3.9-0.4,6.4c-0.3,2.5-0.3,4.5,0,6
				c0.6,5.7,0.9,9.8,0.9,12.4c-0.1,2.8-0.3,5.6-0.4,8.5c0,1.7,0,3.5,0,5.2c0.6-2.6,0.8-6.5,0.8-11.7c-0.1-6.1-0.3-12.2-0.4-18.3
				C209.8,210.6,209.9,207.8,210.2,205.9z M209.8,301.9c0,15.1,0,13.9,0,29c0.1,0,0.3,0,0.4,0c0-15.1,0-13.9,0-29
				C210,301.9,209.9,301.9,209.8,301.9z M210.2,337.7c0,5.2,0,10.5,0,15.7c-0.1,0-0.3,0-0.4,0c0.6-7,0.8-12.2,0.8-15.7
				C210.5,337.7,210.3,337.7,210.2,337.7z M211.4,290.1c0,3.4,0,6.7,0,10.1c0.1,0,0.3,0,0.4,0C211.7,296.9,211.6,293.5,211.4,290.1z
				 M211.9,328.5c0-13.7,0-11,0-24.7c-0.1,0-0.3,0-0.4,0c0,13.7,0,11,0,24.7C211.6,328.5,211.7,328.5,211.9,328.5z M211.9,352.3
				c0-2.2,0-4.4,0-6.5c-0.1,0.1-0.3,0.2-0.4,0.3c0,2.1,0,4.1,0,6.2C211.6,352.4,211.7,352.4,211.9,352.3z M211.9,363.1
				c0-2,0-3.9,0-5.9c-0.1,0-0.3,0-0.4,0c0,2,0,3.9,0,5.9C211.6,363.1,211.7,363.1,211.9,363.1z M211.9,339.9c0-1.4,0-2.8,0-4.2
				C211.9,337.1,211.9,338.5,211.9,339.9z M218.2,371.7c0.3,0.9,0.4,2.3,0.4,4.2c1.1-0.7,1.6-1.3,1.5-1.7
				C219.9,373.8,219.3,372.9,218.2,371.7z"/>
		</g>
		<g>
			<path class="st1" d="M331.3,307.3c0.2,0,0.5,0,0.7,0c1.5-3.4,2.9-6.8,4.4-10.2c0.5-1.2,1-2.5,1.5-3.6c0.5-1.2,1-2.3,1.5-3.4
				c1-2.1,2.9-6.8,5.8-14c0.5-1.1,1-2,1.5-2.7c0.1,0,0.2,0,0.4,0c0,0.9-0.1,1.6-0.4,2.1c-1.5,3.6-2.9,7.2-4.4,10.8
				c-1.9,4.9-3.9,9.7-5.8,14.5c-0.5,1.1-1.1,2.4-2,4c-0.9,1.6,2.7-7.3,2-5.2c-0.2,0.5-0.4,1.2-0.4,1.9c-1.1,2.6-2.2,5.2-3.3,7.8
				c-0.5,0.4-0.7,0.6-0.7,0.8c0.2,1.1,0,2.3-0.5,3.6c-0.6,1.4-1,2.3-1.3,2.8c-1.1,2.2-2.2,4.5-3.3,6.8c-0.5,0.9-1,1.7-1.5,2.4
				c-0.5,0.7-0.9,1.4-1.1,1.9c-0.1,0.1-0.2,0.2-0.4,0.3c-0.2,1.3-0.9,3.6-1.8,7c2.8,0,5.6,0,8.3,0c7.1-0.1,14.2-0.2,21.4-0.3
				c4.7,0,9.4,0,14.1,0c4.1-0.1,8.2-0.2,12.3-0.2c0.7,0,1.5,0,2.2,0c1.7,0.4,2.7,1,2.9,1.9c0.5,1.1,0.7,2.1,0.7,3
				c0,0.5-0.1,1-0.4,1.4c-0.2,0.4-0.3,0.7-0.2,1.1c0.1,0.4,0.2,0.7,0.2,1.1c0,0.5,0.1,1.1,0.4,1.8c0.2,0.6,0.4,1.2,0.4,1.8
				s-0.1,0.9-0.4,1.1c-0.5,0.7-0.7,2-0.7,3.8c0,1.6-0.2,2.9-0.7,3.8c-0.2,0.2-0.3,0.5-0.2,1.1c0.1,0.5,0.2,0.9,0.2,1.1
				c0.2,1.4,0.2,2.4,0,2.8c-0.2,0.5-1.3,0.9-3.3,1.2c-2.2,0.5-4.2,0.8-6.2,0.8c-0.7,0-2.1-0.2-4-0.5c-1.9-0.4-3.4-0.5-4.4-0.5
				c-1.7,0-3.7,0.2-6.2,0.5c-3.5,0.1-7,0.2-10.5,0.3c-1.3-0.1-2.7-0.2-4-0.3c-2.4,0.1-4.8,0.2-7.2,0.3c-3.9,0.2-7.2,0.3-10.1,0.2
				c-2.9-0.1-5.3-0.1-7.2-0.1c-1.5,0-3.3,0.1-5.4,0.2c-2.2,0.1-4.7,0.1-7.6-0.1c-1.6,0.1-3.1,0.2-4.7,0.3c-1.2,0-2-0.1-2.5-0.2
				c-1-0.4-2-0.3-3.3,0c-1.9,0.2-4.5,0.2-7.6,0c-3.1-0.2-5.7-0.3-7.6-0.3c-1.7,0-3,0-4-0.2c0.7-0.9,0.5-1.4-0.7-1.4
				c-1-1.2-1.5-2.5-1.5-3.8c0-1.6,0.7-3.9,2.2-6.8c3.4-8.2,6.8-16.4,10.1-24.5c2.9-5.8,5-10.1,6.2-13c2.5-6.5,0.7-2.2,3.3-8.7
				c0.2-0.9,0.7-1.9,1.5-3c0.7-1.1,1.3-2.1,1.8-3c1.2-2.7,2.8-6.8,4.7-12.2c1.5-3.3,2.9-6.7,4.4-10c1.7-4,3.4-7.9,5.1-11.9
				c1.9-4.7,3-7.3,3.3-7.8c3.1-7.2,6.3-14.4,9.4-21.5c0.2-0.9,0.6-1.8,1.1-2.7c0.5-0.9,1-2,1.5-3.2c-0.5-0.2-1.1-0.3-1.8-0.3
				c-1.5,0-3.3,0-5.6,0c-2.3,0-4.2-0.2-5.6-0.6c-1-0.2-1.8-0.2-2.5-0.2c-0.7,0.1-1.3,0.1-1.8,0.1c-3.9,0.3-6.8,0.5-8.7,0.5
				c-5.8-0.1-11.6-0.3-17.4-0.5c-4.1,0-8.2,0.1-12.3,0.1c-1.3-0.1-2.7-0.2-4-0.3c-0.2,0-0.4-0.1-0.5-0.3c-0.1-0.2-0.3-0.3-0.5-0.3
				c-0.5-0.5-1-0.9-1.5-1.4c0.5,0,0.7-0.3,0.7-0.8c-0.1,0-0.2,0-0.4,0c-0.2-0.5-0.5-0.9-0.7-1.4c-0.2-1.4,0-3.1,0.7-4.9
				c0.2-0.2,0.2-0.4,0-0.7c-0.2-0.3-0.5-0.6-0.7-1c0-0.6,0-1.3,0-1.9c0.2-0.2,0.5-0.4,0.7-0.5c0-0.9,0-1.8,0-2.7
				c-0.2-0.2-0.6-0.3-1.1-0.3c0.4-0.4,0.7-0.7,1.1-1.1c-0.4-0.2-0.7-0.4-1.1-0.6c1-0.2,1.5-1,1.5-2.4c0-0.7-0.1-1.3-0.4-1.6
				c0.8-0.6,1.7-1.2,2.5-1.9c-0.5,0-1,0-1.4,0c-0.1-0.2-0.2-0.4-0.4-0.6c0.5-0.2,1.1-0.4,1.8-0.8c0.7-0.3,1.6-0.6,2.5-0.8
				c4.4-0.5,8.7-0.6,13-0.6c3.6,0.1,6.4,0.2,8.3,0.4c2.7,0.1,5.3,0.3,8,0.4c2.4,0,6.5-0.1,12.3-0.4c10.6-0.2,18.7-0.4,24.3-0.4
				c3.9-0.2,7.2-0.2,10.1-0.1c2.9,0.1,5.3,0.1,7.2,0.1c2.9,0,5.8,0,8.7,0c2.9-0.4,5.1,0,6.5,1.1c0,0.4,0,0.9,0,1.4
				c0.5-0.1,1-0.2,1.5-0.3c0,0.6,0,1.3,0,1.9c1.2,0,2.4,0,3.6,0c-2.9,7.6-5.8,15.1-8.7,22.7c-3.1,7.4-6.3,14.7-9.4,22.1
				c-1,2.2-1.9,4.5-2.9,6.7c-2.9,6.8-5.3,11.9-7.2,15.4c-0.2-0.1-0.5-0.2-0.7-0.3c2.9-7.9,5.8-15.8,8.7-23.7c-0.2,0-0.5,0-0.7,0
				c-5.1,13.3-7.6,19.9-7.6,19.9C347.3,267.4,342,280.7,331.3,307.3z M277,204.2c2-0.1,4.1-0.3,6.1-0.4c-2,0-4.1-0.1-6.1-0.1
				C277,203.9,277,204.1,277,204.2z M332.8,211.6c1.1-0.1,2.2-0.2,3.3-0.2c0-0.2,0-0.4,0-0.5c-1.2,0-2.4,0-3.6,0
				c-6.4,0-12.8-0.1-19.2-0.1c-8.2,0-16.4,0-24.6,0c-2.8,0.2-5.5,0.5-8.3,0.7c-0.7,0-1.2,0.1-1.5,0.2c0.2,0.2,0.6,0.3,1.1,0.3
				c2.4-0.2,4.8-0.5,7.2-0.7c8.5,0.1,16.9,0.2,25.4,0.3C319.3,211.5,326,211.6,332.8,211.6z M334.6,228.1c-0.7-0.4-1.2-0.4-1.5,0
				c-0.2,0.4-0.4,0.6-0.4,0.8c-1.7,4.3-3.4,8.6-5.1,12.9c-1.9,4.8-3.9,9.5-5.8,14.3c-3.1,9.3-7.7,20.6-13.8,34
				c-1,2.2-2.9,6.8-5.8,14c-1.8,4.2,0.7-2.4-1.1,1.9c-0.7,2-1.7,4.2-2.9,6.8s-2.1,4.4-2.5,5.7c-2.2,5.3-4.4,10.7-6.5,16
				c0,0.5-0.1,1-0.4,1.4c-0.2,0.4-0.5,0.7-0.7,1.1c0.2,0,0.5,0,0.7,0c0.7-1.3,1.5-2.5,2.2-3.8c1.8-4.5,3.6-9.1,5.4-13.6
				c1.2-3,2.4-6,3.6-9c2.3-5,0.3,0.9,2.5-4.1c2.9-7.2,4.8-11.9,5.8-14c2.2-4.5,3.5-7.4,4-8.6c1.2-2.3,3.1-7.2,5.8-14.6
				c0.5-1.3,1.1-2.7,2-4.5c0.8-1.7,1.6-3.6,2.4-5.8c1.3-3.9,2.7-7.7,4-11.6c2-5,4.1-10.1,6.2-15.1
				C333,231.8,333.6,230.4,334.6,228.1z M335,214.6c-2.7-0.2-6.6-0.3-12-0.3c-6.3,0-10.9,0-13.8,0.2c-2.2,0-5,0-8.3,0.1
				c-3.4,0.1-7.2,0-11.6-0.3c1.5,0.2,9.4,0.4,23.9,0.5C327.2,214.8,334.5,214.8,335,214.6z M323,288.7c0.9-1.6,1.7-3.2,2.5-4.9
				c0.2,0.4,0.5,0.5,0.7,0.3c0.2-0.2,0.4-0.4,0.4-0.5c1-2.5,1.8-4.3,2.5-5.4c-0.2,0-0.4-0.1-0.4-0.3c-0.6,1.1-1.2,2.2-1.8,3.2
				c-0.5,0.9-1,1.8-1.5,2.7c0-0.4,0.2-1.1,0.7-2.2c1.8-4.7,3.6-9.3,5.4-14c1.9-4.3,3.9-9.3,5.8-15.1c1-2.5,1.9-5,2.9-7.5
				c1.2-3.9,2.4-7.7,3.6-11.6c-0.5,0.4-0.7,0.8-0.7,1.3c-1.3,3.6-2.7,7.2-4,10.8c-0.2,1.3-1,2.6-2.2,4c-0.2,0.4-0.7,1.3-1.5,2.7
				c0,0.4-0.1,1.1-0.4,2.1c-0.2,1.1-0.7,1.9-1.5,2.4c-0.7,0.7-1.3,1.9-1.8,3.5c-0.5,1.8-1,3.1-1.5,4c-0.1,0.4-0.2,0.7-0.4,1.1
				c-0.2,0-0.5,0-0.7,0c0.7-2.7,1.6-5,2.5-7c3.9-12.6,7.7-22.9,11.6-30.9c-0.2-0.1-0.5-0.2-0.7-0.3c-0.7,0.7-1.5,1.4-2.2,2.1
				c0.1-0.5,0.2-1.1,0.4-1.6c-1.2-0.2-2-0.2-2.4,0c-0.4,0.2-0.7,0.6-0.9,1.4c-1.2,3.1-4.2,10.8-9.1,23.1c-0.6,1.8-1.2,3.6-1.8,5.4
				c-1.9,5.4-3.5,9.4-4.7,12.1c-1.5,3.8-5,12-10.5,24.8c-1.8,4.6,0.7-1.6-1.1,3c-3.3,7.4-6.5,14.8-9.8,22.2c-1.7,3.4-3,6.5-4,9.1
				c-1,2.6-1.8,4.8-2.5,6.4c-0.2,0.2-0.3,0.3-0.2,0.4c0.1,0.1,0.2,0.2,0.2,0.4c0.7-0.2,1.5-0.4,2.2-0.6c0.6-0.3,1.2-0.5,1.8-0.8
				c1,0.4,1.8,0.5,2.5,0.5c1-0.2,1.7-0.6,2.2-1.4c0,0.3,0,0.5,0,0.8c1.9-3.3,3.3-5.8,4-7.6c1.1-2.8,2.2-5.6,3.3-8.4
				c1.9-4.7,3.5-8.2,4.7-10.5c1.1-2.5,2.2-5,3.3-7.6c2.2-5-1.1,3.3-1.1,3.3S319.1,298.7,323,288.7z M299.4,317.9
				c-1.6,3.9-3.1,7.8-4.7,11.7c0.2,0,0.5,0,0.7,0c1.9-5.1,3.5-8.9,4.7-11.4C299.9,318,299.7,318,299.4,317.9z M337.1,207.6
				c-14.1,0.2-28.3,0.4-42.4,0.4c0,0.1,0,0.2,0,0.3c0.6,0,1.2,0,1.8,0c5.3,0,10.6-0.1,15.9-0.1c9.9,0.1,17.4,0,22.5-0.1
				c0.7,0,1.5,0,2.2,0C337.1,207.9,337.1,207.8,337.1,207.6z M313.6,306.5c0.1,0,0.2,0,0.4,0c0.7-1.4,1.5-2.9,2.2-4.3
				c0.2,0,0.4,0.1,0.4,0.3c-2.3,5.6-4.6,11.2-6.9,16.8c-0.7,1.1-1.6,2.9-2.5,5.4c-0.2,0-0.5,0-0.7,0c0.1-0.6,0.2-1.3,0.4-1.9
				c-0.1,0-0.2,0-0.4,0c-2.2,4.2-3.9,7.9-5.1,11.1c-0.2,0-0.5,0-0.7,0c3.1-7.4,6.3-14.8,9.4-22.2c4-9.6,3.6-8.3,7.6-17.8
				c0.2,0,0.5,0,0.7,0C315.3,301.6,316.6,298.6,313.6,306.5z M325.5,220.5c-2.8,0-5.6,0-8.3-0.1c0,0.1,0,0.2,0,0.3
				c4.7,0.2,9.4,0.4,14.1,0.6c0-0.2,0-0.4,0-0.5s-0.1-0.3-0.4-0.3c1-0.4,1.6-0.5,1.8-0.5c0-0.2,0-0.4,0-0.5c-0.7,0-1.5,0-2.2,0
				c-6.4,0-12.8-0.1-19.2-0.1c-0.7,0.1-1.5,0.2-2.2,0.2c-1,0.4-1.8,0.5-2.5,0.5c-3.4,0-6.8-0.1-10.1-0.1c0,0.2,0,0.4,0,0.5
				c3.3,0.2,6.5,0.4,9.8,0.6c0-0.1,0-0.2,0-0.3c-0.1-0.1-0.2-0.2-0.4-0.3c0-0.1,0-0.2,0-0.3C312.5,220.4,319,220.4,325.5,220.5z
				 M319,209.6c0.6,0,1.2,0,1.8,0c-1-0.4-3.9-0.6-8.7-0.6c-8-0.1-12.6,0.1-13.8,0.7c3.5,0,7,0.1,10.5,0.1
				C312.2,209.8,315.6,209.7,319,209.6z M329.9,223.7c-7,0-14-0.1-21-0.1c0,0.1,0,0.2,0,0.3c7,0.1,14,0.1,21,0.1
				C329.9,223.9,329.9,223.8,329.9,223.7z M356.7,227c-0.7,0.7-1.1,1.3-1.1,1.6c-1.5,2.9-2.4,5-2.9,6.5c-0.6,1.9-1.2,3.8-1.8,5.7
				c-0.2,1.3-0.9,3.1-1.8,5.6c-0.5,1.4-1.1,3-2,4.6c-0.9,1.6-1.5,3.1-2,4.6c-0.8,2.4-1.7,4.9-2.5,7.3c-1.5,4.5-3.5,9.8-6.2,15.9
				c-3.6,8.7-7.2,17.4-10.9,26.1c-0.7,1.4,3-7.9,2.5-6.4c-0.5,1.5-1.1,3-1.8,4.5c-0.8,1.8-1.7,3.6-2.5,5.4c-0.7,1.6-1.4,3.2-2,4.9
				c-0.6,1.6-1.3,3.2-2,4.6c-1.2,2.7-2.4,5.4-3.6,8.1c-1,2.7-1.9,5.4-2.9,8.1c0,0.3,0,0.5,0,0.8c0.1,0.1,0.2,0.2,0.4,0.3
				c0.4-0.5,0.7-1.1,1.1-1.6c0,0.2,0,0.4,0,0.5c0,0.5,0.1,1,0.4,1.4c0.6-0.3,1.2-0.5,1.8-0.8c0.5-0.7,0.7-1.4,0.7-1.9
				c1.5-3.2,3.4-8.1,5.8-14.6c1-2.2,1.6-3.8,1.8-4.9c-0.1,0-0.2,0-0.4,0c-1.2,0.9-2.2,2.5-3.1,4.7c-0.9,2.2-1.8,3.8-2.7,4.7
				c0-0.3,0-0.5,0-0.8c0.7-1.3,1.6-3.1,2.5-5.7c2.4-4.9,4-7.9,4.7-9.2c0-0.4,0.2-0.6,0.5-0.8c0.4-0.2,0.5-0.4,0.5-0.8
				c0-0.9,0.3-2,0.9-3.2c0.6-1.3,1-2.2,1.3-2.7c-0.2,0.9-0.5,1.8-0.7,2.7c0,0.2,0.1,0.3,0.4,0.3c1-1.1,1.6-1.9,1.8-2.4
				c2.3-5.8,0.3-0.7,2.5-6.4c1.1-2.7,2.2-5.4,3.3-8.1c1-2.7,2.3-5.7,4-9.2c2.2-5.4,4.5-11.8,6.9-19.1c0.2-0.5,0.4-1.4,0.4-2.7
				c-0.2,0-0.5,0-0.7,0c-1.9,6.8-3.8,11.9-5.4,15.4c0-0.9,0.1-1.5,0.4-1.9c1-2.8,1.9-5.6,2.9-8.4c0.7-2.1,1.5-4.3,2.2-6.5
				c1.2-3.3,2.4-6.6,3.6-10c1.1-3.1,2.2-6.1,3.3-9.2c0-0.4,0.7-1.8,2.2-4.3c0.2,0.1,0.5,0.2,0.7,0.3c-0.2,0.4-0.4,0.8-0.5,1.3
				c-0.1,0.5-0.3,1-0.5,1.4c-1.7,1.8-2.7,3.6-2.9,5.4c-0.4,1.7-0.7,3.4-1.1,5.1c-0.2,1.4-0.5,2.9-0.7,4.3c0.2,0,0.5,0,0.7,0
				c1-3.2,3.4-9.9,7.2-19.9c-0.2,0-0.5,0-0.7,0c-0.5,0.4-1,0.9-1.5,1.4c-0.2-0.4-0.4-0.5-0.4-0.5S356.7,227.9,356.7,227z
				 M316.1,204.8c-2.3,0.2-4.6,0.3-6.9,0.5c0.1,0,0.2,0,0.4,0c2.2,0,4.4,0,6.5,0.1C316.1,205.1,316.1,204.9,316.1,204.8z
				 M310.7,221.7c3.4,0,6.8,0.1,10.1,0.1c-2.4-0.2-5.8-0.3-10.1-0.3C310.7,221.5,310.7,221.6,310.7,221.7z M311,217.7
				c7.2,0.1,14.5,0.1,21.7,0.1C325.5,217.8,318.3,217.7,311,217.7z M315.4,349.6c0.1,0.2,0.2,0.4,0.4,0.5c0.2,0,0.5,0,0.7,0
				c3.9,0.1,9.7,0.2,17.4,0.2c3.3-0.1,6.5-0.2,9.8-0.3c8-0.2,15.9-0.4,23.9-0.5c1.3,0.1,2.7,0.2,4,0.3c0.5-0.2,1-0.4,1.5-0.5
				c0-0.2,0-0.4,0-0.5c-4.4,0-8.7,0-13,0c-2.2,0.2-4.9,0.3-8.1,0.3c-3.3,0-5.9,0.1-7.8,0.3c-2.2,0.2-5.6,0.3-10.1,0.3
				c-5.8,0-10.3,0-13.4-0.2C319.5,349.2,317.8,349.3,315.4,349.6z M370.8,348.4c0-0.2,0-0.4,0-0.5c-0.2,0-0.7,0-1.3-0.1
				c-0.6-0.1-1,0-1.3,0.1c-2.5,0-5.1,0-7.6,0c-9.2,0.4-16.1,0.5-20.7,0.6c-8.5,0-14.7,0-18.8-0.2c-1.6,0.1-3.1,0.2-4.7,0.3
				c3.6,0.3,9.2,0.5,16.7,0.5c5.4-0.1,10.9-0.2,16.3-0.3C358.6,348.3,365.7,348.2,370.8,348.4z M317.2,346.7
				c6.6,0,13.3-0.1,19.9-0.1c-2.7-0.2-5.3-0.3-8-0.5c-2.2,0-5.4-0.1-9.8-0.5c-0.2,0-1.1,0.3-2.5,0.8c0,0.2,0,0.3,0,0.3
				S316.9,346.7,317.2,346.7z M319.7,346.9c-1,0.1-1.9,0.2-2.9,0.3c0,0.2,0,0.4,0,0.5c0.7-0.2,1.9-0.3,3.6-0.3
				c1.9,0,3.9,0.1,5.8,0.4c1.9,0.3,3.9,0.4,5.8,0.4c1,0,2.4-0.2,4.3-0.6c-0.2-0.2-0.6-0.3-1.1-0.3c-0.7,0-1.6,0-2.7,0.1
				s-2.4,0.1-3.8-0.1C326.6,347.4,323.6,347.2,319.7,346.9z M317.9,357.5c2.3,0.2,4.6,0.3,6.9,0.5c0.1-0.2,0.2-0.4,0.4-0.5
				c-2.4-0.1-4.8-0.1-7.2-0.2C317.9,357.3,317.9,357.4,317.9,357.5z M319,343.7c3.1,0.3,7.7,0.5,13.8,0.5c6.3,0,15.2-0.4,26.8-1.1
				C341.7,343.4,328.2,343.6,319,343.7z M369.4,339.2c-5.1-0.2-12.7-0.1-22.8,0.3c-5.1,0.1-10.1,0.2-15.2,0.3c-4.6,0-8,0-10.1-0.2
				c-0.4,0.1-0.7,0.2-1.1,0.3c6.3,0.3,10.9,0.5,13.8,0.5c4.8,0,12.1-0.2,21.8-0.6C361.9,339.4,366.5,339.2,369.4,339.2z
				 M321.9,326.9c-0.2,0.7-0.4,1.6-0.4,2.7c0.1,0,0.2,0,0.4,0c0.5-1.4,1-2.4,1.5-3c0.7-2,2-4.8,4-8.4c0.2-0.2,0.3-0.4,0.2-0.8
				c-0.1-0.4-0.1-0.7,0.2-1.1c-0.2,0.1-0.5,0.2-0.7,0.3c-1.9,3.2-3.3,5.7-4,7.3c-0.2,0.1-0.5,0.2-0.7,0.3c-0.5,1-1,2-1.5,3
				C321.3,327.2,321.6,327.1,321.9,326.9z M323,282.7c-0.7,1.8-1.5,3.6-2.2,5.4c-0.2-0.1-0.5-0.2-0.7-0.3c1.2-3.1,2-4.9,2.5-5.4
				c0,0.2,0.1,0.3,0.2,0.3S323,282.7,323,282.7z M321.2,290.5c-0.2-0.1-0.5-0.2-0.7-0.3c1-2,1.9-4,2.9-5.9c0.1,0.1,0.2,0.2,0.4,0.3
				c-0.2,0.9-0.6,1.8-1.1,2.7C322.1,288.2,321.7,289.3,321.2,290.5z M327.7,314.2c0.2,0.1,0.5,0.2,0.7,0.3c2.4-3.4,3.7-6.9,4-10.5
				C331,307.8,329.4,311.2,327.7,314.2z M327.7,357.9c10.6-0.4,21.3-0.8,31.9-1.2c0-0.1,0-0.2,0-0.3c-14.5,0.4-25.1,0.8-31.9,1.2
				C327.7,357.7,327.7,357.8,327.7,357.9z M326.6,274.4c-0.2-0.1-0.5-0.2-0.7-0.3c1.1-2.5,2.2-5,3.3-7.5c0.2,0,0.4,0.1,0.4,0.3
				c-0.2,0.9-0.4,1.4-0.4,1.4S328.3,270.2,326.6,274.4z M327,304.6c0.1,0,0.2,0,0.4,0c-0.5,1.8,3.4-7.7,2.9-6.8
				C330.6,296.4,326.6,305.9,327,304.6z M336.8,208.9c-3.4,0-6.8,0-10.1-0.1c1.5,0.4,3.3,0.6,5.4,0.6
				C334.7,209.5,336.3,209.3,336.8,208.9z M344.7,337.4c-3.4,0-6.8,0-10.1,0C338,337.4,341.4,337.4,344.7,337.4z M333.1,250.7
				c-0.7,1.7-1.5,3.4-2.2,5.1c-0.1,0-0.2,0-0.4,0c0.7-1.8,1.5-3.6,2.2-5.4c0,0.2,0,0.3,0,0.3S332.9,250.7,333.1,250.7z M333.9,247.7
				c0.5-1.2,1-2.3,1.5-3.5c0,0.2,0.1,0.3,0.4,0.3c-0.2,0.5-0.5,1.1-0.7,1.6c-0.2,0.5-0.5,1.2-0.7,1.9c0-0.2-0.1-0.3-0.2-0.3
				C333.9,247.7,333.9,247.7,333.9,247.7z M337.5,246.1c0.2,0.1,0.5,0.2,0.7,0.3c0.7-2,1.5-3.9,2.2-5.9c-0.1,0-0.2,0-0.4,0
				C339.1,243,338.2,244.9,337.5,246.1z M338.2,235.9c-0.1-0.1-0.2-0.2-0.4-0.3c0.6-1.2,1.2-2.5,1.8-3.8c0.1,0,0.2,0,0.4,0
				C339.4,233.2,338.8,234.5,338.2,235.9z M354.5,337.9c-2.4,0-4.8,0-7.2,0C349.7,337.9,352.1,337.9,354.5,337.9z M366.8,337.4
				c-3.1,0.1-6.3,0.2-9.4,0.3c0,0.1,0,0.2,0,0.3c5.3,0,10.6,0,15.9,0C371.9,337.5,369.7,337.4,366.8,337.4z M355.6,245.9
				c0.1,0,0.2,0,0.4,0c2.8-6.6,5.5-13.3,8.3-19.9c-0.2,0-0.4-0.1-0.4-0.3c-0.6,0.6-1.2,1.3-1.8,1.9c-1.5,3.5-2.9,7-4.4,10.5
				c-0.2,0.4-0.4,0.5-0.4,0.5S356.8,241,355.6,245.9z M377.7,336.6c-5.9,0-11.8,0-17.8,0c0,0.1,0,0.2,0,0.3c5.9,0,11.8,0,17.8,0
				C377.7,336.8,377.7,336.7,377.7,336.6z"/>
		</g>
		<g>
			<path class="st1" d="M476.5,310.8c0.3,0,0.5,0,0.8,0c1.6-4,3.3-7.9,4.9-11.9c0.5-1.5,1.1-2.9,1.6-4.2c0.5-1.4,1.1-2.7,1.6-3.9
				c1.1-2.5,3.3-8,6.6-16.4c0.5-1.3,1.1-2.3,1.6-3.2c0.1,0,0.3,0,0.4,0c0,1.1-0.1,1.9-0.4,2.5c-1.6,4.2-3.3,8.4-4.9,12.6
				c-2.2,5.7-4.4,11.4-6.6,17c-0.5,1.2-1.3,2.8-2.3,4.7c-1,1.9,3.4-8.7,2.6-6.2c-0.3,0.6-0.4,1.4-0.4,2.2c-1.2,3-2.5,6-3.7,9.1
				c-0.5,0.4-0.8,0.7-0.8,0.9c0.3,1.3,0.1,2.7-0.6,4.2s-1.2,2.6-1.4,3.3c-1.2,2.6-2.5,5.2-3.7,7.8c-0.6,1-1.1,2-1.6,2.8
				c-0.5,0.8-1,1.5-1.2,2.2c-0.1,0.1-0.3,0.2-0.4,0.3c-0.3,1.5-1,4.1-2.1,8.1c3.2,0.1,6.3,0.1,9.5,0.2c8.1,0.1,16.2,0.1,24.3,0.2
				c5.4,0.1,10.7,0.3,16,0.4c4.7,0,9.3,0,14,0.1c0.8,0,1.7,0,2.5,0.1c1.9,0.5,3,1.3,3.3,2.4c0.5,1.3,0.8,2.5,0.8,3.5
				c0,0.6-0.1,1.2-0.4,1.6c-0.3,0.4-0.3,0.8-0.2,1.3c0.1,0.4,0.2,0.9,0.2,1.3c0,0.6,0.1,1.4,0.4,2.1c0.3,0.8,0.4,1.5,0.4,2.1
				s-0.1,1.1-0.4,1.3c-0.5,0.8-0.8,2.3-0.8,4.5c0,1.9-0.3,3.4-0.8,4.5c-0.3,0.2-0.3,0.6-0.2,1.3c0.1,0.6,0.2,1.1,0.2,1.3
				c0.3,1.7,0.3,2.9,0,3.4c-0.3,0.5-1.5,1-3.7,1.3c-2.5,0.5-4.8,0.8-7,0.7c-0.8,0-2.3-0.3-4.5-0.8c-2.2-0.5-3.8-0.8-4.9-0.8
				c-1.9-0.1-4.3,0-7,0.4c-4,0-8-0.1-11.9-0.1c-1.5-0.2-3-0.3-4.5-0.5c-2.8,0-5.5,0-8.2,0c-4.4,0.1-8.2,0-11.5-0.2
				c-3.3-0.2-6-0.3-8.2-0.4c-1.6,0-3.7-0.1-6.2,0c-2.5,0-5.4-0.1-8.6-0.4c-1.8,0.1-3.6,0.1-5.4,0.2c-1.4,0-2.3-0.2-2.9-0.4
				c-1.1-0.4-2.3-0.5-3.7-0.1c-2.2,0.1-5.1,0-8.6-0.3c-3.6-0.4-6.5-0.6-8.6-0.6c-1.9,0-3.4-0.2-4.5-0.4c0.8-1,0.5-1.5-0.8-1.6
				c-1.1-1.5-1.6-2.9-1.6-4.3c0-1.9,0.8-4.4,2.5-7.7c3.8-9.2,7.7-18.4,11.5-27.6c3.3-6.5,5.6-11.5,7-14.8c2.9-7.4,0.5-2,3.4-9.5
				c0.3-1,0.8-2.2,1.6-3.4c0.8-1.2,1.5-2.4,2.1-3.4c1.4-3.1,3.1-7.8,5.4-14c1.6-3.8,3.3-7.7,4.9-11.5c1.9-4.6,3.8-9.2,5.8-13.8
				c2.2-5.4,3.4-8.5,3.7-9.1c3.6-8.4,7.1-16.8,10.7-25.2c0.3-1,0.7-2.1,1.2-3.2c0.5-1.1,1.1-2.3,1.6-3.8c-0.6-0.2-1.2-0.3-2.1-0.3
				c-1.6,0-3.8,0.1-6.4,0.2c-2.6,0.1-4.7-0.1-6.4-0.5c-1.1-0.2-2.1-0.2-2.9-0.1c-0.8,0.1-1.5,0.2-2.1,0.2c-4.4,0.5-7.7,0.8-9.9,0.8
				c-6.6,0-13.2,0.1-19.8,0.1c-4.7,0.2-9.3,0.4-14,0.5c-1.5-0.1-3-0.2-4.5-0.2c-0.3,0-0.5-0.1-0.6-0.3c-0.1-0.2-0.4-0.3-0.6-0.3
				c-0.5-0.5-1.1-1-1.6-1.5c0.5,0,0.8-0.3,0.8-0.9c-0.1,0-0.3,0-0.4,0c-0.3-0.5-0.5-1-0.8-1.5c-0.3-1.6,0-3.5,0.8-5.6
				c0.3-0.2,0.3-0.5,0-0.8c-0.3-0.3-0.5-0.6-0.8-1.1c0-0.7,0-1.4,0-2.2c0.3-0.2,0.5-0.4,0.8-0.6c0-1,0-2.1,0-3.1
				c-0.3-0.2-0.7-0.3-1.2-0.3c0.4-0.4,0.8-0.8,1.2-1.2c-0.4-0.2-0.8-0.4-1.2-0.6c1.1-0.2,1.6-1.1,1.6-2.8c0-0.8-0.1-1.4-0.4-1.8
				c1-0.7,1.9-1.5,2.9-2.2c-0.5,0-1.1,0-1.6,0c-0.1-0.2-0.3-0.4-0.4-0.6c0.5-0.2,1.2-0.5,2.1-1c0.8-0.4,1.8-0.8,2.9-1
				c5-0.7,9.9-1.1,14.8-1.2c4.1-0.1,7.3-0.1,9.5,0.1c3,0,6,0.1,9.1,0.1c2.7-0.1,7.4-0.4,14-1c12.1-0.8,21.3-1.4,27.6-1.6
				c4.4-0.4,8.2-0.6,11.5-0.6c3.3,0,6-0.1,8.2-0.2c3.3-0.1,6.6-0.3,9.9-0.5c3.3-0.6,5.8-0.3,7.4,0.9c0,0.5,0,1.1,0,1.6
				c0.5-0.1,1.1-0.3,1.6-0.4c0,0.8,0,1.5,0,2.2c1.4-0.1,2.7-0.1,4.1-0.2c-3.3,9.1-6.6,18.2-9.9,27.3c-3.6,8.8-7.1,17.6-10.7,26.4
				c-1.1,2.7-2.2,5.3-3.3,8c-3.3,8.1-6,14.1-8.2,18.2c-0.3-0.1-0.5-0.2-0.8-0.3c3.3-9.3,6.6-18.6,9.9-28c-0.3,0-0.5,0-0.8,0
				c-5.8,15.8-8.6,23.6-8.6,23.6C494.6,264.1,488.6,279.9,476.5,310.8z M414.7,193.3c2.3-0.2,4.7-0.5,7-0.8c-2.3,0.1-4.7,0.1-7,0.1
				C414.7,192.9,414.7,193.1,414.7,193.3z M478.1,199.3c1.2-0.1,2.5-0.3,3.7-0.4c0-0.2,0-0.4,0-0.6c-1.4,0.1-2.8,0.1-4.1,0.1
				c-7.3,0.2-14.5,0.5-21.8,0.7c-9.3,0.4-18.7,0.7-28,1c-3.2,0.4-6.3,0.8-9.5,1.1c-0.8,0-1.4,0.1-1.6,0.3c0.3,0.2,0.7,0.3,1.2,0.3
				c2.8-0.4,5.5-0.7,8.2-1.1c9.6-0.2,19.2-0.4,28.8-0.7C462.8,199.8,470.5,199.6,478.1,199.3z M480.2,218.4c-0.8-0.4-1.4-0.4-1.6,0
				c-0.3,0.4-0.4,0.8-0.4,0.9c-1.9,5.1-3.8,10.1-5.8,15.2c-2.2,5.6-4.4,11.1-6.6,16.7c-3.6,10.9-8.8,24.1-15.6,39.4
				c-1.1,2.5-3.3,7.9-6.6,16.1c-2.1,4.9,1.1-3.1-0.9,1.8c-0.8,2.3-1.9,4.8-3.3,7.7c-1.4,2.9-2.3,5-2.9,6.5
				c-2.5,6.1-4.9,12.1-7.4,18.2c0,0.6-0.1,1.1-0.4,1.5c-0.3,0.4-0.5,0.8-0.8,1.2c0.3,0,0.5,0,0.8,0c0.8-1.4,1.6-2.9,2.5-4.3
				c2.1-5.1,4.1-10.3,6.2-15.4c1.4-3.4,2.8-6.8,4.1-10.2c2.6-5.7-0.1,1.5,2.5-4.2c3.3-8.3,5.5-13.7,6.6-16.1c2.5-5.2,4-8.5,4.5-10
				c1.4-2.7,3.6-8.3,6.6-16.9c0.5-1.5,1.3-3.2,2.3-5.2c1-2,1.9-4.2,2.7-6.8c1.5-4.5,3-9,4.5-13.5c2.3-5.9,4.7-11.8,7-17.7
				C478.4,222.9,479.1,221.2,480.2,218.4z M480.6,202.7c-3-0.1-7.5-0.1-13.6,0.1c-7.1,0.2-12.4,0.5-15.6,0.8
				c-2.5,0.1-5.6,0.2-9.5,0.4c-3.9,0.2-8.2,0.2-13.2,0.1c1.6,0.2,10.7,0.1,27.2-0.3C471.8,203.3,480,202.9,480.6,202.7z M467,289.1
				c1-1.9,1.9-3.8,2.9-5.6c0.3,0.4,0.5,0.5,0.8,0.3c0.3-0.2,0.4-0.4,0.4-0.6c1.1-2.9,2.1-5,2.9-6.3c-0.3,0-0.4-0.1-0.4-0.3
				c-0.7,1.3-1.4,2.5-2.1,3.8c-0.5,1-1.1,2.1-1.6,3.1c0-0.4,0.3-1.2,0.8-2.5c2.1-5.4,4.1-10.9,6.2-16.4c2.2-5,4.4-10.9,6.6-17.7
				c1.1-2.9,2.2-5.9,3.3-8.9c1.4-4.5,2.8-9.1,4.1-13.6c-0.6,0.4-0.8,1-0.8,1.6c-1.5,4.2-3,8.5-4.5,12.7c-0.3,1.5-1.1,3.1-2.5,4.8
				c-0.3,0.4-0.8,1.5-1.6,3.2c0,0.4-0.1,1.3-0.4,2.5c-0.3,1.3-0.8,2.2-1.6,2.9c-0.8,0.9-1.5,2.2-2.1,4.1c-0.5,2.1-1.1,3.7-1.6,4.7
				c-0.1,0.4-0.3,0.8-0.4,1.3c-0.3,0-0.5,0-0.8,0c0.8-3.1,1.8-5.9,2.9-8.2c4.4-14.7,8.8-26.9,13.2-36.5c-0.3-0.1-0.5-0.2-0.8-0.3
				c-0.8,0.9-1.6,1.7-2.5,2.6c0.1-0.6,0.3-1.3,0.4-1.9c-1.4-0.2-2.3-0.1-2.7,0.1c-0.4,0.2-0.8,0.8-1,1.6
				c-1.4,3.6-4.8,12.7-10.3,27.2c-0.7,2.1-1.4,4.2-2.1,6.3c-2.2,6.3-4,11-5.4,14.2c-1.6,4.4-5.6,14-12,28.8
				c-2.1,5.3-4.1,10.6-6.2,15.9c-3.7,8.5-2.1,4.1-5.9,12.6c-1.9,3.9-3.4,7.4-4.5,10.3c-1.1,3-2.1,5.4-2.9,7.2
				c-0.3,0.2-0.4,0.4-0.2,0.5c0.1,0.1,0.2,0.3,0.2,0.5c0.8-0.2,1.6-0.4,2.5-0.6c0.7-0.3,1.4-0.6,2.1-0.9c1.1,0.4,2.1,0.6,2.9,0.7
				c1.1-0.2,1.9-0.7,2.5-1.5c0,0.3,0,0.6,0,0.9c2.2-3.7,3.7-6.6,4.5-8.6c1.2-3.2,2.5-6.4,3.7-9.6c2.2-5.4,4-9.4,5.4-12.1
				c1.2-2.9,2.5-5.8,3.7-8.7c2.5-5.8-1.6,4.1-1.6,4.1C460.4,306.6,462.6,300.8,467,289.1z M440.6,322.3c-1.8,4.4-3.6,8.8-5.4,13.2
				c0.3,0,0.5,0,0.8,0c2.2-5.8,4-10.1,5.4-13C441.1,322.5,440.9,322.4,440.6,322.3z M483.1,194.4c-16,0.9-32.1,1.7-48.2,2.4
				c0,0.1,0,0.2,0,0.3c0.7,0,1.4,0,2.1-0.1c6-0.2,12.1-0.5,18.1-0.8c11.3-0.3,19.8-0.7,25.5-1.1c0.8,0,1.6-0.1,2.5-0.1
				C483.1,194.9,483.1,194.7,483.1,194.4z M456.6,309.4c0.1,0,0.3,0,0.4,0c0.8-1.6,1.6-3.3,2.5-5c0.3,0,0.4,0.1,0.4,0.3
				c-2.6,6.4-5.2,12.8-7.8,19.2c-0.8,1.2-1.8,3.3-2.9,6.2c-0.3,0-0.5,0-0.8,0c0.1-0.7,0.3-1.5,0.4-2.2c-0.1,0-0.3,0-0.4,0
				c-2.5,4.7-4.4,8.9-5.8,12.6c-0.3,0-0.5,0-0.8,0c3.6-8.4,7.1-16.9,10.7-25.3c4.5-10.9,3.8-9.1,8.3-20.2c0.3,0,0.5,0,0.8,0
				C458.2,304.1,460.1,300.4,456.6,309.4z M469.9,209.9c-3.2,0.1-6.3,0.2-9.5,0.3c0,0.1,0,0.2,0,0.3c5.4,0.1,10.7,0.1,16,0.2
				c0-0.2,0-0.4,0-0.6s-0.1-0.3-0.4-0.3c1.1-0.4,1.8-0.7,2.1-0.7c0-0.2,0-0.4,0-0.6c-0.8,0-1.6,0.1-2.5,0.1
				c-7.3,0.2-14.5,0.4-21.8,0.6c-0.8,0.1-1.6,0.2-2.5,0.4c-1.1,0.4-2.1,0.7-2.9,0.7c-3.9,0.1-7.7,0.2-11.5,0.3c0,0.2,0,0.4,0,0.6
				c3.7,0.1,7.4,0.2,11.1,0.4c0-0.1,0-0.2,0-0.3c-0.1-0.1-0.3-0.2-0.4-0.3c0-0.1,0-0.2,0-0.3C455.1,210.3,462.5,210.1,469.9,209.9z
				 M462.5,197.6c0.7,0,1.4,0,2.1-0.1c-1.1-0.4-4.4-0.5-9.9-0.3c-9.1,0.3-14.3,0.7-15.7,1.4c4-0.1,8-0.2,11.9-0.3
				C454.8,198.1,458.6,197.9,462.5,197.6z M474.8,213.6c-8,0.2-15.9,0.4-23.9,0.6c0,0.1,0,0.2,0,0.3c8-0.2,15.9-0.4,23.9-0.6
				C474.8,213.8,474.8,213.7,474.8,213.6z M505.3,216.4c-0.8,0.9-1.2,1.5-1.2,1.9c-1.6,3.4-2.8,6-3.3,7.7c-0.7,2.2-1.4,4.5-2.1,6.7
				c-0.3,1.5-1,3.7-2.1,6.7c-0.5,1.7-1.3,3.5-2.3,5.4c-1,1.9-1.7,3.7-2.3,5.4c-1,2.9-1.9,5.7-2.9,8.6c-1.6,5.3-4,11.5-7,18.6
				c-4.1,10.2-8.2,20.3-12.4,30.4c-0.8,1.7-1.5,3.4-2.1,5.1c-0.5,1.8,4-9.3,3.2-7.6c-1,2.1-1.9,4.1-2.9,6.2
				c-0.8,1.9-1.6,3.7-2.3,5.6c-0.7,1.9-1.4,3.6-2.3,5.3c-1.4,3.1-2.8,6.2-4.1,9.3c-1.1,3.1-2.2,6.2-3.3,9.3c0,0.3,0,0.6,0,0.9
				c0.1,0.1,0.3,0.2,0.4,0.3c0.4-0.6,0.8-1.2,1.2-1.9c0,0.2,0,0.4,0,0.6c0,0.6,0.1,1.1,0.4,1.6c0.7-0.3,1.4-0.6,2.1-0.9
				c0.5-0.8,0.8-1.5,0.8-2.2c1.6-3.7,3.8-9.3,6.6-16.7c1.1-2.5,1.8-4.4,2.1-5.6c-0.1,0-0.3,0-0.4,0c-1.4,1-2.5,2.8-3.5,5.4
				c-1,2.6-2,4.4-3.1,5.4c0-0.3,0-0.6,0-0.9c0.8-1.4,1.8-3.6,2.9-6.5c2.7-5.6,4.5-9.1,5.4-10.6c0-0.4,0.2-0.7,0.6-0.9
				c0.4-0.2,0.6-0.5,0.6-0.9c0-1,0.3-2.3,1-3.8c0.7-1.5-4.1,10.3-3.8,9.7c-0.3,1,4.7-10.7,4.5-9.7c0,0.2,0.1,0.3,0.4,0.3
				c1.1-1.2,1.8-2.2,2.1-2.8c2.6-6.7-0.1-0.5,2.5-7.2c1.2-3.1,2.5-6.3,3.7-9.4c1.1-3.1,2.6-6.7,4.5-10.7c2.5-6.3,5.1-13.8,7.8-22.5
				c0.3-0.6,0.4-1.7,0.4-3.2c-0.3,0-0.5,0-0.8,0c-2.2,8-4.3,14.1-6.2,18.1c0-1,0.1-1.8,0.4-2.2c1.1-3.3,2.2-6.5,3.3-9.8
				c0.8-2.5,1.6-5.1,2.5-7.6c1.4-3.9,2.8-7.9,4.1-11.8c1.2-3.6,2.5-7.2,3.7-10.9c0-0.4,0.8-2.1,2.5-5.1c0.3,0.1,0.5,0.2,0.8,0.3
				c-0.3,0.4-0.5,1-0.6,1.6c-0.1,0.6-0.4,1.2-0.6,1.6c-1.9,2.2-3,4.3-3.3,6.4c-0.4,2-0.8,4-1.2,6.1c-0.3,1.7-0.5,3.4-0.8,5.1
				c0.3,0,0.5,0,0.8,0c1.1-3.8,3.8-11.7,8.2-23.7c-0.3,0-0.5,0-0.8,0c-0.5,0.6-1.1,1.1-1.6,1.6c-0.3-0.4-0.4-0.6-0.4-0.6
				S505.3,217.5,505.3,216.4z M459.2,192.1c-2.6,0.3-5.2,0.6-7.8,0.9c0.1,0,0.3,0,0.4,0c2.5-0.1,4.9-0.1,7.4-0.2
				C459.2,192.5,459.2,192.3,459.2,192.1z M453,211.9c3.8-0.1,7.7-0.2,11.5-0.3c-2.8-0.1-6.6-0.1-11.5,0
				C453,211.7,453,211.8,453,211.9z M453.4,207.2c8.2-0.2,16.5-0.4,24.7-0.7C469.9,206.8,461.7,207,453.4,207.2z M458.7,359.2
				c0.1,0.2,0.3,0.4,0.4,0.6c0.3,0,0.5,0,0.8,0c4.4,0.3,11,0.6,19.8,0.8c3.7,0,7.4,0,11.1,0c9.1,0.1,18.1,0.1,27.2,0.2
				c1.5,0.2,3,0.3,4.5,0.5c0.5-0.2,1.1-0.4,1.7-0.6c0-0.2,0-0.4,0-0.6c-4.9-0.2-9.9-0.3-14.8-0.5c-2.5,0.1-5.5,0.1-9.3,0
				c-3.7-0.1-6.6-0.1-8.9,0c-2.5,0.1-6.3,0.1-11.5,0c-6.6-0.2-11.7-0.4-15.2-0.7C463.4,358.8,461.4,358.9,458.7,359.2z M521.7,359.8
				c0-0.2,0-0.4,0-0.6c-0.3,0-0.8-0.1-1.4-0.2c-0.7-0.1-1.2-0.1-1.4,0.1c-2.9-0.1-5.8-0.2-8.6-0.3c-10.4,0.1-18.2,0.1-23.5-0.1
				c-9.6-0.3-16.8-0.5-21.4-0.9c-1.8,0.1-3.6,0.1-5.4,0.2c4.1,0.5,10.4,0.9,18.9,1.1c6.2,0.1,12.4,0.1,18.5,0.2
				C507.8,359.2,515.9,359.4,521.7,359.8z M460.8,355.8c7.5,0.2,15.1,0.4,22.6,0.5c-3-0.3-6-0.6-9.1-0.9c-2.5-0.1-6.2-0.4-11.1-0.9
				c-0.3,0-1.2,0.3-2.9,0.9c0,0.2,0,0.3,0,0.3C460.3,355.8,460.5,355.8,460.8,355.8z M463.6,356.2c-1.1,0.1-2.2,0.2-3.3,0.2
				c0,0.2,0,0.4,0,0.6c0.8-0.2,2.2-0.3,4.1-0.2c2.2,0,4.4,0.3,6.6,0.6c2.2,0.4,4.4,0.6,6.6,0.6c1.1,0,2.7-0.1,4.9-0.5
				c-0.3-0.2-0.7-0.3-1.2-0.4c-0.8,0-1.9,0-3.1,0.1c-1.2,0.1-2.7,0-4.3-0.3C471.5,357,468,356.7,463.6,356.2z M461.6,368.3
				c2.6,0.3,5.2,0.5,7.8,0.8c0.1-0.2,0.3-0.4,0.4-0.6c-2.8-0.2-5.5-0.4-8.2-0.5C461.6,368.1,461.6,368.2,461.6,368.3z M462.8,352.5
				c3.6,0.5,8.8,0.8,15.6,1c7.1,0.2,17.3,0,30.5-0.4C488.6,352.8,473.2,352.7,462.8,352.5z M520,348.9c-5.8-0.4-14.4-0.5-25.9-0.4
				c-5.8,0-11.5-0.1-17.3-0.1c-5.2-0.1-9.1-0.3-11.5-0.6c-0.4,0.1-0.8,0.2-1.2,0.3c7.1,0.6,12.4,0.9,15.6,1c5.5,0.1,13.7,0.1,24.7,0
				C511.5,348.8,516.8,348.8,520,348.9z M466.1,333.2c-0.3,0.8-0.4,1.9-0.4,3.1c0.1,0,0.3,0,0.4,0c0.5-1.6,1.1-2.8,1.6-3.4
				c0.8-2.3,2.3-5.5,4.5-9.6c0.3-0.2,0.3-0.5,0.2-0.9c-0.1-0.4-0.1-0.8,0.2-1.2c-0.3,0.1-0.5,0.2-0.8,0.3c-2.2,3.7-3.7,6.5-4.5,8.4
				c-0.3,0.1-0.5,0.2-0.8,0.3c-0.5,1.1-1.1,2.3-1.6,3.4C465.4,333.5,465.8,333.4,466.1,333.2z M467,282.3c-0.8,2.1-1.6,4.2-2.5,6.3
				c-0.3-0.1-0.5-0.2-0.8-0.3c1.4-3.5,2.3-5.6,2.9-6.3c0,0.2,0.1,0.3,0.2,0.3C466.9,282.3,467,282.3,467,282.3z M465,291.3
				c-0.3-0.1-0.5-0.2-0.8-0.3c1.1-2.3,2.2-4.6,3.3-6.9c0.1,0.1,0.3,0.2,0.4,0.3c-0.3,1-0.7,2.1-1.2,3.1
				C466,288.6,465.5,289.9,465,291.3z M472.7,318.6c0.3,0.1,0.5,0.2,0.8,0.3c2.7-3.9,4.2-8,4.5-12.2
				C476.4,311.1,474.6,315.1,472.7,318.6z M472.7,369.2c12.1-0.1,24.1-0.1,36.2-0.1c0-0.1,0-0.2,0-0.3c-16.5-0.2-28.5-0.1-36.2,0.1
				C472.7,369,472.7,369.1,472.7,369.2z M471.1,272.5c-0.3-0.1-0.5-0.2-0.8-0.3c1.2-2.9,2.5-5.9,3.7-8.8c0.3,0,0.4,0.1,0.4,0.3
				c-0.3,1.1-0.4,1.6-0.4,1.6S473,267.7,471.1,272.5z M471.5,307.6c0.1,0,0.3,0,0.4,0c-0.5,2.1-1.1,3.6-1.6,4.7
				C470.7,310.7,471.1,309.2,471.5,307.6z M482.7,196c-3.8,0.1-7.7,0.3-11.5,0.4c1.6,0.4,3.7,0.5,6.2,0.4
				C480.3,196.8,482.1,196.5,482.7,196z M492,345.9c-3.8-0.1-7.7-0.2-11.5-0.3C484.4,345.7,488.2,345.8,492,345.9z M478.5,244.9
				c-0.8,2-1.6,4-2.5,6c-0.1,0-0.3,0-0.4,0c0.8-2.1,1.6-4.2,2.5-6.3c0,0.2,0,0.3,0,0.3S478.3,244.9,478.5,244.9z M479.4,241.4
				c0.5-1.4,1.1-2.7,1.6-4.1c0,0.2,0.1,0.3,0.4,0.3c-0.3,0.6-0.5,1.3-0.8,1.9c-0.3,0.6-0.5,1.4-0.8,2.2c0-0.2-0.1-0.3-0.2-0.3
				C479.4,241.4,479.4,241.4,479.4,241.4z M483.5,239.4c0.3,0.1,0.5,0.2,0.8,0.3c0.8-2.3,1.6-4.6,2.5-7c-0.1,0-0.3,0-0.4,0
				C485.3,235.7,484.3,237.9,483.5,239.4z M484.3,227.4c-0.1-0.1-0.3-0.2-0.4-0.3c0.7-1.5,1.4-3,2.1-4.5c0.1,0,0.3,0,0.4,0
				C485.7,224.3,485,225.9,484.3,227.4z M503.2,346.8c-2.8-0.1-5.5-0.1-8.2-0.2C497.7,346.7,500.4,346.8,503.2,346.8z M517.2,346.6
				c-3.6,0-7.1,0-10.7,0c0,0.1,0,0.2,0,0.3c6,0.2,12.1,0.3,18.1,0.5C522.9,347,520.5,346.7,517.2,346.6z M504.1,238.6
				c0.1,0,0.3,0,0.4,0c3.1-7.9,6.3-15.8,9.5-23.8c-0.3,0-0.4-0.1-0.4-0.3c-0.7,0.8-1.4,1.5-2,2.3c-1.6,4.2-3.3,8.4-4.9,12.5
				c-0.3,0.4-0.4,0.6-0.4,0.6S505.4,232.9,504.1,238.6z M529.5,346c-6.7-0.2-13.4-0.4-20.2-0.6c0,0.1,0,0.2,0,0.3
				c6.7,0.2,13.4,0.4,20.2,0.6C529.5,346.2,529.5,346.1,529.5,346z"/>
		</g>
	</g>
	<g>
		<path class="st2" d="M125.2,671.1c-3.3,0-5.8-0.2-7.5-0.6c-4-0.8-8.6-2.3-13.6-4.6l-3.5-2.6c-3.1-2.5-4.6-6.2-4.6-11
			c0-2.5,0.3-5.1,0.9-7.8c1.7-5.4,3.8-10.4,6.3-15c5.4-10.4,11.9-20.2,19.6-29.4c6.5-8.1,11.5-14,15-17.9l6.6-6.9l4.3-4.6
			c3.1-3.3,8.1-8,15-14.1l10.7-9.2c0.6-0.6,4.4-3.6,11.5-8.9l13.6-9.8l7.5-5.2c0.8-0.4,1.3-0.8,1.7-1.2c-0.4-0.6-1-1.5-1.7-2.7
			c-0.8-1.2-1.6-2.2-2.3-2.7l-0.6-0.6c-0.8-1.3-1.9-2.8-3.5-4.5c-1.5-1.6-2.8-3-3.8-4.2c-1.5-2.1-3.1-3.8-4.6-4.9l-1.4-1.2
			c-1.1-1.1-2.4-2.5-3.8-4c-1.4-1.5-2.9-3.1-4.6-4.6l-8.7-8.4l-7.2-7.8l-1.7-1.7c-2.5-2.5-5.3-6-8.4-10.4c-2.5-4.4-4.1-8.4-4.9-11.8
			c-0.2-0.8-0.4-1.7-0.6-2.9c-0.2-1.2-0.3-2.5-0.3-4c0.4-3.9,1-7.4,1.7-10.7c0.6-2.5,2-5.9,4.3-10.1l4.6-6.6
			c2.5-3.9,5.4-7.3,8.7-10.4c2.5-2.5,5.2-4.9,8.1-7.2c0.2-0.2,0.4-0.4,0.7-0.7c0.3-0.3,0.5-0.5,0.7-0.7c3.1-2.7,7.4-5.7,13-9
			c2.1-1.1,4.1-2.2,5.9-3s3.4-1.6,4.8-2.2c1.9-1.1,3.9-1.8,6.1-2c1.2-0.2,3.4-0.7,6.6-1.4c2.5-0.8,5.5-1,8.9-0.6
			c3.1,0.4,5.4,0.8,6.9,1.2c4.6,1,8.5,2.6,11.5,4.9c3.6,2.9,5.7,6.7,6.1,11.5v6.9c-0.8,7.3-3,14.4-6.6,21.4l-3.5,6.4
			c-1.7,2.3-2.7,3.6-2.9,3.8c-1.3,1.7-3,2.2-4.9,1.4h-1.7c-1,0-1.8-0.3-2.6-0.9c-1-1-1.2-1.9-0.6-2.9c0.4-0.8,0.8-1.2,1.2-1.4
			c1.1-1.7,2.7-4.5,4.6-8.4c2.3-5.4,3.8-10.4,4.6-15c0.2-1.7,0.3-4.5,0.3-8.4c-0.2-2.7-1.1-5-2.6-6.9c-1.7-2.3-3.8-3.5-6.1-3.5
			c-1.1,0-2.9,0.2-5.2,0.6c-4,1.1-9.2,3.2-15.6,6.1l-7.8,4.6c-2.7,1.9-4.7,3.5-6.1,4.6l-4.3,3.8c-1,0.8-2.1,1.9-3.5,3.5
			c-1.4,1.5-2.6,2.8-3.8,3.8l-1.1,1.2l-5.8,8.1c-3.1,4.2-5.4,8.9-6.9,13.9c-0.6,2.3-0.9,4.5-0.9,6.6c0,3.1,0.6,6.2,1.7,9.5l0.9,1.1
			c0.6,1.1,1.1,2.2,1.7,3s1.1,1.7,1.4,2.5c0.2,0.6,1.2,1.8,3.2,3.8l2,2.9l0.9,0.9c3.1,2.7,5.3,4.8,6.6,6.4l4.3,4.3l2.9,2.6l1.7,1.7
			l7.5,7.2c2.3,2.3,3.9,4,4.6,5.2c1.4,1.7,2.9,3.3,4.6,4.6c1.9,1.9,3.1,3.2,3.5,3.8l2.3,2.6l3.8,4.6c0.2,0,0.9-0.3,2-0.9l25.4-14.7
			l8.7-5.2c0.6-0.2,2.5-1.2,5.8-3.2c1.1-0.6,2.3-0.9,3.5-0.9c2.3,0,3.5,0.9,3.5,2.6c0,1.5-1.1,3-3.5,4.3c-2.3,1.1-4.5,2.4-6.5,3.6
			s-3.8,2.3-5.3,3l-14.1,8.4l-14.4,8.9l4.9,7.8c1.7,2.7,3.6,5.7,5.5,9c1.5,2.5,2.4,4.1,2.6,4.9c0.6,1,1.8,3.7,3.8,8.1
			c0.4,0.8,0.6,1.4,0.7,2c0.1,0.6,0.1,1.1,0.1,1.4c0.8,1.7,1.2,3.8,1.4,6.3s0.4,4.3,0.6,5.5c0.2,0.6,0.3,1.6,0.3,3.2
			c0,1.7-0.1,3.1-0.3,4c-0.4,9.8-2.5,18.8-6.4,26.8c-1.2,2.7-3,5.8-5.5,9.2c-1.4,2.3-2.7,4.1-4,5.5l-2.9,4c-0.8,1.2-1.8,2.5-3.2,4
			c-1.4,1.5-2.4,2.8-3.2,3.8c-2.5,2.9-5.4,5.5-8.7,7.8l-0.9,0.9c-1.4,1.5-3,3.1-5.1,4.6s-3.5,2.7-4.5,3.5c-0.6,0.4-2.8,1.8-6.6,4.3
			l-2.3,1.7c-0.6,0.6-1,0.9-1.2,0.9c-1.7,0.8-3.4,1.8-4.9,3.2c-4.6,2.7-7.3,4.1-8.1,4.3c-1.1,0.4-2.3,1-3.5,1.7
			c-1.2,0.8-2.3,1.3-3.5,1.7c-0.8,0.4-2.4,1.2-5.1,2.3s-5.1,1.9-7.4,2.3l-2.3,0.9c-1.3,0.6-3.2,1.2-5.5,1.7c-2.3,0.6-4.1,1-5.5,1.4
			l-4.3,0.6l-6.9,0.9c-1,0.2-2.5,0.3-4.6,0.3L125.2,671.1L125.2,671.1z M126.3,662.5c3.1-0.6,5-1,5.8-1.2c1.9-0.4,5.3-1.3,10.1-2.9
			l5.8-1.7c4.2-1.9,7.5-3.3,9.8-4c1.4-0.6,3.4-1.6,6.1-3.2l2.6-1.4c1.1-0.6,2.5-1.3,4-2.2c1.5-0.9,3.2-1.9,4.9-3
			c1-0.6,2.3-1.3,4-2.3s3.1-1.9,4-2.9l8.9-6.6l6.6-5.5c3.5-3.1,7.3-7.2,11.5-12.4c1.3-1.5,3.2-3.8,5.5-6.9c0.4-0.6,1.8-2.8,4.3-6.6
			c1.5-2.5,3.2-5.8,4.9-9.8c2.9-7.9,4-15.4,3.5-22.5c0-4.8-0.6-8.8-1.7-11.8l-0.6-2.3c-0.2-1.2-0.6-2.5-1.3-4.2
			c-0.7-1.6-1.2-3-1.6-4.2c-0.2-0.4-0.5-0.9-0.9-1.4c-0.4-0.6-0.6-1.2-0.6-1.7c0-0.4-0.3-0.9-0.9-1.4c-0.8-1-1.3-1.8-1.6-2.6
			c-0.3-0.8-0.6-1.4-1-2c-1.9-3.1-3.5-5.4-4.6-6.9l-2.3,1.2l-5.5,4c-4.8,2.9-11.6,7.8-20.5,14.7c-6.5,4.8-13.1,10.2-19.6,16.2
			c-5,4.2-8.7,7.5-11,9.8l-7.8,8.4l-4,4.3c-3.3,3.7-6.4,7.3-9.2,11c-5.2,6.2-9.7,12.2-13.6,18.2c-4.4,6.5-7.6,12-9.5,16.5
			c-2.7,5.2-4.4,10.5-5.2,15.9c-0.4,2.3-0.5,3.9-0.3,4.9c0,3.7,1.7,6.2,5.2,7.8c2.5,1,4.7,1.4,6.6,1.4
			C120.2,663.1,123.2,663,126.3,662.5z"/>
		<path class="st2" d="M263.7,602.1c0,0-0.2,0-0.6,0c-2.5-0.2-4.5-1-5.9-2.3c-1.4-1.3-2.7-3.3-3.9-5.8c-1.5-3.8-2.4-7.7-2.6-11.5
			c-0.2-1.3-0.3-3.4-0.3-6.1c-0.2-1-0.3-2.5-0.3-4.6c0-2.3,0.2-5.8,0.6-10.4c0.8-7.7,1.5-13.5,2.3-17.3l0.9-8.4
			c1-6.5,1.9-11.9,2.9-16.2c0.2-2.9,0.7-6.1,1.4-9.7c0.8-3.6,1.4-6.1,1.7-7.6l2-11.5c2.1-11.2,3.6-18.8,4.6-22.8l1.1-4.9l5.8-20.5
			l0.6-2l2.3-6.9h-1.5c-5,1-9.2,1.9-12.7,2.9l-6.4,1.4c-5.8,1.5-10,2.9-12.7,4l-4.9,1.7c-1.9,0.6-3.6,0.4-4.9-0.4
			c-1.3-0.9-2-2-2-3.3c0-1.9,1.4-3.5,4-4.6c4.6-1.9,8.1-3.3,10.4-4c2.3-0.8,6.2-1.8,11.8-3.2c8.9-2.3,15.9-3.9,21.1-4.6l0.9-0.3
			c0.6-1.2,1-2.2,1.1-3.2c0.2-1,0.4-1.7,0.6-2.3c0.6-1.7,1.3-3.9,2.2-6.5c0.9-2.6,1.9-5.4,3-8.5c1.5-4.6,2.8-8,3.8-10.1l2.3-6.1
			c2.1-4.6,4.9-9,8.4-13c0.6-0.6,1.2-1.1,1.9-1.6c0.7-0.5,1.3-1,1.9-1.6c1.1-0.8,2.6-1.1,4.3-1.1c2.9,0,5.2,0.7,6.9,2
			c1.3,1.2,2.2,2.8,2.6,4.9c0.4,3.5,0.6,6,0.6,7.5c0,3.9-0.5,8.2-1.4,13c-0.4,3.1-0.8,5.6-1.1,7.5l-3.2,13.3
			c3.5-0.4,6.1-0.8,7.8-1.1c0.6,0,1.8-0.2,3.8-0.6c8.5-1.2,14.9-1.8,19.3-2c1.9-0.2,4.7-0.3,8.4-0.3c2.1,0,3.8,0.5,4.9,1.6
			c1.1,1.1,1.7,2.3,1.7,3.6c0,2.3-1.4,3.6-4,3.8c-3.5,0.4-8.3,0.8-14.4,1.1l-10.7,1.1l-19.9,2.6l-3.2,10.1c-0.4,0.6-0.8,1.4-1.1,2.6
			c-1.1,3.1-3.1,7.7-5.8,13.9c-3.5,7.1-7,13.5-10.7,19c-2.1,4-4.6,7.9-7.5,11.5c-0.8,1.1-1.4,2.5-1.7,4c-1.2,6.9-2.1,12.1-2.9,15.6
			c-0.4,1.4-0.8,3.8-1.1,7.2l-2,12.1c-2.1,10.6-3.9,20.8-5.2,30.6c-0.4,1.9-0.8,4.8-1.1,8.7l-1.1,10.7c-0.4,3.8-0.6,9.5-0.6,17
			c-0.4,0.6-0.4,1,0,1.4l0.6,0.6c2.1-1.7,3.8-3.8,5.2-6.1c4.2-6.7,7.7-13,10.4-18.8c4-9.4,7.8-19,11.2-28.6
			c1.5-4.2,3.8-10.8,6.8-19.6c3-8.9,5.3-16.4,7.1-22.5c0.6-1.5,1.3-2.7,2.3-3.5c1-0.8,1.9-1.2,2.9-1.2c1.2,0,2.1,0.5,2.7,1.6
			c0.7,1.1,0.8,2.5,0.4,4.2l-3.5,12.4c-3.1,11.5-4.9,18.1-5.5,19.6c-3.5,9.8-7.8,21.3-13,34.6c-1.5,3.1-3.5,7.7-5.8,13.8
			c-2.9,5.4-5.5,9.8-7.8,13.3c-1.5,2.5-3.3,4.7-5.2,6.6c-0.6,0.8-2,1.9-4.3,3.5c-1,0.6-2.1,0.9-3.3,0.9s-2.1,0-2.5,0
			C264.1,602.3,263.7,602.1,263.7,602.1z M289.9,453.1c1.2-2.2,2.5-5,4-8.2c0.6-1.2,1.2-2.5,1.7-4.2c0.6-1.6,1.2-3.2,1.7-4.8
			c0.4-1.1,1.2-3.5,2.6-6.9l-4.9,0.9c-0.8,1.9-1.2,3.4-1.5,4.3l-4,15l-2,8.1C288,456.7,288.8,455.3,289.9,453.1z M303.2,418.9
			c1.9-7.1,3.4-12.9,4.3-17.3c1-4.4,1.4-8,1.1-10.7c-0.4,0.2-0.8,0.8-1.1,1.7c-1,2.7-3.1,8.9-6.4,18.5l-2.6,8.7L303.2,418.9z"/>
		<path class="st2" d="M303.8,551.6c-0.8-1-1.7-2.4-2.9-4.3l-0.9-1.4c-1.1-3.5-1.7-7.4-1.7-11.8c0-5.6,0.6-10.5,1.7-14.7
			c2.3-9.2,4.8-16.9,7.5-23.1c1.9-4.6,3.5-8.1,4.6-10.4c1.5-2.3,2.8-3.9,3.8-4.9c1-1,1.9-1.4,2.9-1.4c0.6,0,1.4,0.3,2.6,0.9
			c0.8,0.4,2.6,1.1,5.5,2h0.6c1.1-1,2.6-1.4,4.3-1.4c1.3,0,2.4,0.2,3.2,0.6c0.2,0.2,0.4,0.3,0.7,0.3s0.5,0.1,0.7,0.3
			c2.1,0.6,3.6,2,4.6,4.3c1.7,3.5,2.6,7.2,2.6,11.3v5.2v1.7c0.4,0.2,0.7,0.3,1,0.3s0.5,0,0.7,0c4.8-1,9.3-2.5,13.6-4.6
			s7.4-4.8,9.5-8.1c0.8-1,1.6-1.4,2.6-1.4c0.8,0,1.4,0.3,1.9,1c0.5,0.7,0.7,1.5,0.7,2.5c0,2.1-1.2,4.3-3.8,6.6
			c-2.9,3.1-6.7,5.8-11.5,8.2c-4.8,2.4-10,3.8-15.6,4.2c-0.2,1-0.7,3.1-1.4,6.3c-1.1,5.6-2.9,11-5.2,16.2l-3.2,7.2
			c-1.9,4.4-4.8,8.2-8.7,11.3l-4.3,2.6c-1.4,0.8-2.9,1.2-4.6,1.2c-1,0-1.7-0.1-2.3-0.3C308.8,556.4,305.7,554.3,303.8,551.6z
			 M318.4,544.7c0.9-0.8,1.5-1.3,1.9-1.7c1.9-1.9,4-5.2,6.4-9.8c2.3-4,4.3-9.6,6.1-16.7c0.8-2.7,1.1-4.7,1.1-6.1
			c-0.8-0.6-1.6-1.1-2.5-1.7c-0.9-0.6-1.7-1.2-2.5-2c-1.1-1-2.7-2.6-4.6-4.9c-0.4,0.4-0.8,1.1-1.1,2l-2.6,7.2
			c-1.9,5.6-3.8,12.3-5.5,20.2c-0.4,2.3-0.6,4.8-0.6,7.4s0,4.4,0,5.3c0,1.3,0.4,2.2,1.1,2.6C316.6,546.1,317.5,545.5,318.4,544.7z
			 M335.2,498.2c0-2.5-0.1-4.2-0.3-5.2c-0.4-0.8-0.6-1.5-0.6-2.3l-0.9,1.1c-0.6,1.4-0.9,2.9-0.9,4.6c0,1.7,0.5,3.6,1.4,5.5
			c0,0.2,0.1,0.3,0.3,0.3s0.4,0.1,0.6,0.3C335.1,501.8,335.2,500.4,335.2,498.2z"/>
		<path class="st2" d="M378.2,617.2c-2.9-2.1-4.7-4.7-5.5-7.8c-2.1-6.7-3.2-13.4-3.2-19.9c0-5.4,0.4-10.4,1.2-15
			c0.4-3.8,1.3-9,2.9-15.3c2.1-9.8,4.3-18.1,6.6-24.8c1.9-6.2,4.4-12.5,7.5-19c0.8-1.7,1.5-3.2,2.3-4.5c0.8-1.2,1.4-2.4,2-3.3
			c0.2-0.4,0.4-0.8,0.7-1.3c0.3-0.5,0.6-1,1-1.6l-1.1-0.6l-16.7-6.4c-3.7-1.3-7.8-3.1-12.4-5.2c-3.6-1.9-6.6-3.9-9-5.8
			c-7.3-5.8-10.7-13.3-10.1-22.5c0.2-2.3,0.8-4.8,1.7-7.5c1.9-5,4.3-9.2,7.2-12.7c2.3-2.7,4.8-4.7,7.5-6.1c2.3-1.5,5-2.3,8.1-2.3
			c2.7,0,5.3,0.6,7.8,1.9s4.4,2.7,5.8,4.5c2.5,3.3,3.9,6.9,4,11c0.6,7.7-0.5,15.5-3.2,23.4c-0.8,2.5-1.5,4.8-2.3,6.9s-1.4,4-2,5.8
			c-0.2,0.2-0.3,0.4-0.3,0.7s-0.1,0.5-0.3,0.7l2,1.2l18.2,6.4c2.7,1.2,4.7,1.9,6.1,2.3c2.1,0.4,4.1,2.1,6.1,5.2
			c0.4,0.8,0.6,1.4,0.6,1.7c0,0.8-0.3,1.6-0.9,2.6c-0.6,1.4-1.4,2.7-2.3,4c-2.1,3.3-4.3,7.4-6.6,12.4c-1.5,3.7-3.7,9.3-6.4,17
			l-3.2,11.2c-1.1,4.6-1.9,8.1-2.3,10.4c-0.2,1-1.1,6.5-2.6,16.7c-0.4,2.5-0.6,6.2-0.6,11.2c0,1.5,0.1,2.8,0.3,3.8h0.3
			c0.4-0.4,0.6-0.7,0.6-0.9l2.3-8.7c1.9-7.7,4.9-16.3,9-26c3.9-9.6,6.8-16.8,9-21.6c0.4-1,0.9-2.1,1.6-3.5c0.7-1.3,1.4-2.9,2.2-4.6
			c1.5-2.7,2.6-4.7,3.2-6.1c1.9-3.7,4.9-8.6,8.8-14.9s7.3-11.3,10-15.1l1.1-1.4c1-1.1,2-1.4,3.2-0.9c0.2,0,0.9,0.2,2,0.6
			c0.2,0.6,0.5,1.2,1,2s0.8,1.5,1,2.3l-0.9,1.4c-2.9,4.4-8.7,14.3-17.3,29.7c-1.7,3.1-3.1,5.8-4.2,8.1c-1.1,2.3-2,4.2-2.7,5.8
			l-3.5,8.1l-5.5,13.8c-4,10-6.9,19-8.7,27.1c-1.2,4.4-2.4,10.3-3.8,17.6c-0.6,2.5-1.5,4.9-2.6,7.2c-1.5,2.9-3.8,4-6.6,3.5
			C383,619.9,380.4,618.9,378.2,617.2z M374.2,474.3c1.5-5,2.5-9.2,2.9-12.7c0.2-1.3,0.3-3.2,0.3-5.5c0-2.5-0.1-4.3-0.3-5.5
			c-0.4-3.3-1.5-5.9-3.5-7.8c-3.3,0.6-5.8,1.7-7.5,3.5l-3.8,4.9c-3.8,5.4-5.9,10.9-6.1,16.5c-0.4,6.7,2,11.9,7.2,15.6
			c0.4,0.4,1.9,1.4,4.6,2.9l1.4,0.6C371.1,483.4,372.6,479.3,374.2,474.3z"/>
		<path class="st2" d="M425,554.2c-2.5-4.2-3.9-8.7-4-13.3c0-3.7,0.4-6.7,1.1-9.2c0.2-0.8,0.4-1.7,0.6-2.9c0.2-1.2,0.6-2.5,1.2-4
			c0.4-1.3,0.9-3.1,1.4-5.2c0.6-2.1,1.1-3.8,1.7-5.2c0.8-2.7,1.5-5.2,2.3-7.5s1.4-4.3,2-6.1c1.1-4.2,3.1-9,5.8-14.1l2-3.8
			c1.4-2.7,4-4,8.1-4c3.1,0,5.2,0.9,6.4,2.6c0.4,0.8,0.6,1.9,0.6,3.5c0,1.9-0.6,4.4-1.7,7.5c-1.2,3.1-1.9,5.3-2.3,6.6
			c-0.6,1.4-1.1,2.6-1.4,3.8c-0.4,1.1-0.8,2.1-1.1,2.9c-1,2.7-1.9,5.8-2.9,9.2l-1.7,6.1l-1.7,7.2c-0.6,1.7-1.5,5.3-2.9,10.7
			c-0.6,2.5-0.9,5.3-0.9,8.4c0,1.9,0.1,3.4,0.3,4.3c0,1.5,0.4,2.8,1.2,3.8c0.8,0.4,1.9,0.4,3.5,0c2.9-1.3,5.4-2.8,7.5-4.3
			c3.5-2.5,7.9-7,13.3-13.6c3.1-3.7,7.8-10.8,14.3-21.5c6.4-10.7,10.5-17.6,12.3-20.9c0.8-2.3,2.3-3.5,4.6-3.5
			c1.3,0,2.5,0.5,3.5,1.4c1,1,1.1,2.2,0.6,3.8c-0.6,2.1-3.9,8.2-9.8,18.3c-6,10.1-10.2,16.9-12.7,20.3l-6.9,8.7
			c-5.2,6.9-10.9,12.2-17,15.9c-4.2,2.1-7.9,3.2-11,3.2c-1.4,0-2.3-0.1-2.9-0.3C432,562.3,427.7,559.4,425,554.2z M451.5,460.5
			c-1.5-1.1-2.3-2.7-2.3-4.6c0.2-0.6,0.3-1.4,0.3-2.6c0.6-2.5,1.8-3.8,3.8-4c1.9-0.2,3.8,0,5.6,0.7c1.8,0.7,3,1.5,3.6,2.5
			c0.4,0.8,0.6,1.8,0.6,3.2c0,1.7-0.4,3.3-1.2,4.8s-2,2.2-3.8,2.2C455.5,462.1,453.3,461.4,451.5,460.5z"/>
		<path class="st2" d="M510.4,563.5c0,0-1.4,0-4,0c-5,0-10.3-1.5-15.9-4.6c-4-2.3-6.9-5.7-8.7-10.1c-1.5-3.5-2.4-6.9-2.6-10.4
			c-0.2-1.3-0.3-3.3-0.3-5.8c0-2.7,0.1-4.6,0.3-5.8c0.6-5.6,1.5-10.4,2.9-14.4c1.1-3.9,3-8.7,5.5-14.4c1.7-3.9,3.8-7.6,6.1-11.2
			c0.4-0.8,2.3-3.9,5.8-9.2l2.6-3.2l5.8-6.4l5.2-4c2.5-2.1,6.2-3.9,11-5.2c0.8-0.4,1.8-0.6,3.2-0.6c1.5,0,2.7,0.2,3.5,0.6l3.8,1.4
			c1,0.4,1.6,0.8,2,1.1c2.1,1.9,3.1,4.2,2.9,6.9c-0.8,4.2-1.7,7.7-2.9,10.4c-2.1,4.8-5.1,9.6-9,14.4c-1.3,1.9-2.8,3.6-4.3,4.9
			c-5.4,5-9.6,8.6-12.7,10.7c-1.9,1.1-4.8,2.7-8.7,4.6l-1.7,0.9l-0.6,0.6c-1.7,4.6-2.9,9.4-3.5,14.4l-0.3,7.5c-0.2,4,0.5,8.5,2,13.3
			c0.2,0.4,0.4,0.8,0.6,1.3c0.2,0.5,0.4,1,0.6,1.6c1.3,1.9,3,2.8,4.9,2.6c2.3,0,4.4-0.3,6.4-0.9c6.3-1.3,13-5.2,19.9-11.5
			c3.8-3.5,7.8-8,11.8-13.6c2.3-3.1,5.4-7.9,9.2-14.4c2.1-3.6,5.2-10.3,9.2-19.9c0.4-1.1,1.1-2.1,2.2-2.9c1-0.8,2.2-1.1,3.3-1.1
			c1.2,0,2,0.5,2.6,1.4c0.6,1,0.6,2.3,0,4c-1.7,5.2-4.6,11.7-8.5,19.5c-4,7.8-7.8,14.4-11.7,19.8c-1,1.3-2.6,3.2-4.9,5.5
			c-4.8,5.4-9.4,9.7-13.8,13c-5.4,3.8-10,6.5-13.8,7.8C512.1,563,510.4,563.5,510.4,563.5z M517,491c4.6-5,8.3-11.2,11-18.8
			c-2.1,1-3.7,2.1-4.6,3.5c-0.6,0.8-1.2,1.4-1.9,1.9c-0.7,0.5-1.3,1.1-1.9,1.9l-2.6,2.9c-2.7,3.9-4.6,6.7-5.8,8.7l-3.5,5.2
			c-0.2,0.4-1.1,2-2.6,4.9C507.7,500.4,511.6,497,517,491z"/>
		<path class="st2" d="M546.8,639.7c-2.3,0-5.6-0.4-9.8-1.2c-4-0.8-7.7-2.4-11-4.9c-2.7-2.1-4.6-4.7-5.8-7.8c-1-2.3-1.6-5.9-2-10.7
			c0-7.1,1.2-14.4,3.8-21.9c1.9-6,5.4-13.4,10.4-22.2c5.4-9.2,12.4-19.1,21.1-29.7c1.3-1.7,3-3.8,4.9-6.1c1.9-2.3,3.5-4,4.6-5.2
			l0.9-1.4c-0.4-2.1-1.2-6.1-2.3-11.8c0-0.8-0.2-2.1-0.6-4c-0.4-3.5-0.6-6.2-0.6-8.1c0-5.4,0.2-9.4,0.6-12c0.4-2.6,1.1-5.7,2-9.4
			c2.1-6,4.9-11.2,8.4-15.9c0.6-1,2.4-3,5.5-6.1c1.9-1.5,3.7-2.4,5.2-2.6c2.9-0.2,5.2,0.1,7.1,0.9c1.8,0.8,3,1.8,3.6,3
			c0.6,1.2,0.5,2.4-0.3,3.3c-1.3,1.7-3.2,4.5-5.5,8.4c-1.2,1.5-2.7,4-4.6,7.5c-1,1.7-1.7,3.4-2.3,4.9c-1.9,6.2-3,10.9-3.2,14.1v5.5
			c0,2.5,0.1,4.4,0.3,5.8l0.3,3.2c16.3-10.2,32.7-17.8,49.1-22.8h1.4c1.5,0,2.8,0.4,3.9,1.3c1,0.9,1.6,1.9,1.6,3
			c0,1.5-1.1,2.6-3.2,3.2c-17.1,5.8-34,14.3-50.8,25.7c3.3,10.2,5.8,21.1,7.5,32.8c1.7,11.6,2.7,21.3,2.9,29c0,1-0.1,3-0.3,6.2
			c-0.2,3.2-0.6,6-1.2,8.5c-1.5,6.2-3.1,10.7-4.6,13.6c-1.3,3.1-3.3,6.2-5.8,9.2c-3.7,4-7,6.8-10.1,8.4c-0.6,0.4-1.2,0.9-1.9,1.4
			c-0.7,0.6-1.3,1-1.9,1.2c-3.5,1.5-7.8,2.7-13,3.5C550.1,639.6,548.7,639.7,546.8,639.7z M543.9,631.3c0,0,1.9-1,5.8-2.9
			c3.5-1.5,6.2-3.7,8.4-6.3c0.8-0.8,1.2-1.3,1.4-1.7c3.5-3.8,5.9-6.9,7.2-9.2c1.9-3.1,3.4-6.7,4.3-11c1.2-3.7,1.7-7.4,1.7-11.3
			c0-1.5,0-3.4,0.1-5.6s0-4.8-0.1-7.7c0-2.3-0.4-5.6-1.2-9.8c-0.4-4.2-0.8-7.2-1.2-9c-1.5-6.2-2.6-10.8-3.2-13.8
			c-0.4-1.5-1-2.8-1.7-3.8l-2.6,2.9L552.5,556c-2.7,3.5-4.6,6.1-5.8,7.8c-1.3,1.9-3.2,5-5.5,9.2c-4.6,6.9-8.7,15.3-12.1,25.1
			c-2.3,6.7-3.2,13-2.6,18.8c0.4,4.6,1.5,8.3,3.5,11l1.7,1.7c2.7,1.2,4.9,1.7,6.6,1.7C542,631.3,543.9,631.3,543.9,631.3z"/>
	</g>
</g>
</svg>
